<?xml version="1.0" encoding="UTF-8" standalone="no"?>
<svg xmlns="http://www.w3.org/2000/svg" xmlns:xlink="http://www.w3.org/1999/xlink" stroke="white" fill="none" stroke-width="0.1%" stroke-linecap="round" stroke-linejoin="round" width="1200" height="1200" viewBox="1.6150237564542087E7 -4557036.235196906 2149.7914186622947 2149.791418660432" preserveAspectRatio="xMidYMid meet">
<g id="planet_osm_line" class="line">
<path d="M16152023.66753 -4556142.04358l145.09382 18.44972 5.46579 0.85977 124.18802 16.39195 "/>
<path d="M16152339.97073 -4556220.87382l150.1366 22.66381 25.18047 4.18604 115.44944 16.39184 80.57305 11.13462 "/>
<path d="M16152547.39234 -4555529.67587l-5.37673 23.89161 -23.88916 22.69356 -41.845 16.71715 -52.77657 50.02475 -61.90477 102.68611 -55.35918 72.60681 -56.01597 57.58118 "/>
<path d="M16150863.09504 -4556366.07325l-14.32682 108.80777 "/>
<path d="M16150383.68653 -4555892.20146l-0.0334 2.07194 -0.36735 20.63487 -17.71093 118.52444 -42.39046 295.90119 -13.15796 97.41399 -6.12257 42.2304 -25.73707 188.3192 -19.48091 132.33293 -15.017 111.89509 -15.69605 114.6028 -16.45302 120.87701 "/>
<path d="M16150323.18438 -4555455.06902l134.08433 18.40865 121.52749 18.14087 128.05081 18.63424 "/>
<path d="M16150509.16586 -4555884.63253l-0.28943 2.04375 -22.03013 158.92067 -2.50469 88.24959 -27.0729 198.75814 "/>
<path d="M16152037.99435 -4556322.07107l-32.06001 35.7431 "/>
<path d="M16152015.45215 -4556086.63795l-210.88364 -33.3759 "/>
<path d="M16151766.48611 -4555854.2017l212.45325 31.43165 "/>
<path d="M16151785.94475 -4555988.27144l211.35119 30.64194 "/>
<path d="M16151588.04096 -4555450.26248l99.20793 16.91454 "/>
<path d="M16151054.15269 -4555348.07005l-17.54395 127.56575 2.4045 9.27501 8.51594 5.48325 45.78571 6.15985 74.72877 10.52955 118.07658 16.02693 41.76707 5.77929 9.90743 1.36729 19.74808 5.80748 20.00411 0.91623 264.5953 37.11439 "/>
<path d="M16151389.11303 -4555768.13794l-0.32283 2.17063 -57.19595 413.69678 "/>
<path d="M16151500.05404 -4555751.74544l-0.32283 2.18473 -45.94155 333.21191 -8.14859 14.87075 "/>
<path d="M16151804.56851 -4556120.01385l-13.61437 96.26609 -5.00938 35.47632 -19.45865 134.06974 -11.05403 81.76478 -7.90368 54.99884 "/>
<path d="M16152156.88356 -4554917.06066l48.35719 11.86897 4.75334 1.16998 28.82062 7.27363 41.87839 11.33334 19.5477 4.76452 59.29989 -9.24711 38.41636 6.44196 6.83502 1.36733 12.42326 4.77862 15.30643 13.68743 15.59586 24.38651 7.74784 68.4517 8.78311 14.7589 12.75721 16.29543 32.65001 11.88327 14.2155 2.25543 11.83326 1.9594 "/>
<path d="M16152263.19368 -4554955.5854l-48.36832 31.54714 -9.58461 18.84657 "/>
<path d="M16152307.84392 -4554950.75043l-58.04198 39.77931 -10.98723 14.22304 "/>
<path d="M16152357.09167 -4554948.48096l-61.32591 49.39292 -15.07266 13.67331 "/>
<path d="M16152407.09638 -4554938.28946l-41.26614 33.70391 -6.28955 14.68823 "/>
<path d="M16152292.65994 -4554779.04423l-90.33577 -17.16934 -7.25803 -27.76972 14.92794 -80.03841 "/>
<path d="M16150909.67112 -4554911.22485l-79.38193 22.75124 -53.80071 -8.95108 -132.04718 -22.21557 "/>
<path d="M16150946.72938 -4555363.57517l-27.55157 127.22727 21.7073 120.4346 -31.21399 204.68846 -5.59937 47.71564 -13.74796 87.60846 -14.2155 32.01287 -50.9398 105.7658 -8.24877 12.37677 -15.38435 6.76635 -208.67952 -30.70227 "/>
<path d="M16150830.02202 -4555381.2087l-18.13395 124.21057 -0.21151 120.57532 -35.18809 238.99812 "/>
<path d="M16150675.47717 -4555131.74298l-189.64388 -26.14781 -9.67366 5.90616 "/>
<path d="M16150459.76227 -4555038.90716l198.30454 27.67048 "/>
<path d="M16150449.19805 -4554966.89047l-190.51218 -27.88204 "/>
<path d="M16151616.50536 -4554939.07884l139.52785 19.43858 125.1899 17.71889 32.30492 12.2214 234.73941 33.9578 "/>
<path d="M16152203.67114 -4555257.49148l-73.47086 12.30555 -152.95298 -22.25711 -38.47202 -13.09488 -5.56597 -1.87472 -262.07948 -40.94783 "/>
<path d="M16151642.14224 -4555122.04502l113.36777 16.05522 97.20418 15.05444 54.51315 7.2594 "/>
<path d="M16151677.43052 -4555368.15622l-103.68297 -13.78544 -13.56985 8.69695 -38.41636 76.18669 -13.40287 11.07918 "/>
<path d="M16151751.52477 -4555079.13706l-4.21901 0.3524 -2.59374 1.43779 -2.25979 2.791 -0.85716 2.84738 0.16698 2.96015 0.86829 2.22716 1.8813 2.29764 2.54922 1.52236 3.4843 0.53565 2.89431 -0.66251 3.2394 -2.41041 1.46942 -2.57956 0.50094 -2.93196 -0.53433 -2.93196 -1.74772 -3.08701 -2.04828 -1.36731 -2.79412 -1.00081 "/>
<path d="M16151852.71419 -4555090.93535l-3.58449 23.48384 "/>
<path d="M16151651.13685 -4555190.31115l272.87747 38.52387 "/>
<path d="M16152004.27567 -4556004.43806l159.93271 21.43804 "/>
<path d="M16152195.11068 -4556289.27369l-20.88354 166.53959 "/>
<path d="M16152148.66818 -4555867.9724l-55.16994 -9.16166 "/>
<path d="M16152134.53061 -4555764.06448l-51.89715 -7.16026 "/>
<path d="M16151510.54033 -4556121.32464l29.74457 0.42284 30.06739 -7.69561 21.41787 -10.37356 16.57547 -14.15087 10.75346 -12.84007 11.64402 -17.91405 9.85177 -22.98801 5.67729 -22.69198 6.84615 -22.11406 8.38236 -14.91181 11.04289 -15.22187 9.26178 -10.45797 5.07617 -4.07325 6.85728 -5.48268 16.43076 -9.25994 18.05602 -8.97805 16.87603 -5.04574 21.4624 -3.9323 18.86865 -0.39464 18.99111 1.28258 14.88342 1.77588 20.47165 2.01548 15.5402 -0.52149 11.38798 -4.01686 5.83314 -5.35581 5.28768 -11.7405 "/>
<path d="M16151696.10993 -4556397.20728l130.07682 18.43517 "/>
<path d="M16151391.08339 -4556317.44816l28.54232 17.42052 19.41412 16.8004 16.03001 19.70386 15.5736 20.42271 12.25628 21.91676 14.39361 27.10355 12.77948 20.09868 6.40087 8.23117 "/>
<path d="M16151470.23155 -4555831.41024l29.56646 -209.99812 3.36185 -23.87629 7.38048 -56.04 5.93333 -44.42586 74.66198 -528.13451 "/>
<path d="M16152085.0157 -4556626.57303l-163.73984 -25.05882 -19.45865 -3.31204 -16.97622 -9.27372 -18.83526 4.7778 -131.0453 -19.33667 -136.63354 -20.36548 "/>
<path d="M16151884.84099 -4556664.21762l30.47928 -220.62189 13.48079 -109.95686 2.90544 -26.91825 6.60125 -55.85163 1.44715 -12.28929 "/>
<path d="M16152086.14003 -4556587.12428l216.32717 34.85427 "/>
<path d="M16152246.76292 -4556458.07976l-190.8684 83.63456 "/>
<path d="M16152064.49952 -4556237.68842l130.61116 -51.58527 148.64492 -62.38119 13.84814 1.60674 "/>
<path d="M16152055.89452 -4556374.4452l-21.91881 -2.00137 -32.30492 23.41046 -15.38435 4.31283 "/>
<path d="M16152259.7539 -4556735.63062l40.86539 -300.26186 "/>
<path d="M16152333.12458 -4556724.94759l-8.90556 26.82037 -0.94622 30.17476 -7.13558 33.38824 -4.71995 5.66572 -22.84276 -2.53689 -24.18973 -2.24092 -22.24163 -5.22881 -16.57547 -2.24092 "/>
<path d="M16151795.39578 -4557111.43224l-9.49555 65.15301 -50.9398 367.50273 -19.8594 142.40446 -18.99111 139.16475 -9.52895 78.96985 7.15784 16.41983 "/>
<path d="M16151877.82786 -4556345.989l43.448 -305.64285 "/>
<path d="M16151715.10103 -4556536.37204l130.68908 19.73157 "/>
<path d="M16151819.30721 -4556326.36982l6.87954 -52.40229 19.60336 -137.86835 20.21562 -142.79936 "/>
<path d="M16151363.74332 -4557175.97883l-56.96218 416.79767 1.73658 10.09107 5.25428 9.5978 "/>
<path d="M16151254.98418 -4556382.05606l141.93235 20.83121 "/>
<path d="M16151145.55712 -4556639.59573l77.04422 11.93748 63.95305 8.89322 "/>
<path d="M16150883.08802 -4556508.50823l239.682 36.574 "/>
<path d="M16151143.49771 -4556626.23478l-240.34991 -37.09493 "/>
<path d="M16151164.93784 -4556780.53304l-240.04935 -37.2776 "/>
<path d="M16151243.22884 -4557193.9898l-44.61685 339.02854 -7.75897 13.93851 -13.77022 11.1621 -7.75897 14.44592 -4.38599 34.88169 -19.38072 140.93731 -2.05941 13.36096 -20.72769 154.30055 -10.15234 70.76648 "/>
<path d="M16150786.40705 -4556859.82353l54.7024 -395.0059 "/>
<path d="M16150927.42658 -4556840.50128l-141.01953 -19.32224 -172.75672 -23.9026 -74.39482 -10.47146 "/>
<path d="M16150522.54646 -4556779.81426l76.18706 11.28901 57.30727 9.07632 189.55483 28.69474 65.62284 9.56963 "/>
<path d="M16150557.12229 -4556413.62696l305.97275 47.55371 "/>
<path d="M16151849.1297 -4555067.45152l2.25979 0.53565 2.97223 1.71971 2.19299 2.62185 1.0464 2.63595 0.21151 3.42532 -0.97961 3.27027 -2.7162 3.32665 -3.01676 1.62104 -2.9277 0.49336 -3.38411 -0.54974 -2.98336 -1.66333 -2.97223 -4.08783 -0.66792 -3.36894 0.65679 -3.72134 1.76998 -2.93196 1.99262 -1.7479 3.13921 -1.36731 3.40638 -0.21144 "/>
<path d="M16152093.49824 -4555877.13406l-3.89618 7.32933 -8.605 1.76186 -7.13558 -4.41169 -0.23377 -8.2173 4.49731 -6.15945 9.70706 0.57789 5.66616 9.11937 "/>
<path d="M16152082.63346 -4555771.22475l-2.08167 -6.01856 -7.68104 -4.7782 -7.4918 1.00074 -4.86466 5.69438 0 5.72257 3.78486 5.73667 5.78861 2.87538 7.56973 -1.91692 4.97598 -8.31606 "/>
<path d="M16150496.55336 -4555286.97964l-192.64951 -28.445 "/>
<path d="M16150310.02642 -4555357.65503l-203.73693 -29.50197 "/>
<path d="M16151108.64358 -4555383.36531l55.94918 -415.73932 0.32283 -2.17062 "/>
<path d="M16151054.68702 -4555817.56902l-0.32283 2.17062 -63.63022 458.33537 "/>
<path d="M16151211.21336 -4556067.61025l-62.67287 -9.51385 -64.53191 -10.11991 "/>
<path d="M16150422.58156 -4556139.22468l249.50037 38.21027 "/>
<path d="M16150060.45925 -4556562.93913l13.12457 -17.30733 13.31381 -16.79992 12.90193 -14.10797 16.36397 -14.16432 21.23976 -11.03548 20.82788 -8.99186 29.12118 -4.03083 24.77972 2.14226 31.49228 7.31469 22.93182 9.54152 20.05977 16.25021 20.05977 23.88912 10.88705 20.78851 9.19499 20.92949 7.74784 23.28323 "/>
<path d="M16150102.74953 -4556853.00226l136.14374 19.6605 137.12335 19.11089 75.22971 10.7816 72.91427 10.45746 "/>
<path d="M16150271.14252 -4557125.5536l6.95747 12.14832 -39.20672 280.06353 -26.76121 186.10717 -38.09353 269.75913 "/>
<path d="M16150309.89283 -4556356.24959l24.61274 -168.98821 41.51104 -288.99307 25.62575 -183.7365 15.72944 -116.01573 1.52508 -11.27454 5.63277 -40.8842 1.8813 -13.13477 2.89431 -20.22357 -6.63464 -12.59919 "/>
<path d="M16150442.99755 -4556316.77163l1.97035 -3.34034 3.47317 -3.01617 4.29693 -1.63493 6.50106 0.36645 2.94997 1.35305 3.4509 3.04436 2.19299 4.04505 0.62339 5.35582 -0.34509 2.39603 -2.38224 4.56655 -3.40638 3.08665 -3.08355 1.43762 -7.46954 0.78928 -4.98711 -3.24169 -2.97223 -3.52357 -1.16885 -2.62154 -0.62339 -4.56654 0.97961 -4.49607 "/>
<path d="M16150459.23906 -4556324.39663l30.53494 -221.24924 32.77246 -234.1684 1.61413 -13.17754 15.09492 -101.20578 11.19874 -82.50291 27.58497 -197.16437 2.93883 -21.04098 3.89618 -28.38341 0.69018 -5.01712 8.73858 -63.6862 "/>
<path d="M16150468.11123 -4556308.20232l72.00145 11.75463 158.32971 24.86236 137.84693 23.97447 "/>
<path d="M16150875.32906 -4556486.28196l-300.81866 -46.58068 -84.7364 -12.78322 "/>
<path d="M16150540.11267 -4556296.44768l17.00962 -117.17928 17.3881 -119.23568 "/>
<path d="M16150895.08827 -4556604.86849l-256.00143 -39.6178 -56.272 -8.49857 "/>
<path d="M16150639.08683 -4556644.48629l16.95396 -114.96265 "/>
<path d="M16150720.70628 -4557272.69932l-48.75794 339.99842 "/>
<path d="M16150671.94835 -4556932.70091l-50.53905 -7.25811 -7.75897 56.23289 "/>
<path d="M16151140.95963 -4557209.28077l-37.38109 280.28644 "/>
<path d="M16151065.45161 -4556935.35047l38.12693 6.35614 39.03975 5.67966 "/>
<path d="M16152150.21552 -4557058.38535l-5.91106 40.22224 -3.18374 22.49295 -4.35259 31.30136 -14.99474 112.02893 -7.81463 60.65876 -4.50844 33.64153 -14.88342 105.64665 -9.55121 25.81989 "/>
<path d="M16150863.09504 -4556366.07325l247.22946 37.61748 133.37188 17.12453 "/>
<path d="M16150740.1204 -4555579.61551l30.2789 -5.72268 35.06564 -20.56496 42.70216 -12.10779 55.51503 -6.01865 32.50529 -18.02775 24.7018 -25.37129 "/>
<path d="M16150672.08193 -4556101.0144l26.36046 -170.57092 "/>
<path d="M16150255.81383 -4555910.69387l0.30056 -2.04375 13.12457 -99.63574 7.82576 -48.89432 7.48067 -53.27749 -9.35084 -9.96483 -33.71867 -4.82033 17.19886 -113.29112 16.99849 -119.25173 "/>
<path d="M16150277.06472 -4556061.26768l67.54867 -38.13994 68.0496 8.34398 "/>
<path d="M16150241.47588 -4556129.33033l-202.69053 -29.95081 -151.29432 -22.59342 -192.11518 -31.93797 "/>
<path d="M16149710.11455 -4556324.76308l192.29329 28.07579 153.49845 22.81868 202.76845 31.24716 "/>
<path d="M16151337.83928 -4554988.79578l-5.20975 5.89216 -8.40462 55.46819 -29.18797 111.79714 -8.62726 57.28752 -98.01681 -14.64612 "/>
<path d="M16151933.20931 -4555282.41264l19.73695 -122.42014 "/>
<path d="M16150447.61731 -4554923.68585l12.27854 6.03315 176.35234 24.62602 "/>
<path d="M16150476.15963 -4555151.98463l-8.03727 51.52043 -8.36009 61.55703 -10.56422 72.01669 -4.71995 31.88541 3.13921 11.3192 "/>
<path d="M16150278.16678 -4555127.10544l134.05093 18.28237 55.90465 8.35887 "/>
<path d="M16151284.09423 -4555783.67063l-0.32283 2.18472 -45.70778 291.02332 -6.6903 14.32092 -15.36209 107.83039 "/>
<path d="M16151702.12118 -4555553.72248l-58.07538 -8.10479 -62.33891 -8.41488 -5.84427 -3.91849 35.59997 -132.94574 "/>
<path d="M16152368.99172 -4557025.67484l4.18561 -31.23071 1.03527 -24.25447 -1.29131 -24.38126 -3.70694 -35.59935 -8.91669 -43.18131 -13.31381 -39.2069 -22.07466 -43.58967 "/>
<path d="M16150582.81483 -4556652.98486l15.91869 -115.5404 "/>
<path d="M16150150.73936 -4555812.83311l36.03412 5.49703 21.22863 7.48442 15.58473 14.44735 17.49942 12.54454 18.86865 7.13207 105.61993 14.75749 "/>
<path d="M16151587.23946 -4555713.32231l-15.74058 -4.24262 -5.49918 4.65138 "/>
<path d="M16151565.9997 -4555712.91356l-2.61601 2.21293 -2.54922 6.20184 -38.3607 154.15918 -11.32119 45.52793 -6.6903 32.48987 -19.10242 60.18757 -73.57105 127.08571 -19.11356 38.21341 -29.62212 44.90904 -5.51031 41.85044 "/>
<path d="M16150424.26248 -4555192.43962l-3.19487 14.61734 -8.8499 68.99921 "/>
<path d="M16150269.23896 -4556012.37336l-247.65247 -36.0964 "/>
<path d="M16152386.15719 -4556441.25142l9.55121 -8.06182 9.56234 -6.79335 41.80047 -26.65186 16.11906 -6.63829 41.87839 -18.88598 17.54395 -11.34567 9.6848 -6.27182 "/>
<path d="M16152366.89891 -4556720.08526l-33.77433 -4.86233 -73.37068 -10.68303 -150.30358 -22.40895 "/>
<path d="M16151751.52477 -4555079.13706l3.98524 -26.85273 "/>
<path d="M16151470.23155 -4555831.41024l66.63585 2.93174 "/>
<path d="M16151755.43208 -4555772.43692l-16.13019 -2.83309 -3.32845 -0.57789 -52.03073 -9.14765 -8.71632 -12.615 -28.82062 -13.24926 "/>
<path d="M16151735.97344 -4555775.84791l-0.36735 -16.81532 -19.11356 -4.7782 -34.0081 -4.91914 -29.16571 -11.47329 3.21713 -31.69948 13.36947 -40.9879 10.4529 -35.22296 10.36384 -35.03961 2.18186 -7.37155 13.94833 -10.65562 7.54746 -5.76474 4.77561 -18.50635 15.82963 -35.53266 12.83514 -4.77808 24.47916 12.84022 8.31557 1.24033 10.31932 1.56451 "/>
<path d="M16151747.84009 -4556039.39282l6.83502 -44.79267 6.66804 -14.51741 31.8819 -25.18695 2.6828 -22.39618 6.56785 -14.15086 1.03527 -5.8633 4.55297 -4.0733 14.68304 -15.05287 46.32004 -5.94785 25.97084 -6.86399 35.53318 -12.84001 19.11356 -9.85199 19.21374 -9.97883 9.64027 -3.17124 9.96309 -3.98871 13.1357 -12.71311 7.75897 -17.91391 1.79224 -27.17383 "/>
<path d="M16151866.70705 -4556328.89269l8.91669 7.32901 3.58449 12.5439 -0.75697 11.3459 13.29155 4.32695 15.22851 1.494 12.99098 -4.17191 11.64402 2.67792 23.73332 -1.63494 55.84899 -0.88794 "/>
<path d="M16151988.5017 -4556238.06896l3.07242 4.59477 36.02299 -0.90204 8.30443 1.67723 "/>
<path d="M16152136.76813 -4556964.36879l-14.51606 0.56374 -17.46603 6.41249 -18.23413 13.33236 -3.41751 2.49453 -17.76659 9.40031 -11.94458 4.63674 -21.79636 4.62265 -12.24514 -2.67775 -3.33958 -2.08583 -21.88541 -13.60016 -16.11906 -11.79618 -15.82963 -22.39439 -11.4993 -10.89417 -10.44177 -5.66553 -11.46591 -2.77639 "/>
<path d="M16152019.38173 -4556925.58372l-14.47153 3.42471 -8.21538 3.28377 -21.79636 10.30232 -26.72781 18.65976 -14.02626 8.35744 -18.82413 -3.28378 "/>
<path d="M16152016.04214 -4556927.66955l9.91857 -8.96342 16.41962 -11.79619 9.25065 -11.79618 5.23202 -0.74695 8.50481 5.9756 13.88154 6.11654 7.30256 4.81995 "/>
<path d="M16152031.62687 -4556922.90597l11.34346 4.93271 6.86841 6.00381 5.07617 4.43944 14.48267 16.72895 5.03164 5.97564 9.15046 10.89428 8.80537 11.93721 9.86291 5.2287 19.52544 4.42537 "/>
<path d="M16152074.42922 -4556884.82542l-0.70131 -9.86544 0.74584 -21.19657 4.47504 -11.19019 6.1671 -15.92557 "/>
<path d="M16152053.42323 -4556927.52862l4.33033 3.28377 1.49168 2.98781 -0.14472 5.3696 -4.18561 2.83278 -5.07617 1.0852 "/>
<path d="M16151615.75952 -4555713.05451l-4.29693 5.94813 "/>
<path d="M16151503.15985 -4556065.28464l25.42537 16.20881 26.11555 8.6541 54.92504 -12.09319 38.52768 -23.27019 26.91705 -25.39842 20.3492 -30.02136 17.55508 -32.60056 9.64027 -35.51801 16.88717 -33.03727 12.46778 -12.65674 17.86678 -6.27199 "/>
<path d="M16151808.06394 -4556170.37348l0.20038 -3.67865 "/>
<path d="M16151357.54283 -4555160.07564l-2.23752 9.44421 -13.14683 17.32381 -10.63101 40.30016 -44.01573 87.45147 -29.17684 57.96308 -34.85413 54.56622 -5.89993 11.869 -8.70518 18.19822 -10.16347 21.24305 -2.86091 17.19746 -31.12493 50.84543 -23.33257 53.29846 -18.81299 17.91658 -85.33752 37.49663 -56.37219 17.19775 -45.86363 22.93507 -26.31593 7.61214 "/>
<path d="M16151644.0458 -4555561.82727l21.64051 -130.83163 "/>
<path d="M16151907.22734 -4555083.67595l7.93708 -6.69557 8.8499 -61.41577 -2.04828 -17.74665 16.80924 -111.00398 "/>
<path d="M16151776.37128 -4555711.23624l-19.60336 150.76212 "/>
<path d="M16152021.11831 -4556805.97202l92.84046 14.29092 "/>
<path d="M16151231.56256 -4556655.28215l13.1357 3.57983 12.54571 -15.81324 3.88505 -9.25961 10.15234 -2.39594 "/>
<path d="M16151308.51772 -4556749.09009l-13.05778 -2.93148 -21.49579 4.48179 -19.41412 9.55552 -15.21737 15.2212 -8.07066 55.54347 0.30056 11.93745 -8.96122 27.62389 "/>
<path d="M16150845.59562 -4556730.7542l6.76823 -56.20553 -245.40382 -37.82722 -8.22651 56.2617 "/>
<path d="M16150929.28561 -4555898.40318l-63.86399 -9.51401 28.23062 -208.15019 8.71632 -61.05735 254.24259 38.06919 -8.07066 61.93144 "/>
<path d="M16151706.85226 -4555974.81098l-3.7292 -6.48357 "/>
<path d="M16151703.12305 -4555981.29455l-22.89842 -3.58006 "/>
<path d="M16151891.7428 -4556293.34694l-38.86163 19.97164 "/>
<path d="M16150930.77729 -4555365.99961l38.02674 -295.55134 24.37897 -165.1093 "/>
<path d="M16151881.22311 -4554901.92137l0.96848 -6.6534 7.79236 -60.38783 "/>
<path d="M16152535.47002 -4555515.32682l-22.28616 -1.94516 -31.24738 9.61303 -37.20297 8.27398 -36.27902 7.78065 -26.5163 5.68044 -22.06352 1.16992 -21.88541 -6.63893 -20.48279 -4.51052 -20.00411 -9.21837 -1.80338 -11.31857 18.45677 -25.03331 16.04114 -8.58404 1.25791 -15.2652 -12.69042 -2.01563 -12.52344 1.66324 -13.83701 -18.35204 -20.21562 -41.67959 0.02226 -15.15233 "/>
<path d="M16152064.49952 -4556237.68842l-28.59798 4.98941 "/>
<path d="M16151793.22505 -4556123.88984l11.34346 3.876 "/>
<path d="M16151961.00579 -4555685.07573l159.4763 22.58041 139.33861 19.74732 "/>
<path d="M16150323.08419 -4556233.31916l113.07834 19.80262 "/>
<path d="M16151594.88711 -4555709.48845l-6.7237 13.86957 -13.04664 47.79661 -19.3028 59.60865 -16.72019 72.8727 -17.13207 64.13404 -34.06376 70.858 -55.96031 103.72955 -37.31429 67.78632 -19.39186 33.09691 "/>
<path d="M16151587.23946 -4555713.32231l21.27315 2.32569 7.2469 -2.05788 67.64885 -2.15655 1.05754 -9.27456 "/>
<path d="M16151612.38654 -4555760.32931l-17.49942 50.84085 "/>
<path d="M16151808.26431 -4556174.05214l-2.70506 -5.82101 "/>
<path d="M16151805.55925 -4556179.87315l13.88154 -49.90833 14.32682 -15.532 19.11356 -28.06183 2.4379 -51.50053 "/>
<path d="M16152005.93433 -4556286.32798l-26.2714 8.55525 -55.84899 17.16689 -81.50813 59.35143 -24.9467 9.73925 -18.87979 21.87458 -38.56107 55.56052 -107.03369 201.34243 -25.21386 88.03656 -15.28417 64.37175 "/>
<path d="M16151287.51173 -4555005.55598l47.68927 11.60105 8.07066 5.94854 "/>
<path d="M16151337.83928 -4554988.79578l5.43239 0.78938 274.82556 37.89029 "/>
<path d="M16151168.04366 -4555189.05663l14.88342 32.6741 53.14392 7.4708 "/>
<path d="M16151197.85502 -4555056.35799l-41.19934 -3.28436 -32.85038 -7.45676 -20.89467 -14.03956 -3.88505 -22.08831 3.28392 -45.09271 -8.99461 -51.26647 "/>
<path d="M16150478.63092 -4553826.31297l0.33396 -2.08645 22.019 -136.29506 20.20449 -133.68528 19.69242 -138.32151 7.46954 -29.61793 27.72969 -91.33434 19.84827 -63.54872 10.208 -61.70166 2.88317 -87.99154 -6.17823 -27.58707 -2.77186 -12.41909 -7.2135 -38.77961 -4.37486 -69.00225 2.39337 -34.19788 8.18198 -32.85862 4.59749 -21.62376 6.92407 -21.70829 25.67027 -63.95463 8.19311 -26.61358 7.56973 -46.13662 6.05578 -45.45981 17.41037 -120.50629 38.00447 -258.88153 "/>
<path d="M16150957.37152 -4556106.01797l-28.08591 207.61479 -7.94821 58.98703 -0.31169 2.08605 "/>
<path d="M16151470.23155 -4555831.41024l-10.05215 71.64473 -0.30056 2.08606 "/>
<path d="M16151045.01336 -4555819.0067l0.31169 -2.07196 38.68352 -266.16536 "/>
<path d="M16151722.92679 -4555718.8053l-0.31169 2.18474 -0.28943 2.55121 -15.65152 125.46107 -2.44903 20.60728 -2.10394 14.27853 -12.92419 109.42237 -1.94809 10.95217 -9.81838 65.19171 -6.30068 44.79575 -19.99298 133.04932 -8.99461 68.26614 -24.04501 171.92891 -1.59187 11.03726 -16.84264 124.51187 "/>
<path d="M16152118.58966 -4554652.44416l5.91106 -48.71746 6.4454 -38.2718 17.32131 -116.30876 8.61613 -61.31848 46.78758 -340.43082 15.80737 -107.35229 17.77772 -123.5468 22.2639 -152.18678 0.30056 -2.17066 "/>
<path d="M16151704.22512 -4555568.00101l52.5428 7.52688 480.48832 72.08356 "/>
<path d="M16151689.19699 -4555444.3001l263.74927 39.46732 266.53226 39.98901 "/>
<path d="M16150451.76953 -4556298.32222l-15.60699 84.80568 -13.58098 74.29187 -9.91857 48.16103 -27.46252 180.27111 -1.34697 16.53323 "/>
<path d="M16153544.78158 -4555425.49676l-334.49281 -49.72871 -12.84627 -1.91697 -29.70004 -4.41186 -174.07029 -25.89321 -10.84252 -1.60687 -13.55871 -2.01564 -26.96158 -4.00308 -191.00198 -28.40209 -21.13957 -3.14325 -20.37147 -3.87621 -9.26178 -1.71963 -13.28042 -2.45258 -19.8594 -4.7924 -189.48804 -46.21835 -3.05015 -0.74705 -20.73882 -4.62323 -19.23601 -4.10171 -20.3492 -3.8198 -22.65352 -3.70704 -105.17465 -15.98395 -14.4938 -2.19885 -12.38986 -1.88875 "/>
<path d="M16152366.89891 -4556720.08526l41.5667 3.10062 "/>
<path d="M16152451.23456 -4557014.30154l-2.74959 19.11056 -40.01936 278.20634 -13.39173 94.42836 -37.47014 272.50815 -0.51207 3.77725 -17.12094 125.39706 -29.67778 211.95365 -29.92268 216.67979 -20.24902 147.40629 "/>
<path d="M16152310.29295 -4556008.92017l175.38386 27.03363 195.55495 29.97951 "/>
<path d="M16152280.37027 -4555792.24038l164.90869 23.55273 "/>
<path d="M16152168.76135 -4556123.59386l-7.71444 60.40931 10.43064 26.39923 -7.26916 53.7853 -15.5402 115.02761 -14.13758 103.90792 -13.75909 99.49717 "/>
<path d="M16151593.12826 -4556707.97875l56.13842 -425.31199 "/>
<path d="M16151585.3359 -4556700.55135l-131.34587 -17.84266 "/>
<path d="M16151440.03057 -4556720.91679l-126.25857 -18.5755 "/>
<path d="M16151598.32688 -4556699.14198l-1.30244 3.22747 -2.79412 1.69125 -3.09468 0.33825 -2.62714 -1.60669 -1.85904 -2.07178 -1.31357 -2.98787 1.31357 -3.57981 2.25979 -2.64962 4.21901 -1.19797 2.98336 1.47984 2.41563 3.62209 -0.20038 3.73484 "/>
<path d="M16151449.48159 -4556712.93974l-3.65128 0.35234 -3.38411 -1.55031 -2.1262 -3.05834 -0.28943 -3.72074 1.59187 -3.28384 3.02789 -2.07178 3.64015 -0.26778 3.28392 1.55031 2.08167 2.97377 0.33396 3.62209 -1.52508 3.32612 -2.98336 2.12815 "/>
<path d="M16151507.65716 -4557154.45865l-59.36668 427.91846 "/>
<path d="M16151445.83031 -4556712.5874l-48.91378 351.36256 -5.83314 43.77669 -73.9718 536.54014 "/>
<path d="M16150863.56259 -4555911.77917l-3.01676 2.25517 -5.74409 49.58568 "/>
<path d="M16150863.56259 -4555911.77917l201.97808 32.27717 -2.97223 23.83443 22.46427 3.60829 3.33958 -23.90491 21.52919 5.27148 5.27654 -1.28263 58.36481 8.49921 18.95771 -5.15872 120.3809 18.60525 19.49204 6.089 64.06437 10.06377 -3.27279 25.0467 61.59307 9.68324 4.09656 -24.97625 21.31768 -3.01631 56.42785 8.17506 -6.67917 56.64771 57.50765 9.69738 16.15246 28.85256 60.51328 15.73011 0.86829 22.60855 42.47952 6.41328 23.80011 6.56833 3.22827 -22.8341 39.6854 5.7649 -9.01688 61.65221 3.78486 3.65066 123.08596 17.91502 -0.53433 3.66476 119.74638 17.83048 133.10472 17.37947 3.30619 -22.48195 41.75594 5.75086 3.85165 -24.864 59.18857 7.9779 "/>
<path d="M16151536.86739 -4555828.47849l9.91857 7.70993 -11.221 74.26648 "/>
<path d="M16151326.16186 -4555353.07398l-8.68292 58.4404 -21.9856 55.95988 -9.3731 65.644 "/>
<path d="M16150642.69358 -4555878.05023l-0.2783 2.02966 -63.61909 457.50107 "/>
<path d="M16150709.62999 -4555404.4663l2.51582 -1.35317 3.90731 -0.21143 2.52695 0.98668 2.22639 2.04385 1.16885 2.29757 0.26717 3.50978 -0.86829 2.56538 -3.29506 3.21378 -2.49356 0.78935 -4.33033 -0.6343 -2.27092 -1.59279 -1.61413 -2.33986 -0.65678 -2.63586 1.81451 -5.56772 "/>
<path d="M16151445.64107 -4555401.47805l-49.70415 52.97104 -12.77948 3.834 -51.56319 -7.59752 -5.43239 -0.80345 -110.15064 -15.2373 -107.36765 -15.05404 -33.84113 -4.426 -7.16898 0.29601 -6.40087 4.59514 -3.41751 6.90681 -3.66241 27.9233 -63.41871 -8.99297 -44.00459 -6.51215 -15.95208 -2.42444 -100.75527 -15.20909 -56.72841 -8.41503 -51.05112 -7.56929 "/>
<path d="M16150761.29337 -4555308.96884l12.00024 -80.65488 "/>
<path d="M16150401.64236 -4556997.96737l74.01633 11.26059 74.79557 10.00629 "/>
<path d="M16150418.89688 -4557125.25764l73.66011 11.64096 -16.8983 126.9099 -24.41236 183.25752 -66.50226 459.37708 "/>
<path d="M16152252.42908 -4555601.04029l-127.92836 899.87867 -155.07918 1090.92542 "/>
<path d="M16153694.87365 -4555404.74821l-406.31614 -57.79139 -601.12525 -88.80078 -252.69524 -63.42866 -176.50818 -27.10506 -5.79975 40.83381 "/>
<path d="M16152508.88692 -4556324.50938l-151.79526 -21.7615 "/>
<path d="M16152465.90647 -4557348.33601l-142.37763 80.6115 27.94119 59.47252 16.14133 59.33193 5.57711 61.30532 -4.47504 57.13407 0.2783 4.80582 "/>
<path d="M16149603.0586 -4556461.94153l121.79465 18.8015 16.56434 2.35371 147.83228 21.26801 148.05492 21.86001 36.52392 5.70813 100.20981 14.47471 101.6347 15.60227 34.21961 5.62359 74.85123 12.1774 58.25349 27.30055 "/>
<path d="M16151722.92679 -4555718.8053l24.31218 3.45329 29.13231 4.11576 184.63451 26.16051 "/>
<path d="M16151313.772 -4556739.49229l-7.88142 6.24351 -3.96297 9.38641 -15.37322 105.09734 -31.57021 236.70898 -11.2878 70.72481 -15.47341 114.77028 "/>
<path d="M16150859.34358 -4556245.17252l368.8794 48.61156 "/>
<path d="M16151228.22297 -4556196.56096l-17.00962 128.95071 -39.59634 265.19331 -0.30056 2.08605 "/>
<path d="M16152085.0157 -4556626.57303l3.22827 18.49114 -2.10394 20.9576 -30.24551 212.67909 -5.3656 38.39263 -2.91657 19.42188 -11.71081 83.93168 -12.23401 90.65543 -8.21538 55.40563 -11.17648 82.19989 -6.97973 46.80856 -18.35658 134.85945 -12.6125 91.15233 -5.03164 44.4559 "/>
<path d="M16150788.39967 -4555856.93611l132.62604 19.60601 72.15729 10.66986 51.83035 7.65355 9.67366 1.43768 110.22856 16.29376 6.40087 0.94436 112.77778 16.66026 32.7168 4.83458 72.30201 10.69811 70.7658 10.4585 40.1752 5.93401 35.51092 5.24335 148.90095 22.01647 38.46088 5.68031 "/>
<path d="M16149132.49998 -4556076.47575l65.24435 10.06354 197.30267 30.45848 28.94307 4.468 45.14005 6.97685 124.74462 18.04118 218.38658 31.60033 46.56494 6.73728 55.37031 8.00581 72.03484 10.43012 19.31393 2.79076 160.5561 23.2282 89.71238 12.98132 127.8727 18.49241 14.31569 1.74776 13.88154 1.16987 97.2821 4.6513 79.14816 3.77742 39.6854 1.90281 14.69417 0.90207 15.72944 1.57862 129.97664 19.5355 "/>
<path d="M16150574.39908 -4555879.44562l9.02801 -0.62017 4.88693 -0.78931 5.30994 -0.84569 9.08367 -0.52151 "/>
<path d="M16147619.54564 -4556297.03964l16.21925 2.33965 1.74772 0.2537 1.94809 0.28189 7.7701 1.12754 27.13969 3.90412 58.94367 8.44249 55.63748 7.96329 122.66295 17.54745 73.76029 10.55667 39.31804 5.62365 10.16347 1.45172 13.08004 1.87455 141.19764 20.19726 46.44249 6.65256 97.52701 13.95348 63.0291 9.03453 20.83901 2.97393 112.74438 16.49051 24.17859 3.58 99.17453 13.88306 26.03763 3.63638 12.00024 1.69134 127.68346 17.85774 73.61558 10.3031 14.66078 2.04371 70.88825 10.93737 24.1452 3.73506 17.6998 2.73434 16.51981 2.53702 12.91306 2.00143 5.14296 0.80339 18.21187 2.80482 5.3322 0.83158 54.89164 8.47084 65.24435 10.06354 193.97421 29.95107 32.27152 4.97541 45.12892 6.97685 124.74462 18.04118 218.38658 31.60032 46.56494 6.73728 49.34793 7.14603 97.37116 14.08066 149.40189 21.62139 11.15421 1.60681 89.71238 12.98131 112.68872 16.29361 15.0504 2.1847 14.36021 1.74776 13.80362 1.16987 97.24871 4.6513 93.44158 4.46807 25.40311 1.21216 14.74983 0.90207 15.8185 1.59272 114.4587 17.19574 15.99661 2.39613 132.20303 19.50734 123.98765 18.3375 9.66253 1.42359 84.75866 12.53041 25.48103 3.76335 6.38974 0.94436 112.78891 16.67435 32.70567 4.83458 72.31314 10.68401 59.90102 8.85167 10.85365 1.60683 40.18634 5.9481 35.49979 5.24335 168.72695 24.94824 18.63488 2.74854 24.30104 3.4392 29.14344 4.12986 168.05904 23.80662 16.56434 2.33979 159.4763 22.5945 117.49772 16.63229 21.85202 3.10094 132.09171 20.04336 22.68691 3.70704 20.40486 3.8339 19.2694 4.10171 20.77222 4.63733 4.36372 1.05714 188.1856 45.90825 19.80374 4.7783 13.30268 2.46668 9.19499 1.69144 20.32694 3.87621 212.09703 31.54534 26.97271 3.80574 198.46039 29.71305 30.08966 4.46824 346.94946 51.58929 13.87041 2.21299 15.017 2.39623 12.24514 2.64995 7.04652 1.8606 2.41563 0.6343 10.76459 2.1848 "/>
<path d="M16153606.45258 -4555415.67221l-10.08555 -1.14173 -0.8015 -0.08457 -10.35271 -0.6343 -11.90005 -1.29678 -11.04289 -1.77603 -17.78885 -2.86138 -334.18111 -49.68643 -42.858 -6.37112 -174.17048 -25.89322 -51.26263 -7.62559 -190.85727 -28.37391 -21.32881 -3.17145 -20.40486 -3.8903 -22.58672 -4.1863 -19.91506 -4.7924 -189.81086 -46.35932 -23.42162 -5.22933 -19.20261 -4.08761 -20.30468 -3.8198 -22.62012 -3.69294 -104.91862 -15.843 -27.11743 -4.0876 -139.34974 -19.73323 -133.65018 -18.92977 -25.81499 -3.65064 -184.63451 -26.16052 -18.36772 -2.5935 -10.77573 -1.53636 -24.31218 -3.4392 -187.37297 -27.69679 -35.51092 -5.24335 -40.1752 -5.9481 -10.54196 -1.55045 -60.22384 -8.90805 -72.30201 -10.68401 -32.7168 -4.83458 -106.46596 -15.74409 -6.31182 -0.93027 -6.40087 -0.94436 -110.22856 -16.29377 -9.67366 -1.42359 -123.98765 -18.3375 -116.13962 -17.29445 -16.87603 -2.50889 -129.52023 -19.46502 -15.75171 -1.59272 -14.52719 -0.87388 -53.48902 -2.55117 -65.52265 -3.14315 -97.12626 -4.63721 -11.16534 -0.94435 -2.79412 -0.23961 -14.13758 -1.71957 -128.12873 -18.5347 -62.36118 -9.02068 -27.3512 -3.96064 -160.5561 -23.2282 -19.3362 -2.79076 -66.85849 -9.6831 -60.52441 -8.75284 -46.56494 -6.73728 -218.38658 -31.60034 -124.75575 -18.04118 -45.15119 -6.97686 -20.22675 -3.11492 -206.01898 -31.81157 -65.24435 -10.06354 -22.7537 -3.50955 -32.13794 -4.96129 -5.3322 -0.83158 -18.21187 -2.80482 -5.14296 -0.80339 -29.43287 -4.53845 -17.6998 -2.73435 -95.01119 -14.67243 -14.63851 -2.02961 -73.61558 -10.30311 -127.68346 -17.87185 -12.67929 -1.77591 -25.35858 -3.53772 -99.17453 -13.88307 -24.22312 -3.41086 -94.53251 -13.82667 -18.21187 -2.66385 -83.85697 -11.99437 -97.52701 -13.96758 -46.44249 -6.63847 -141.19764 -20.21136 -23.65539 -3.38265 -16.13019 -2.31148 -22.76484 -3.2558 -73.77143 -10.55668 -122.71861 -17.56155 -103.14864 -14.75675 -11.37685 -1.63494 -4.34146 -0.62015 -22.79823 -3.28397 -4.75334 -0.69062 -3.05015 -0.43692 -3.69581 -0.53558 -16.45302 -2.36784 "/>
<path d="M16151197.14257 -4554954.75373l-37.88202 -5.22966 -48.65775 -6.18819 -38.92843 -6.04722 "/>
<path d="M16151327.88731 -4555167.25041l-29.48853 66.81441 -43.48139 98.54499 "/>
<path d="M16151994.72446 -4553708.28686l4.77561 -46.87508 11.13195 -77.62185 11.62175 -81.04697 13.34721 -93.12781 13.46966 -93.97281 7.84802 -54.71135 10.44177 -72.85404 10.36384 -72.30375 10.50856 -73.31822 5.14296 -35.82015 10.78686 -75.2769 13.43626 -93.75704 11.38798 -79.39186 10.63101 -83.16909 11.35459 -69.87562 13.36947 -79.85526 12.69042 -114.12218 10.4195 -72.38292 10.208 -70.93054 9.01688 -62.61356 9.66253 -67.15199 16.33057 -113.44134 10.66441 -74.09987 5.81088 -40.32691 19.16922 -115.72228 14.32682 -122.41614 14.07078 -100.624 14.89455 -106.45826 14.92794 -106.76725 12.06703 -86.31506 7.26916 -51.98038 6.1671 -44.12956 16.28604 -116.41882 15.67378 -112.07655 14.12644 -100.99752 8.51594 -60.92784 7.06879 -50.51219 13.70343 -98.06398 15.44001 -110.36668 13.01325 -93.04478 5.25428 -37.58692 -27.48478 -4.04478 -42.15669 -6.20105 -52.16431 -7.68084 -6.51219 -26.12892 "/>
<path d="M16152359.37372 -4557016.72559l-45.97495 -33.14742 0.89056 -17.02466 "/>
<path d="M16151937.71775 -4553447.03724l6.26729 -57.619 19.64789 -135.86228 11.10969 -68.67061 6.02238 -42.64575 5.76635 -40.81288 6.2005 -43.9001 6.2005 -43.89992 4.97598 -35.27205 4.57523 -32.33966 4.71995 -33.43916 4.73108 -33.49544 5.73295 -40.60039 10.00762 -70.82474 8.98348 -63.63472 10.79799 -76.43445 11.55496 -81.81892 8.13745 -57.614 6.84615 -48.46487 8.69405 -61.5464 8.20425 -58.16284 5.23202 -37.00358 6.97973 -49.42248 6.9686 -49.32357 9.22839 -65.365 10.34158 -73.24439 6.33408 -44.7837 10.11894 -71.6648 10.87591 -77.00669 11.17648 -79.10641 8.12632 -57.58153 9.54008 -67.56098 9.57348 -67.77198 5.94446 -42.10354 10.96497 -77.6099 9.19499 -65.09263 8.2933 -58.70706 14.88342 -105.36178 10.78686 -76.42362 8.80537 -62.3422 10.07441 -71.29207 7.18011 -50.88234 5.94446 -42.05879 7.74784 -54.89887 4.77561 -33.74257 6.14484 -43.56638 8.80537 -62.34005 7.89255 -55.89854 9.91857 -70.16169 10.65328 -75.43245 10.53082 -74.62854 9.02801 -63.84608 10.74233 -76.1074 5.98899 -42.43668 7.002 -49.4975 7.50293 -53.18982 8.43802 -59.70081 10.93157 -77.38786 8.43802 -59.79867 8.92782 -63.18074 -4.69768 -24.95932 -34.66489 -4.83401 -38.19372 -5.31318 "/>
<path d="M16150325.85605 -4556252.85395l-2.77186 19.53479 -2.57148 18.11129 "/>
<path d="M16151763.68086 -4554974.74199l-4.47504 17.31 -1.79224 14.92779 0.60113 10.75535 -1.98149 12.10859 "/>
<path d="M16151522.47378 -4555550.33961l15.7851 4.10173 14.32682 -2.9882 11.88892 -17.70369 11.38798 -7.23088 "/>
<path d="M16150971.09721 -4557158.17923l-43.67064 317.67795 -2.53808 22.69065 -13.67003 96.62607 -8.07066 57.85486 -8.05953 58.46122 -12.00024 96.36026 -7.75897 22.22627 0.96848 19.8867 -9.13933 69.41348 -4.06316 30.90853 "/>
<path d="M16150971.09721 -4557158.17923l108.33613 15.6011 -26.17121 142.34173 -20.03751 -4.228 17.81112 18.32135 -4.45278 38.05213 -40.07502 1.40934 -3.33958 19.73079 47.86738 7.04672 -5.56597 40.87107 -40.07502 -5.6374 -62.33891 463.68629 -8.66066 -0.14094 -4.69768 36.78572 -20.03751 -2.81883 -2.9277 19.35131 19.79261 2.36782 -28.07478 184.56516 -34.88753 269.09468 "/>
<path d="M16150981.42766 -4557233.14029l159.53196 23.85951 56.99558 8.5263 45.27364 6.76467 120.51448 18.01097 143.91384 21.52018 141.60952 21.1679 87.49712 13.09255 58.63198 8.76596 72.62484 10.85176 71.73428 10.72493 210.46063 31.4702 73.05898 10.92228 77.34478 11.57058 68.37243 10.21764 "/>
<path d="M16152368.99172 -4557025.67484l40.43124 5.59504 25.31405 3.49514 16.49755 2.28312 "/>
<path d="M16150788.39967 -4555856.93611l-0.71244 1.97328 -4.5307 12.60084 -7.13558 24.94801 -5.68843 25.37092 -4.38599 27.10467 -25.82612 185.32287 -24.06727 173.58461 "/>
<path d="M16150854.80174 -4555859.93832l-50.37207 -7.85085 8.22651 -58.3808 -19.34733 -3.80559 -214.06738 -26.76597 18.62375 -146.47163 -115.10435 -16.56109 -27.65176 191.3632 -55.02522 -6.14533 -21.82975 0.35237 -58.7099 -8.18907 2.94997 -21.5086 -46.08627 -7.31517 -24.12293 7.96353 -191.45839 -28.42906 -11.42138 -1.69136 -0.66792 4.59487 -8.13745 -1.18396 -16.19699 -2.36791 -19.70355 -6.77955 -7.45841 -1.08529 -3.74033 -0.5356 0.43415 -4.41164 -23.15445 -3.55186 -11.38798 -4.63715 2.00375 -13.50269 0.65678 -4.39753 -84.12414 -12.24824 -19.92619 0.43693 -2.02601 16.8572 -240.34991 -34.44729 -26.70555 -10.13402 -121.47183 -18.23839 -46.14193 -6.25799 -5.52145 34.71497 -22.64238 -3.74917 -5.82201 -1.01481 0.81263 -3.74916 -16.79811 -2.93168 4.02977 -30.09192 0.51207 -3.84781 -8.79424 -25.14465 3.70694 -26.28624 -16.28604 -21.62091 0.26717 -5.35589 -7.75897 -2.08598 3.10581 -22.22691 123.52011 17.40661 12.11156 -82.21251 14.60512 -96.78526 67.01433 9.27398 13.06891 -90.45621 -66.61358 -9.89404 5.3322 -23.4525 -217.56281 -33.10684 -0.50094 -22.90271 0.11132 -32.34559 -2.6494 -0.36644 5.69956 -17.75832 -16.51981 -42.54937 7.07992 -35.72781 4.26354 -8.66767 32.07115 -68.35458 -63.44098 -11.30313 6.24502 -34.26165 55.7822 8.65349 27.02837 -15.75667 -13.98173 -28.22946 -11.87779 -29.23003 -20.04864 -67.00044 -13.55871 -2.5791 -16.67566 -34.10606 -10.88705 -8.38556 -1.21338 -14.31886 -15.38435 -30.92079 14.9836 -20.99902 -31.89303 -68.53545 1.68092 -22.90142 -12.81287 -21.1961 -144.35912 -0.606 -81.50813 21.66117 -3.42864 0.91606 -45.36269 -125.44253 -32.82812 -88.50365 -26.11555 7.5256 -1.16885 -45.85816 -3.99637 -20.26546 -3.12808 -9.79449 -38.22711 -99.60733 4.21901 0.67645 -10.56422 -27.1706 -16.8649 -70.60376 "/>
<path d="M16150716.05313 -4555406.0309l-2.57148 15.40639 "/>
<path d="M16152451.23456 -4557014.30154l-1.53621 4.56624 -191.46952 1367.8612 -5.79975 40.83381 "/>
<path d="M16152302.46719 -4556552.27002l9.69593 -7.25838 8.05953 -17.60331 2.09281 -19.11133 -2.99449 -17.32137 "/>
<path d="M16151739.50226 -4556232.36074l-52.62072 -63.97419 "/>
<path d="M16150844.98336 -4556226.51157l-14.62738 105.87757 -26.99498 192.75857 -3.41751 22.74902 -6.1671 33.75715 -4.64202 12.44578 "/>
<path d="M16150848.76823 -4556257.26548l-0.92395 10.07746 -1.83677 13.48831 "/>
<path d="M16150837.88118 -4556239.4784l-1.50281 -3.79138 -0.08906 -4.34106 1.36923 -3.84776 2.60488 -3.14304 5.0539 -2.50879 3.4509 -0.15504 4.50844 1.19802 4.08543 3.50949 1.79224 3.65044 0.18924 3.735 -1.3247 5.42633 -3.56222 3.81957 -3.7292 1.66314 -4.71995 0.56378 -3.26166 -1.39534 -3.30619 -2.38195 -1.55847 -2.0014 "/>
<path d="M16150846.0075 -4556233.69971l-1.02414 7.18813 "/>
<path d="M16151071.67437 -4554972.21879l-14.7053 82.71616 "/>
<path d="M16151197.14257 -4554954.75373l-11.0095 74.1599 -6.24502 5.76535 -9.08367 0.59204 -23.72218 -3.97513 -47.11041 -5.86402 -43.00272 -5.42704 -38.50541 -6.62521 -4.41938 -7.034 11.16534 -71.45329 6.86841 -4.42617 39.59634 6.8225 "/>
<path d="M16151159.26055 -4554959.98338l-12.17835 81.77181 "/>
<path d="M16151110.6028 -4554966.17157l-10.63101 82.09598 "/>
<path d="M16151254.91739 -4555001.89101l-16.94283 40.49802 -4.0075 5.52567 -11.27666 3.15753 -25.54782 -2.04394 "/>
<path d="M16150672.08193 -4556101.0144l-13.52532 101.77729 -11.43251 86.04846 -4.43052 35.13842 "/>
<path d="M16150720.80647 -4555403.00036l20.27128 -10.12057 16.28604 -13.64442 "/>
<path d="M16151680.22463 -4555984.87461l-16.0634 -0.32418 -59.86762 0.66245 -39.39597 -7.92123 -15.40662 -18.0553 -23.54407 -17.82975 -13.64777 -7.92119 -12.50118 -5.14454 "/>
<path d="M16151735.97344 -4555775.84791l-4.18561 6.37094 -4.17448 27.31616 -4.68655 23.35551 "/>
<path d="M16151739.30189 -4555775.27001l-3.62902 37.28134 "/>
<path d="M16151298.39878 -4555100.436l-29.82249 -3.86228 "/>
<path d="M16151462.8622 -4554782.39916l14.04852 -116.71707 "/>
<path d="M16150893.65224 -4556116.06738l-38.6056 -3.8619 -11.19874 -0.74701 -7.31369 0 -6.17823 0.04228 "/>
<path d="M16151084.00857 -4556087.24401l-126.63705 -18.77396 -63.71928 -10.04941 "/>
</g>
</svg>