<?xml version="1.0" encoding="UTF-8" standalone="no"?>
<svg xmlns="http://www.w3.org/2000/svg" xmlns:xlink="http://www.w3.org/1999/xlink" stroke="white" fill="none" stroke-width="0.1%" stroke-linecap="round" stroke-linejoin="round" width="1200" height="1200" viewBox="1.6138978776216103E7 -4552821.856476907 2149.791420519352 2149.7914205212146" preserveAspectRatio="xMidYMid meet">
<g id="planet_osm_line" class="line">
<path d="M16140152.2342 -4550956.36197l32.17133 -242.53018 17.95583 -104.0384 37.92655 -304.54306 13.3806 -113.67125 11.17648 -84.30866 "/>
<path d="M16140374.45017 -4550927.39267l28.69816 -0.74678 70.92165 6.22785 19.67015 1.78945 "/>
<path d="M16139532.17351 -4552110.27772l-2.13733 -0.28177 -54.20146 -7.22742 -36.446 -4.86054 -18.23413 -2.43731 -4.35259 -0.57763 "/>
<path d="M16139154.43308 -4552275.87315l36.32355 5.08588 7.99274 1.09889 33.49603 4.63506 51.16244 7.10052 43.91554 6.0439 20.20449 2.80358 66.5134 9.1997 39.78559 5.49447 37.10279 5.14226 39.13993 5.40994 17.20999 2.38094 "/>
<path d="M16140432.90403 -4552715.84209l25.21386 -192.98595 "/>
<path d="M16140326.05959 -4552333.56466l-15.8185 124.51263 -29.2325 230.33397 "/>
<path d="M16140371.21077 -4552946.48376l-28.72043 218.72346 "/>
<path d="M16140595.642 -4552768.05106l4.34146 -58.50586 "/>
<path d="M16140267.68365 -4550941.17282l42.63536 -348.54164 "/>
<path d="M16139819.04383 -4551659.32183l10.36384 1.28211 112.52174 13.83556 13.6923 1.6907 16.77585 2.07111 67.48188 8.29853 "/>
<path d="M16141096.54631 -4551502.33928l3.42864 5.50894 8.68292 50.90504 6.94634 33.13842 18.31206 55.58318 11.93345 31.91291 9.55121 16.41441 11.78873 17.6825 21.90768 31.40588 4.67542 6.55171 11.63289 15.35779 50.01585 54.90781 6.4454 11.86362 1.8813 14.51252 "/>
<path d="M16140341.31036 -4550830.67746l1.65866 -12.52625 2.01488 -16.26015 3.53996 -25.67238 "/>
<path d="M16140920.41661 -4551211.84065l-6.86841 -1.18354 -70.65448 -9.97554 -76.9329 -8.792 -87.70863 -10.96181 -56.80634 -8.15794 -59.32216 -4.81868 -71.21108 -9.4401 -70.05336 -8.66515 -21.19523 -3.38152 -12.60137 -1.76121 -76.74366 -10.73632 -107.95764 -13.21609 -49.39246 -5.36815 -52.48714 -5.974 -101.85733 -12.77928 -38.48315 -4.04372 -138.3256 -16.94977 -44.04912 -5.73446 -96.38042 -5.59356 -77.68987 -2.5643 -23.73332 -2.98699 -4.64202 -0.6763 -53.01034 -7.66471 -36.33468 -5.91761 -52.99921 -8.25646 "/>
<path d="M16140205.87907 -4553032.71245l-0.30056 4.19801 -0.99074 5.83214 -2.23752 7.8889 -4.36372 7.46628 -1.19112 8.05796 -18.51243 130.49186 -14.63851 117.33559 -11.221 85.51255 "/>
<path d="M16141218.32983 -4551709.43683l-6.86841 -5.07207 -9.85177 -2.98688 -118.54413 -15.23028 -39.4071 -5.08615 -55.83786 -8.65067 "/>
<path d="M16141007.52411 -4551865.00737l-25.58122 -2.87413 -57.40746 -7.29803 -37.03599 -4.70568 -41.52217 -5.80461 -29.11005 -3.1559 -47.83399 -6.14273 -78.12402 -9.80583 -46.82098 -6.01593 -83.55641 -10.63705 -7.4918 -1.14119 -17.71093 -2.04288 -6.95747 -0.97213 -10.24139 2.32465 -2.86091 2.25421 -3.86279 3.70536 -4.64202 4.31118 "/>
<path d="M16141538.82978 -4551987.87573l-98.17266 -14.77905 -43.84875 -5.45232 -220.73542 -27.44472 -43.68177 -5.43822 -97.17078 -12.07396 "/>
<path d="M16141035.2204 -4552053.06399l-39.39597 -4.19841 -30.67965 -3.66304 -179.75871 -21.7387 -86.46185 -10.39737 -54.89164 -6.59345 -101.3564 -11.60897 -9.30631 -0.19724 "/>
<path d="M16140521.28058 -4552021.11094l8.78311 1.113 34.29754 3.77576 90.5918 11.01735 120.52561 15.30032 249.63396 31.98141 "/>
<path d="M16141007.52411 -4551865.00737l102.6811 10.55257 42.75782 5.21289 220.41259 25.81089 18.37885 2.15561 25.77046 3.04321 "/>
<path d="M16140805.73527 -4552273.1682l-5.8888 55.08549 -4.64202 43.4628 -4.94259 46.32295 -4.87579 45.63282 -4.94259 46.33745 -4.96485 46.42219 -4.86466 45.54889 -1.58074 49.36716 "/>
<path d="M16140545.49257 -4552204.17745l10.63101 1.71879 137.89145 16.55391 101.18942 11.28485 248.67661 28.69823 "/>
<path d="M16140724.41639 -4550884.41764l0.28943 -2.14171 6.47879 -55.7266 "/>
<path d="M16140883.20251 -4551530.60251l5.30994 -44.26858 14.64964 -122.12507 16.15246 -134.62052 5.22088 -43.56285 "/>
<path d="M16141096.54631 -4551502.33928l5.55484 -3.311 49.67076 -0.90172 24.82425 -0.07045 "/>
<path d="M16140684.76438 -4551299.47859l56.11616 6.77712 32.37171 4.46642 "/>
<path d="M16141006.14375 -4550846.5431l0.26717 -2.18399 5.57711 -47.87857 3.17261 -22.88244 "/>
<path d="M16140513.92236 -4552705.81162l25.04689 -174.91189 "/>
<path d="M16140286.96418 -4552993.9864l-34.34206 253.58944 "/>
<path d="M16140543.53334 -4552372.47632l-7.7701 -11.52413 -3.42864 -9.94625 -2.74959 -7.19905 -0.32283 -9.98849 5.47692 -35.96695 7.88142 -58.64855 6.52332 -48.71622 4.45278 -30.86664 1.03527 -8.22733 1.02414 -7.55111 5.48805 -46.29267 2.4045 -13.97511 1.73658 -14.69356 3.05015 -7.7201 2.1596 -6.60716 -0.21151 -4.04319 -1.73658 -4.22633 -3.4843 0.18314 "/>
<path d="M16139615.99708 -4552726.77416l2.19299 0.29584 38.71692 5.28289 213.91153 29.20388 82.71038 11.31247 7.50293 1.01432 179.5806 22.9631 "/>
<path d="M16139602.38271 -4552626.76503l2.19299 0.30993 51.47413 6.63538 201.68865 26.03439 82.74378 10.66454 7.59199 0.98615 189.19861 24.47072 46.83211 5.607 61.671 8.36824 168.07017 21.69548 128.77439 16.24346 "/>
<path d="M16140565.06253 -4552698.486l-8.62726 -1.12702 -8.48255 -1.08476 -34.03037 -5.11385 -81.01833 -10.03046 -90.41369 -11.91821 -89.86822 -12.63667 -88.97767 -11.04474 -88.4656 -11.4251 -52.43148 -6.90295 -2.44903 -0.32402 -46.44249 -6.09995 -7.42501 -0.97205 -82.78831 -10.86157 -75.28537 -10.10082 -77.44497 -9.42461 -99.80906 -13.79175 -2.19299 -0.29584 "/>
<path d="M16139589.60323 -4552532.92547l41.93405 5.70563 11.71081 1.59194 162.84928 22.16042 38.8839 5.29709 85.41545 11.62262 180.4155 23.04805 "/>
<path d="M16140762.98859 -4552278.45132l1.19112 -8.87564 2.60488 -19.54046 1.94809 -14.59545 2.98336 -22.27351 9.28405 -67.98957 11.38798 -86.81073 6.89068 -51.57611 17.98923 -134.59539 8.79424 -65.8601 5.52145 -41.31908 2.88317 -21.58221 "/>
<path d="M16140817.26797 -4552684.70817l211.62948 28.41506 28.36421 2.59216 "/>
<path d="M16140781.00008 -4552411.72594l38.48315 4.55047 170.59712 20.14606 19.44752 2.84581 78.94778 9.50952 63.22947 7.62171 136.53336 16.45503 12.01137 -0.09862 "/>
<path d="M16141088.47565 -4552374.67407l14.32682 -122.04524 2.09281 -17.79316 "/>
<path d="M16140766.08327 -4552827.99386l-10.40837 76.65076 -7.70331 56.74532 -16.11906 118.74635 -7.23577 53.3088 -14.43814 106.33666 -13.61437 100.2657 "/>
<path d="M16140575.5043 -4550904.52434l-6.82388 1.4372 -3.15034 0.66224 -4.87579 -0.66224 "/>
<path d="M16139517.23443 -4552000.2597l2.21526 0.29586 39.76332 5.3537 24.23425 3.18405 23.82237 3.40947 58.22009 7.63608 98.84058 13.27158 94.44346 12.66578 "/>
<path d="M16139764.3303 -4551967.10895l-57.45199 420.96592 -25.49216 186.76954 -8.68292 63.57229 -19.89279 146.46291 -17.57735 126.71075 "/>
<path d="M16140039.87944 -4551632.14381l-16.50868 122.13992 -6.17823 45.63553 -11.19874 75.8718 -7.36935 61.44458 -6.34521 51.6808 -6.79049 50.97657 -32.50529 241.06422 "/>
<path d="M16140107.09415 -4551825.4739l58.81009 7.46714 38.78371 4.86069 60.15705 7.69257 "/>
<path d="M16139425.64075 -4551330.9548l52.59846 7.49567 36.46827 5.17089 52.93242 7.53795 105.06334 14.9491 45.89703 7.01665 49.69302 6.57987 "/>
<path d="M16139665.48973 -4551980.38053l-58.76556 419.69735 -6.15597 45.02946 -20.60524 150.72895 "/>
<path d="M16139084.65802 -4551752.97202l63.32966 8.69293 65.48926 8.97472 "/>
<path d="M16139084.65802 -4551752.97202l-7.50293 51.74913 "/>
<path d="M16139125.49001 -4551089.89305l3.58449 -26.36222 7.91482 -58.12063 3.81826 -28.03869 1.14659 -8.32705 "/>
<path d="M16139256.69116 -4551072.50607l16.82038 -124.23034 27.86327 -205.89194 0.28943 -2.15569 6.76823 -50.00351 35.61111 -263.07454 8.18198 -60.49831 5.07617 -37.50483 12.21175 -90.23929 10.59762 -78.29128 "/>
<path d="M16140401.91269 -4551131.93731l259.91988 32.36448 "/>
<path d="M16140531.8114 -4551571.81372l-40.89878 306.64346 "/>
<path d="M16140660.65258 -4551556.99179l-39.20672 306.08031 -8.36009 54.34415 "/>
<path d="M16140671.97377 -4551187.98666l-45.19571 -6.57993 -13.6923 -2.00075 -47.15494 -6.1995 "/>
<path d="M16140603.32304 -4551563.26153l-41.19934 307.53137 -5.07617 41.80423 -3.41751 9.4965 "/>
<path d="M16140563.80462 -4550909.63907l0.64565 -6.67874 20.04864 -146.8748 "/>
<path d="M16139934.82724 -4551747.51956l17.95583 -128.30805 5.56597 -39.75869 11.94458 -85.46236 "/>
<path d="M16139832.74726 -4551761.11547l52.23111 6.95998 49.84887 6.63593 49.3368 6.56549 34.94319 4.64939 33.46264 4.45214 "/>
<path d="M16140204.68795 -4551813.14608l-23.88916 198.26154 "/>
<path d="M16139558.89018 -4552306.98012l2.21526 0.29585 45.73005 6.21293 39.28465 5.31129 116.67396 15.73664 137.22354 18.52615 "/>
<path d="M16140107.09415 -4551825.4739l-25.9931 198.78261 "/>
<path d="M16140201.8493 -4551970.0535l17.36584 -137.3079 14.09305 -111.42573 "/>
<path d="M16140404.07229 -4552323.59018l-16.73132 124.27324 "/>
<path d="M16140476.31864 -4551686.21799l53.75618 6.28375 46.74305 5.60747 4.0409 -1.59207 16.11906 -11.94758 8.66066 -2.98689 8.96122 -0.29587 9.91857 1.19757 27.66289 3.35321 89.38955 11.05996 "/>
<path d="M16140648.05121 -4551672.73469l4.12995 -13.8637 3.92958 -10.74999 16.48642 -25.26173 16.01887 -44.33821 14.52719 -18.42841 -3.33958 -8.25614 0.87942 -11.877 5.35447 -8.83377 9.76272 0.23951 3.12808 9.45369 1.98149 8.66471 -3.84052 5.52288 -6.15597 6.10053 "/>
<path d="M16140742.46127 -4551681.80809l-6.07804 -5.1848 -14.53833 -20.41511 -5.1207 -19.9924 -5.81088 -56.96192 "/>
<path d="M16140710.91333 -4551784.36232l-7.7701 -1.01441 "/>
<path d="M16139542.43716 -4552185.83431l2.21526 0.29586 36.43487 4.88869 17.26565 2.32459 30.75758 4.12792 31.26964 4.19836 19.28054 2.59228 62.2276 8.35446 24.79085 3.32488 117.06358 15.72276 "/>
<path d="M16139612.12317 -4552052.13414l16.98735 -122.06311 "/>
<path d="M16139673.22643 -4552119.04079l203.78146 27.48676 "/>
<path d="M16139872.05418 -4552053.76842l-204.01523 -26.26116 "/>
<path d="M16139621.83022 -4552769.62888l-2.11507 -0.29584 -131.66869 -19.66634 -47.82285 -5.88863 -31.83737 -3.90227 -50.76169 -6.33942 -49.03624 -5.64913 -28.47553 -3.50781 -6.73483 -0.88752 -46.64287 -6.26898 "/>
<path d="M16139197.14637 -4552598.74426l38.95069 5.14208 26.90592 3.53606 64.60983 8.52318 66.10151 8.70633 64.71002 8.53728 54.86938 7.22711 36.34581 4.7899 41.845 5.52248 "/>
<path d="M16139725.35735 -4552767.6707l5.55484 -39.88207 6.07804 -43.71373 3.65128 -26.21688 6.70143 -48.17916 6.31182 -45.37555 10.86478 -78.05787 7.68104 -55.13744 "/>
<path d="M16139808.35716 -4552798.12816l5.57711 -42.76991 3.46204 -26.5691 6.28955 -48.1792 5.89993 -45.26289 10.25253 -78.53692 1.13546 -8.70594 6.1337 -47.05139 "/>
<path d="M16139831.48935 -4552396.82068l4.64202 -34.83995 8.8499 -66.50975 12.75721 -95.61495 6.05578 -45.50378 7.02426 -52.70243 12.82401 -96.03579 5.67729 -42.64316 3.58449 -26.86496 6.31182 -47.41853 5.8888 -44.12186 11.62175 -88.84891 6.53445 -47.37544 "/>
<path d="M16139084.65802 -4551752.97202l6.59011 -49.19877 6.28955 -46.94431 9.19499 -68.66906 2.79412 -21.90807 10.13007 -79.43221 "/>
<path d="M16139489.84984 -4551798.91624l-2.09281 -0.30996 -44.47214 -5.64967 -20.09317 -2.56419 -2.66054 -0.35222 -63.22947 -8.07297 -73.86048 -9.46777 -56.862 -7.26989 -129.04155 -16.5122 "/>
<path d="M16138868.21954 -4552058.13589l1.8479 0.21133 70.77693 8.01643 54.7024 6.25535 39.35144 4.40974 35.22149 4.00117 14.90568 1.69064 25.51443 2.88817 "/>
<path d="M16138983.88049 -4551956.11973l60.21271 7.97424 65.4336 8.45326 129.21966 16.69521 36.99147 4.7761 41.13255 5.31148 52.64299 6.8049 65.61171 8.46738 11.18761 1.43706 53.67826 6.91762 2.13733 0.29587 "/>
<path d="M16139347.52787 -4552249.10531l13.74796 -101.97102 "/>
<path d="M16139154.43308 -4552275.87315l-54.53542 -6.94554 -32.90604 -4.80411 -38.27164 -4.90273 -74.87349 -10.03086 -7.48067 -0.64806 -42.6131 -5.97343 -3.85165 -0.52127 -47.05475 -6.86099 -70.15354 -8.73472 -99.58642 -13.41201 "/>
<path d="M16139042.96887 -4552399.51152l-82.52114 -11.24234 -42.21235 -6.42419 -1.85904 -0.25359 -52.35356 -6.90318 -66.92528 -10.50973 -99.34151 -13.56684 -22.41975 -3.0712 -18.03376 2.63447 -79.62683 -10.6365 -30.5572 -4.00101 "/>
<path d="M16139205.94061 -4550866.25535l0.26717 -4.62159 10.23026 -86.59815 7.39161 -61.70039 "/>
<path d="M16139798.37181 -4550940.24287l3.96297 -28.40566 0.65678 -4.67791 3.99637 -28.15195 "/>
<path d="M16140278.31466 -4551959.81098l-76.46536 -10.24251 -76.25385 -10.20024 -40.68727 -5.45233 -32.04888 -4.52248 -82.56567 -10.82012 -49.87113 -6.67804 -53.6226 -7.18523 "/>
<path d="M16140641.7728 -4550895.36572l-0.26717 2.05717 -6.12257 47.8504 -5.79975 39.70642 -11.33232 97.73085 -6.17823 53.30428 -4.82013 41.53892 -4.65315 40.21457 -5.17636 40.28518 "/>
<path d="M16140422.66264 -4550453.488l23.43275 -178.82465 12.40099 -94.67395 "/>
<path d="M16140629.58331 -4550805.75173l-110.59591 -13.93531 "/>
<path d="M16140507.16527 -4550721.2377l11.82213 -98.44933 "/>
<path d="M16140334.4976 -4550946.30163l-2.30431 -4.57929 9.06141 -9.42628 45.80797 -318.67094 40.89878 -304.68465 5.89993 -41.7323 18.59035 -146.37168 17.52169 -136.1975 0.18924 -12.5954 0.14472 -9.90442 28.97646 -213.42886 5.49918 -40.49027 16.8649 -124.1748 6.53445 -74.23086 -9.47329 -16.51133 1.26904 -12.98927 "/>
<path d="M16140445.8171 -4551623.9439l-11.95571 -1.45119 -6.89068 -8.98891 -1.26904 -8.66485 10.77573 -85.7182 4.29693 -34.20818 "/>
<path d="M16140440.77432 -4551762.97522l4.75334 -6.29779 6.92407 -2.49375 12.77948 1.47935 "/>
<path d="M16140463.7618 -4552189.69454l17.34358 -124.04795 "/>
<path d="M16139045.62941 -4552419.44623l52.2645 7.26948 73.11464 10.17164 49.43699 6.86093 80.39494 11.186 33.66301 4.67727 59.02159 8.19932 "/>
<path d="M16139443.05112 -4552447.60836l15.37322 -116.69098 8.18198 -61.45137 6.37861 -49.39187 15.06153 -114.44849 10.6978 -81.27119 10.4195 -79.17153 "/>
<path d="M16139334.50349 -4552379.28091l10.76459 -81.66886 "/>
<path d="M16139109.31529 -4552493.12687l-11.42138 80.95011 "/>
<path d="M16140654.30737 -4552842.41952l9.25065 -0.73255 16.54208 1.22562 26.76121 2.46532 18.7796 -1.59189 34.25301 -2.91612 25.82612 3.57824 34.98772 13.22822 2.60488 2.93022 0.94622 4.26854 -1.21338 7.50868 1.41376 5.15606 1.46942 1.83139 2.78299 3.49373 2.87204 10.08673 "/>
<path d="M16141049.73647 -4552785.3366l2.01488 -14.39755 2.91657 -20.83556 1.0464 -7.60729 -0.74584 -2.69073 -3.74033 -1.94408 "/>
<path d="M16140570.55059 -4552574.47081l22.7537 2.9162 "/>
<path d="M16140510.31561 -4550925.81457l-4.0409 29.42027 "/>
<path d="M16139204.59364 -4550848.06485l1.34697 -18.1905 "/>
<path d="M16140461.05673 -4551920.7569l0 -2.98683 -2.39337 -2.38101 -5.67729 -0.90168 -4.77561 -0.29586 -3.87392 2.98682 -1.0798 2.71914 0.86829 3.3954 2.93883 4.14211 3.36185 1.46524 86.19468 10.01715 3.12808 -0.22542 2.34884 -1.42297 1.6364 -2.08515 0.64565 -2.76141 -0.22264 -2.53599 -1.01301 -2.16968 -2.01488 -1.57795 -2.47129 -0.95804 -5.82201 -0.60582 -3.206 0.08453 -2.11507 0.60582 -2.81638 3.11363 -0.74584 3.66309 "/>
<path d="M16140878.88331 -4550815.6713l3.77373 -32.1681 -1.11319 -13.23074 -0.18924 -2.26853 "/>
<path d="M16138933.18559 -4550903.39712l75.20745 10.31402 44.27176 6.01651 128.87457 17.51413 "/>
<path d="M16139204.59364 -4550848.06485l-0.63452 7.31284 -0.7681 13.66756 "/>
<path d="M16139485.63083 -4550810.54243l-9.69593 7.00288 -16.33057 13.2449 "/>
<path d="M16138934.59935 -4550712.67072l2.35997 2.09948 178.34496 29.87177 67.18131 8.94746 64.19795 8.05976 119.13412 13.59734 50.12717 11.86423 "/>
<path d="M16140834.46683 -4552813.46956l203.32505 25.30135 3.28392 1.04248 3.74033 1.19745 4.92032 0.59168 8.59386 0.87343 "/>
<path d="M16140826.06221 -4552750.56827l231.57794 30.0068 "/>
<path d="M16141104.89527 -4552514.51247l10.80912 -21.25877 "/>
<path d="M16141330.23932 -4552277.63419l-10.31932 -1.22568 -176.55271 -20.89295 -142.18839 -16.8214 -189.43238 -22.42849 -40.03049 -4.73365 "/>
<path d="M16141009.52787 -4552384.18359l-8.34896 67.60936 -8.21538 66.55318 "/>
<path d="M16139231.45503 -4552476.46072l-11.0095 81.31653 "/>
<path d="M16138886.64291 -4552195.62577l1.85904 0.2395 71.24447 9.11522 54.00108 6.05803 66.40208 9.0307 59.36668 7.83319 "/>
<path d="M16139514.70748 -4551318.28825l7.60312 -54.97754 7.90368 -57.23156 5.06504 -36.64663 3.69581 -26.68532 3.97411 -28.81274 6.45653 -46.69197 6.6903 -48.39655 51.17357 -370.28606 "/>
<path d="M16139407.67379 -4551709.07051l-39.84125 310.95081 -0.23377 1.80346 "/>
<path d="M16139009.29473 -4551219.68864l-62.06062 -8.05933 "/>
<path d="M16139162.90449 -4552340.04525l2.07054 -15.93378 6.03352 -46.02609 10.59762 -81.42918 "/>
<path d="M16139181.60617 -4552483.4343l15.5402 -115.30996 14.07078 -102.17891 "/>
<path d="M16139044.0932 -4551948.14549l-3.09468 21.52765 "/>
<path d="M16140629.58331 -4550805.75173l243.71176 31.32281 "/>
<path d="M16140637.11964 -4551679.10298l-14.04852 103.48516 "/>
<path d="M16140639.19018 -4551698.05284l-2.07054 18.94986 "/>
<path d="M16140484.1444 -4550735.2013l-3.46204 25.20777 "/>
<path d="M16140480.68236 -4550709.99354l-9.91857 72.24194 "/>
<path d="M16140546.16048 -4551105.87102l-10.30818 33.87218 -8.5382 33.90048 -9.50668 56.16288 -7.4918 56.12091 "/>
<path d="M16140552.66154 -4551124.0188l-6.50106 18.14778 "/>
<path d="M16140582.29479 -4551267.53732l-3.31732 24.38927 "/>
<path d="M16140578.97747 -4551243.14805l-4.54184 31.95553 "/>
<path d="M16140574.43564 -4551211.19252l-3.31732 17.30224 "/>
<path d="M16140571.11831 -4551193.89028l-2.88317 16.33007 -6.05578 23.10731 -9.51782 30.4341 "/>
<path d="M16140623.07112 -4551575.61782l-4.14109 29.34799 "/>
<path d="M16140618.93004 -4551546.26983l-20.21562 153.8282 -16.41962 124.90431 "/>
<path d="M16140596.97783 -4551687.86642l7.28029 -62.86545 4.36372 -37.75853 "/>
<path d="M16141043.88106 -4552145.92168l83.15566 9.552 10.66441 -1.91604 3.30619 -5.67767 "/>
<path d="M16141132.39119 -4552040.99003l-11.29893 94.92968 -10.88705 91.60556 "/>
<path d="M16140690.87582 -4552273.90079l-10.39724 76.92253 "/>
<path d="M16140696.56425 -4552315.94026l-5.68843 42.03947 "/>
<path d="M16140052.85929 -4551990.22854l-5.74409 42.98473 -28.00798 210.93913 "/>
<path d="M16140680.47858 -4552196.97826l-0.50094 14.82104 "/>
<path d="M16140679.97764 -4552182.15723l1.36923 77.48675 "/>
<path d="M16140682.30422 -4552087.66558l0.56773 17.99113 -0.8349 27.95182 -2.04828 31.7981 "/>
<path d="M16140681.34687 -4552104.67048l0.95735 17.0049 "/>
<path d="M16139406.44927 -4551183.13977l93.47498 12.82173 42.76895 5.87546 3.90731 0.53541 106.20993 14.56889 "/>
<path d="M16140440.77432 -4551762.97522l2.84978 -22.99325 -1.97035 -3.80402 -3.02789 -2.71917 -5.18749 -1.83157 -54.55768 -6.98813 "/>
<path d="M16139091.24814 -4551802.17079l128.98589 16.65317 "/>
<path d="M16140610.68126 -4552707.43171l62.4391 7.56512 "/>
<path d="M16140576.38373 -4552439.29638l68.20545 7.77663 "/>
<path d="M16140567.67854 -4552371.26473l103.93901 10.87609 "/>
<path d="M16141074.17109 -4550836.53901l22.49767 -188.04703 28.66477 -218.56201 "/>
<path d="M16140945.83085 -4550854.67317l0.28943 -2.14172 5.9222 -48.17442 0.8349 -8.60909 42.49065 -346.00642 "/>
<path d="M16140795.39369 -4550874.62494l0.34509 -2.39534 20.28241 -138.46361 1.20225 -18.81017 -0.30056 -8.35537 -0.60113 -7.76358 2.69393 -7.46769 5.07617 -5.07239 "/>
<path d="M16140824.09186 -4551062.95308l8.05953 -0.29589 10.4529 1.18356 7.45841 2.98707 5.6105 4.59333 5.3656 1.78943 40.90991 4.64969 "/>
<path d="M16140492.88298 -4551075.67631l-13.31381 108.8454 -5.49918 44.91931 "/>
<path d="M16140480.73802 -4550909.61089l-22.24163 182.6243 "/>
<path d="M16140706.03754 -4551814.34364l-8.28217 -37.09613 -6.60125 -44.73214 -0.2449 -8.62236 "/>
<path d="M16140715.80026 -4551814.10413l13.01325 -28.36101 32.86151 -44.85898 7.35822 -7.66433 "/>
<path d="M16140635.38306 -4550845.45815l243.50025 29.78685 "/>
<path d="M16140423.97621 -4550902.36854l-19.0579 169.2808 "/>
<path d="M16139985.48874 -4551224.39462l-114.1804 -16.5977 -106.57728 -14.80829 "/>
<path d="M16139772.07814 -4551304.79038l180.79398 24.43146 39.4071 4.98774 "/>
<path d="M16139952.87213 -4551280.35893l7.26916 -50.73677 "/>
<path d="M16139871.30834 -4551240.99232l-14.96134 102.78502 "/>
<path d="M16139803.47024 -4551541.49356l121.40504 16.63949 98.49549 14.85017 "/>
<path d="M16139797.06937 -4551496.01315l52.60959 7.55191 167.51357 24.09288 "/>
<path d="M16139786.53854 -4551417.76046l43.78196 6.11484 7.87029 1.05671 167.803 22.09235 "/>
<path d="M16139992.27923 -4551275.37119l11.03176 -3.05746 90.78104 10.87723 "/>
<path d="M16140117.51365 -4552233.41087l16.0968 -124.76592 "/>
<path d="M16140194.23505 -4552223.71806l15.98548 -124.66742 "/>
<path d="M16140270.94531 -4552214.02525l16.31944 -124.49848 "/>
<path d="M16140342.53487 -4552204.98049l17.51056 -124.245 "/>
<path d="M16140421.41586 -4552195.00588l16.31944 -124.28738 "/>
<path d="M16139920.42249 -4552007.7267l-35.44413 253.57121 "/>
<path d="M16139825.7898 -4551709.38047l152.36299 19.76701 "/>
<path d="M16139182.96426 -4552021.22365l-7.64765 57.86231 "/>
<path d="M16139521.88759 -4552036.34078l-1.90356 -0.23951 -109.62743 -13.22923 "/>
<path d="M16139387.90345 -4552052.66951l-55.11428 -6.25535 "/>
<path d="M16139475.83471 -4552117.78691l15.09492 -111.48197 "/>
<path d="M16139222.76098 -4552710.29152l28.84288 4.07136 90.71425 12.73532 130.66682 18.34227 91.115 12.8058 40.19747 5.63512 "/>
<path d="M16139214.17825 -4552721.98433l12.55684 -100.05048 11.2878 -83.87712 10.21913 -78.31194 "/>
<path d="M16139221.88156 -4552707.13587l-1.80338 2.74711 -2.53808 2.05681 -3.05015 1.19746 -3.27279 0.21132 -3.18374 -0.803 -2.78299 -1.73279 -2.13733 -2.49353 -1.26904 -3.02886 -0.2783 -3.26835 0.8349 -3.47967 1.95922 -3.01477 2.82752 -2.1836 3.40638 -1.12702 3.58449 0.07044 3.00563 1.05658 2.54922 1.88775 1.8813 2.56397 1.03527 3.01477 0.11132 3.16974 -0.87942 3.15565 "/>
<path d="M16139398.42314 -4552128.05745l-45.0176 -6.11442 -41.845 -5.69176 -43.62611 -6.18485 -49.87113 -7.12878 -78.54703 -10.17188 "/>
<path d="M16139453.82685 -4552234.41115l-14.43814 111.76369 "/>
<path d="M16139225.62189 -4552211.55977l-41.38859 -5.40995 -36.9692 -4.84641 -54.15693 -7.08646 -33.00623 -4.81823 -38.67239 -4.55054 "/>
<path d="M16139218.0633 -4552153.17725l7.55859 -58.38252 6.62351 -53.49354 4.93145 -38.89782 "/>
<path d="M16139184.23331 -4552216.96972l6.52332 -53.81755 "/>
<path d="M16139093.10717 -4552228.90259l6.79049 -53.9161 "/>
<path d="M16139060.10094 -4552233.72081l6.89068 -53.90199 "/>
<path d="M16140087.6355 -4552282.74825l-133.89508 -16.94822 "/>
<path d="M16139953.74042 -4552299.69648l10.6978 -80.11978 "/>
<path d="M16138981.00844 -4551934.59209l1.28017 -9.60854 1.59187 -11.91909 11.66628 -87.53305 7.64765 -57.41103 4.86466 -36.44703 5.68843 -42.70218 6.85728 -51.45089 0.82376 -6.60745 7.29143 -54.25418 6.77936 -50.94316 7.46954 -56.04282 2.66054 -19.93472 4.08543 -30.62754 6.70143 -50.28025 "/>
<path d="M16139106.73268 -4551917.78416l-65.73416 -8.83368 -59.99007 -7.97425 "/>
<path d="M16138982.28862 -4551944.20064l-10.46403 4.29708 -80.31701 -10.158 "/>
<path d="M16139158.66322 -4552024.42178l8.38236 -63.17336 2.56035 -19.3436 "/>
<path d="M16139167.04558 -4552087.59514l48.83586 6.14262 "/>
<path d="M16139076.2534 -4551210.99526l29.26589 -217.50138 0.2783 -2.15569 0.26717 -2.04297 41.92292 -311.58378 "/>
<path d="M16139070.09743 -4551678.25763l-29.88928 225.34397 "/>
<path d="M16139279.30015 -4551726.51279l-5.13183 35.81446 -27.76308 193.74119 "/>
<path d="M16139122.37307 -4552039.21486l4.68655 -30.16374 12.45665 -93.97054 7.74784 -58.467 7.16898 -54.05702 6.34521 -47.84382 "/>
<path d="M16139130.6775 -4552028.09892l27.98572 3.67714 24.30104 3.19813 55.35918 7.22749 "/>
<path d="M16139129.85374 -4552025.06986l-1.71432 2.63458 -2.42676 1.97241 -2.9277 1.14118 -3.12808 0.19724 -3.17261 -0.81714 -2.73846 -1.78926 -2.02601 -2.57823 -1.11319 -3.07133 -0.06679 -3.28266 0.96848 -3.0995 1.89243 -2.63458 2.62714 -1.90197 3.09468 -0.97212 3.25053 0.05635 2.88317 0.97212 2.46016 1.78926 1.82564 2.43734 1.01301 2.87408 0.12245 3.04315 -0.82376 3.02906 "/>
<path d="M16139070.09743 -4551678.25763l7.05766 -22.96526 "/>
<path d="M16139232.28993 -4551875.05273l56.59483 7.03034 "/>
<path d="M16139506.00229 -4550825.15407l-2.05941 17.31697 -20.61637 154.29002 -2.17073 16.42956 -18.27866 146.96536 -20.96146 150.08153 -2.51582 19.05097 -19.81487 149.98534 -17.48829 134.96611 -2.09281 13.33043 "/>
<path d="M16140109.81034 -4550897.45107l-6.4454 48.23082 -12.32307 92.24929 -0.92395 6.8902 -0.51207 3.87486 "/>
<path d="M16140549.14385 -4552554.46595l-203.79259 -26.54165 -200.93168 -26.1753 -130.38852 -16.98996 "/>
<path d="M16139009.29473 -4551219.68864l66.95867 8.69338 64.55417 8.58067 "/>
<path d="M16139405.85928 -4551178.61694l-65.6451 -8.98929 -66.70264 -9.13018 -72.14616 -9.89102 -51.71904 -7.08715 "/>
<path d="M16139201.36538 -4551206.62744l22.72031 -155.09901 "/>
<path d="M16139682.3101 -4551016.85062l36.29015 -271.93393 "/>
<path d="M16139828.57278 -4550998.61811l-3.47317 28.30695 -0.63452 4.66382 -2.17073 16.85177 -3.02789 11.42709 "/>
<path d="M16139260.54282 -4552010.27675l109.72762 14.0746 "/>
<path d="M16139250.95821 -4552023.21015l3.15034 -22.8377 13.82588 -100.00062 7.39161 -53.45162 8.0818 -58.4527 12.53457 -90.60175 4.89806 -35.40364 8.05953 -58.2967 "/>
<path d="M16139252.48329 -4552001.21773l-3.16147 0.42266 -3.82939 -0.69035 -3.35072 -1.97242 -2.49356 -2.9868 -1.3247 -3.66306 0 -3.88847 1.10206 -3.25448 2.03715 -2.77547 2.78299 -2.04286 3.26166 -1.08483 3.4509 -0.05635 3.40638 1.04256 2.9277 2.05695 2.1262 2.86 1.12433 3.39537 0 3.57852 -0.94622 3.04316 -1.75885 2.66276 -2.4379 2.05695 -2.91657 1.29616 "/>
<path d="M16139900.01763 -4552260.89726l44.31629 5.60716 56.38332 7.11462 80.72889 10.19998 36.06752 4.56463 37.13618 4.69143 39.58521 5.00138 39.07314 4.93094 37.63712 4.76188 39.29578 4.97321 32.29378 4.07155 44.8061 5.66354 34.0749 4.31106 42.34593 5.31134 36.62411 4.66327 "/>
<path d="M16139197.14637 -4552598.74426l-125.76876 -13.87656 -86.78468 -11.50978 -37.94881 -5.01527 -3.85165 -0.50716 -46.8989 -6.19865 -35.86714 -4.7476 -34.96545 -4.62081 -156.08106 -20.63864 -114.35851 -15.11619 "/>
<path d="M16139440.22361 -4552795.47969l4.55297 -36.59956 6.15597 -45.22099 5.54371 -41.21996 6.4454 -47.65773 5.94446 -43.82576 5.87767 -42.75495 "/>
<path d="M16139408.38623 -4552799.38196l4.50844 -36.85313 6.21163 -45.33367 5.48805 -41.10724 6.48993 -47.98173 5.8888 -43.47356 5.93333 -43.07894 "/>
<path d="M16139236.09706 -4552593.60219l15.50681 -112.61798 "/>
<path d="M16139308.58831 -4552811.37051l5.04277 -39.21979 5.73295 -44.38975 5.74409 -44.69948 5.69956 -44.14989 6.04465 -46.9249 5.22088 -40.55725 "/>
<path d="M16139280.11278 -4552814.87832l5.1207 -39.40292 5.81088 -44.50243 5.79975 -44.58677 5.77748 -44.27666 6.12257 -47.06575 5.28768 -40.51498 "/>
<path d="M16140000.71724 -4552248.17548l-1.79224 14.37013 -5.78861 46.23816 -3.97411 31.71313 -1.48055 11.83433 "/>
<path d="M16140081.44614 -4552237.9755l6.18936 -44.77275 3.206 -23.14707 7.85916 -56.74743 "/>
<path d="M16140052.85929 -4551990.22854l13.05778 -111.89191 6.1671 -9.53795 2.42676 -9.22799 -2.63827 -11.42579 -3.4509 -7.90365 "/>
<path d="M16140068.42176 -4552140.21584l1.20225 -9.19979 11.82213 -88.55988 "/>
<path d="M16140142.83884 -4552135.21442l11.811 -93.50502 "/>
<path d="M16140154.64984 -4552228.71944l15.2619 -124.82233 "/>
<path d="M16140125.59545 -4551980.25374l13.55871 -118.52773 9.19499 -15.31425 -5.51031 -21.1187 "/>
<path d="M16140039.87944 -4551632.14381l12.69042 -99.70873 32.33831 -253.85353 "/>
<path d="M16140555.65604 -4552601.11103l-107.14501 -13.94699 -97.78304 -12.73542 -189.64388 -26.71052 "/>
<path d="M16140149.98555 -4552645.50184l-5.56597 38.31894 -7.14671 49.51899 -12.0893 83.48546 "/>
<path d="M16140146.84634 -4552646.27667l-2.73846 -1.71871 -2.08167 -2.47946 -1.20225 -3.0007 -0.21151 -3.22611 0.84603 -3.24019 1.83677 -2.78938 2.62714 -2.05682 3.16147 -1.11294 3.33958 -0.02818 3.00563 0.94388 2.58261 1.81733 1.9147 2.52172 1.05754 2.97253 0.10019 3.16976 -0.85716 3.02888 -1.72545 2.62033 -2.4379 1.98638 -2.9277 1.1552 -3.15034 0.21132 -3.13921 -0.77483 "/>
<path d="M16140529.26219 -4552411.13424l-9.28405 -1.15523 -313.79851 -39.24947 -34.62036 -4.38139 -36.98033 -4.57862 "/>
<path d="M16140121.63247 -4552450.49642l-5.63277 37.89701 -1.23565 8.34018 -6.36747 42.85623 "/>
<path d="M16140118.01459 -4552451.42623l-3.16147 -1.98642 -2.39337 -2.87397 -1.39149 -3.47975 -0.25603 -3.73334 1.02414 -3.88831 2.24865 -3.33887 3.2394 -2.39497 3.84052 -1.19748 4.01863 0.14088 3.42864 1.28201 2.87204 2.24 2.07054 3.01484 1.06867 3.49384 -0.04453 3.64881 -1.10206 3.40931 -2.05941 2.94441 -2.83865 2.18365 -3.36185 1.25384 -3.58449 0.21132 -3.61788 -0.92981 "/>
<path d="M16139668.03895 -4552080.02957l5.18749 -39.01122 6.43427 -48.36582 "/>
<path d="M16141049.25779 -4552188.91968l-249.41132 -29.16303 "/>
<path d="M16140780.44348 -4552036.32669l-87.48599 -9.86205 5.96672 -46.87277 "/>
<path d="M16140741.57072 -4551675.53843l0.89056 -6.26966 13.43626 -105.09025 13.1357 -108.09011 "/>
<path d="M16140713.56273 -4551550.72205l-5.9222 51.72196 -22.87616 199.52151 -6.51219 56.72505 -6.27842 54.76688 -10.14121 88.41383 -23.22125 201.45952 "/>
<path d="M16139353.40554 -4552134.17187l7.43614 -55.50859 4.55297 -34.02352 "/>
<path d="M16139311.56054 -4552139.86362l7.7367 -54.9732 8.02614 -57.07207 "/>
<path d="M16139319.29724 -4552194.83682l41.54443 5.15637 "/>
<path d="M16139598.35294 -4552178.32517l-15.38435 120.68238 "/>
<path d="M16139549.63954 -4552552.28232l14.4604 -110.05445 "/>
<path d="M16139549.63954 -4552552.28232l-15.51794 117.08558 -7.22463 56.64842 "/>
<path d="M16139513.29372 -4552557.07222l1.22451 -5.38159 6.9352 -50.85731 "/>
<path d="M16141121.09226 -4551946.06035l-95.97966 -11.86273 "/>
<path d="M16141121.09226 -4551946.06035l42.8914 5.21284 219.91165 25.62751 45.14005 5.29739 96.04646 11.07381 "/>
<path d="M16140679.98878 -4552009.92454l-1.29131 13.99007 "/>
<path d="M16140678.69747 -4551995.93447l-8.3267 69.04894 "/>
<path d="M16140670.37077 -4551926.88553l-3.62902 27.81131 "/>
<path d="M16140666.74176 -4551899.07421l-16.31944 119.09356 -11.23214 81.92781 "/>
<path d="M16139087.10705 -4552726.87277l82.0536 10.97433 32.4051 3.64872 "/>
<path d="M16138960.01359 -4552742.89048l1.8479 0.23949 38.86163 4.88843 86.38392 10.88979 "/>
<path d="M16139416.80199 -4552125.6624l-18.37885 -2.39505 "/>
<path d="M16139410.35659 -4552049.80951l-22.45314 -2.85999 "/>
<path d="M16139432.97671 -4551387.43985l-2.29318 17.69646 -5.04277 38.78859 -19.19148 147.81504 -0.58999 4.52283 -8.03727 61.95306 -8.02614 61.8548 "/>
<path d="M16139656.04984 -4552619.81972l-6.48993 47.23668 "/>
<path d="M16139629.11052 -4552174.19725l5.06504 -36.03821 5.71069 -40.58863 6.23389 -44.33596 10.47516 -74.5409 6.82388 -48.60415 "/>
<path d="M16139806.09738 -4552503.46748l-13.23589 101.71594 "/>
<path d="M16141301.7304 -4552367.74268l-186.026 -168.02855 -20.30468 -35.78338 -17.08754 -37.68512 -8.33783 -33.71222 "/>
<path d="M16141064.56422 -4552664.06957l-6.92407 -56.4919 -1.12433 -25.56918 0.12245 -22.59662 1.69206 -15.7359 2.89431 -18.90558 2.18186 -11.87585 2.53808 -8.97379 3.11695 -3.42328 2.58261 -2.8316 3.59562 -2.35262 4.2858 -1.22562 9.46216 -0.60577 81.497 -3.42328 11.221 -0.70438 65.38907 -1.94408 118.84469 -4.02904 35.97846 -1.49328 8.80537 -1.18335 10.00762 -3.59232 7.91482 -4.77568 5.52145 -5.36735 5.66616 -6.57887 3.43977 -5.66318 1.79224 -4.77567 "/>
<path d="M16141066.16722 -4552642.99421l-2.27092 -0.6903 -3.17261 -2.085 -2.28205 -3.04297 -1.17999 -4.88847 0.64565 -3.74736 1.8813 -3.31063 2.90544 -2.45128 5.62163 -1.49331 3.17261 0.50716 3.37298 1.74689 2.05941 2.05682 1.74772 3.38107 0.47867 3.77553 -0.92395 3.9305 -2.1262 3.15567 -3.07242 2.22588 -3.05015 0.97206 -3.80713 -0.04226 "/>
<path d="M16140845.97727 -4551885.68982l-5.47692 44.99988 -16.41962 134.91627 -14.67191 120.46243 -5.51031 45.31114 -6.37861 52.34194 -24.26765 199.4231 "/>
<path d="M16138930.32468 -4550948.31652l45.87476 6.39692 3.206 -24.15045 37.32543 4.98789 -7.81463 63.68745 -0.5232 4.3116 "/>
<path d="M16139712.41089 -4550777.13427l-7.40275 65.2667 -5.19862 5.96026 -18.27866 -2.56446 -15.17285 1.84585 -59.83423 -7.6652 -10.68667 74.84866 -2.02601 17.35955 "/>
<path d="M16140065.44953 -4550727.33885l2.7162 -21.26242 "/>
<path d="M16140068.16572 -4550748.60127l0.53433 -4.07212 4.71995 -35.90223 8.33783 -63.39222 6.38974 -48.45625 "/>
<path d="M16141039.21677 -4550646.13546l8.92782 -65.50665 31.52568 -14.32997 25.80386 0 "/>
<path d="M16140935.40022 -4550661.00096l6.67917 -42.0319 7.82576 -9.63786 4.59749 -5.65026 43.00272 6.67887 "/>
<path d="M16141016.35175 -4550933.22599l14.33795 -122.4144 11.34346 -90.17543 14.03739 -105.39155 "/>
<path d="M16139275.73793 -4551918.22091l4.38599 -33.96805 6.2005 -3.1277 34.72055 3.81805 -4.17448 38.58918 "/>
<path d="M16139423.19173 -4551807.44006l3.84052 -30.02352 1.21338 -9.55228 "/>
<path d="M16139443.28489 -4551804.87587l4.36372 -30.36166 "/>
<path d="M16139420.53119 -4551807.79228l-12.8574 98.72177 "/>
<path d="M16139000.72313 -4552737.76256l-8.21538 57.75971 -7.91482 55.87226 "/>
<path d="M16138992.50775 -4552680.00286l86.47298 10.32634 "/>
<path d="M16139601.20272 -4552260.20693l5.63277 -40.2644 9.86291 -74.32954 2.63827 -21.11817 "/>
<path d="M16139616.6984 -4552374.80087l39.89691 5.09992 "/>
<path d="M16140535.8523 -4552306.74062l23.21011 2.87401 "/>
<path d="M16139819.26647 -4550937.36849l-19.21374 138.9719 -2.47129 12.62493 -3.35072 20.16329 -16.29717 118.65564 -1.98149 26.09569 "/>
<path d="M16140849.65081 -4551278.51318l24.89104 -199.77552 5.97786 -52.8492 "/>
<path d="M16140184.40554 -4551198.89215l-45.07326 -5.84726 -52.87676 -6.98852 "/>
<path d="M16140139.33227 -4551204.73941l13.63664 -103.5593 "/>
<path d="M16139830.3205 -4551411.64563l-3.31732 24.81162 -5.18749 38.78853 "/>
<path d="M16140849.65081 -4551278.51318l-6.75709 55.51345 -6.26729 50.15962 -2.09281 19.41578 -10.44177 90.47126 "/>
<path d="M16140927.88615 -4551268.26999l26.66102 3.62105 40.82086 5.04411 26.66102 3.91694 34.0415 4.48053 55.53729 6.56581 13.72569 1.49351 36.13431 4.48053 "/>
<path d="M16139972.39757 -4551640.44234l5.75522 -49.17112 6.01125 -51.3406 "/>
<path d="M16140836.62643 -4551172.84012l37.02486 4.18468 "/>
<path d="M16139167.30161 -4551964.62933l2.90544 0.46493 5.10956 0.80306 6.01125 0.94395 "/>
<path d="M16139167.30161 -4551964.62933l-5.62163 -0.77488 -9.52895 -0.73261 -5.65503 2.09922 -3.15034 1.84563 -4.54184 4.6352 -16.98735 -2.1274 "/>
<path d="M16140553.04003 -4551922.58844l11.32119 -93.63373 "/>
<path d="M16139745.08316 -4551497.19666l4.77561 -10.29933 9.25065 -31.01064 "/>
<path d="M16139332.02106 -4551125.1319l65.80095 8.46802 "/>
<path d="M16139367.59877 -4551396.31625l-0.31169 2.40931 -27.0729 206.30071 -8.19311 62.47433 "/>
<path d="M16139986.01194 -4550914.45791l-11.47704 83.18866 "/>
<path d="M16140073.42 -4550788.57563l-55.62635 -7.56651 2.18186 -19.85325 "/>
<path d="M16139920.93456 -4550923.40516l-12.14496 100.16737 -22.93182 -2.87442 "/>
<path d="M16139847.10748 -4550779.16328l0.66792 -5.32615 8.47141 -67.42206 13.36947 1.91627 5.73295 6.69287 16.24151 2.86032 "/>
<path d="M16140103.36495 -4550849.22025l-21.60711 -2.7476 -44.5278 -6.45333 -4.23014 28.4905 "/>
<path d="M16139759.42112 -4550625.831l16.68679 -132.88717 1.0464 -9.42646 3.25053 -20.05057 0.61226 -5.15706 15.30643 -129.58793 2.04828 -17.30269 "/>
<path d="M16140046.95936 -4550581.69929l17.05415 -134.33905 1.43602 -11.30052 "/>
<path d="M16139777.93355 -4550646.95271l14.80549 -0.61998 72.6137 -70.79056 36.22336 -32.18249 "/>
<path d="M16140014.63218 -4550584.2215l-149.27944 -134.14175 -32.86151 -33.52108 -29.15457 -3.97349 "/>
<path d="M16139477.37092 -4551700.02532l-3.02789 -0.45085 -66.66924 -8.59435 -63.63022 -8.79159 "/>
<path d="M16140501.46571 -4550896.972l3.86279 -29.02575 "/>
<path d="M16140480.14803 -4550736.73716l11.07629 -83.28805 10.24139 -76.9468 "/>
<path d="M16140476.66373 -4550710.57124l3.4843 -26.16591 "/>
<path d="M16140466.58931 -4550638.68157l10.07441 -71.88967 "/>
<path d="M16140574.53582 -4551242.92261l3.41751 -25.0374 "/>
<path d="M16140565.42989 -4551191.86135l3.7292 -17.62631 "/>
<path d="M16140569.15909 -4551209.48766l5.37673 -33.43496 "/>
<path d="M16140547.6633 -4551124.24424l10.75346 -37.46492 7.01313 -30.15219 "/>
<path d="M16140541.24016 -4551104.53248l6.42313 -19.71176 "/>
<path d="M16140505.3285 -4550925.99775l6.83502 -47.77958 4.40825 -29.19461 7.20237 -41.69236 7.91482 -30.15253 9.55121 -29.71565 "/>
<path d="M16140723.82639 -4552502.63628l-13.39173 102.12451 -10.79799 82.38784 "/>
<path d="M16140688.89434 -4552320.05403l24.33444 -184.38552 "/>
<path d="M16140673.74375 -4551996.24442l1.38036 -14.00416 "/>
<path d="M16140676.34863 -4552197.93628l10.36384 -75.62639 "/>
<path d="M16140686.71247 -4552273.56267l5.6105 -40.96876 "/>
<path d="M16140634.96004 -4551698.30645l4.38599 -32.7712 6.14484 -45.8316 16.53094 -123.48931 "/>
<path d="M16140650.52251 -4551760.21378l-24.03388 183.91967 "/>
<path d="M16140615.44574 -4551577.63259l24.47916 -183.77876 "/>
<path d="M16140577.95333 -4551267.96001l9.57348 -74.54825 10.15234 -75.08312 7.90368 -60.16191 9.26178 -68.07976 "/>
<path d="M16140614.84461 -4551545.83307l3.88505 -31.9545 "/>
<path d="M16140632.38856 -4551678.32808l2.57148 -19.97837 "/>
<path d="M16140662.02181 -4551900.39856l3.88505 -27.3182 "/>
<path d="M16140676.20391 -4552105.37491l-0.90169 -77.48674 "/>
<path d="M16140675.12411 -4552010.24858l2.56035 -51.74759 -0.44528 -21.04836 "/>
<path d="M16140692.32298 -4552314.53143l11.75534 -88.57256 8.18198 -61.64955 8.02614 -60.43762 9.31744 -70.15792 4.09656 -30.8806 3.74033 -28.21792 23.10993 -174.06749 "/>
<path d="M16140755.6749 -4552751.34309l12.22288 -44.48879 "/>
<path d="M16140733.70043 -4552626.22969l-1.8479 50.37826 "/>
<path d="M16140767.89778 -4552795.83188l3.69581 -31.18994 "/>
<path d="M16140707.64054 -4551499.0001l42.76895 5.39623 47.11041 5.94572 77.02196 9.36945 "/>
<path d="M16140750.40949 -4551493.60387l-3.15034 27.58704 "/>
<path d="M16139509.43093 -4551574.84291l-8.0484 58.7806 "/>
<path d="M16139661.30412 -4551552.69456l-6.15597 48.27005 "/>
<path d="M16139283.44124 -4551825.33301l-6.94634 50.00173 "/>
<path d="M16139352.22555 -4551778.36042l-53.32204 -6.97405 "/>
<path d="M16139198.74937 -4552269.68838l5.15409 -39.46133 "/>
<path d="M16138982.28862 -4552510.44104l6.86841 -53.22434 "/>
<path d="M16139706.08795 -4552412.85299l-10.05215 78.21762 "/>
<path d="M16139390.73096 -4551993.14491l104.91862 14.8495 "/>
<path d="M16139381.24654 -4552005.06394l6.65691 -47.60556 10.51969 -75.38794 15.61812 -111.84816 10.4195 -74.55538 10.49743 -75.23108 8.09293 -57.91629 "/>
<path d="M16139376.7381 -4551985.10025l-2.9611 -1.77518 -2.20413 -2.64868 -1.21338 -3.22631 -0.08906 -3.45173 0.89056 -2.95863 1.72545 -2.56414 2.4045 -1.94424 2.87204 -1.14118 3.08355 -0.2536 3.31732 0.80306 2.87204 1.83153 2.11507 2.66276 1.14659 3.21222 0.0334 3.40947 -0.87942 2.86001 -1.66979 2.4937 -2.31545 1.91606 -2.77186 1.15527 -2.98336 0.32404 -3.37298 -0.70444 "/>
<path d="M16139003.19442 -4552101.06381l66.2017 7.80506 10.75346 -77.92357 "/>
<path d="M16139170.20705 -4551964.1644l-4.33033 28.27614 "/>
<path d="M16139034.89821 -4552039.24304l-5.85541 48.56366 20.60524 2.53597 "/>
<path d="M16140530.07482 -4551679.93424l-6.57898 53.66562 -6.52332 52.89099 "/>
<path d="M16139365.11635 -4550088.17791l-29.31042 -98.46942 -18.51243 -76.79648 -14.9836 -92.83139 -15.017 -87.37742 -8.21538 -47.75362 -16.72019 -96.29565 -16.41962 -76.42717 -30.75758 -139.59367 -3.77373 -2.67716 "/>
<path d="M16139184.31123 -4550820.3211l2.6494 -3.46621 3.5177 -2.57852 4.10769 -1.46539 4.35259 -0.25363 4.2524 1.00041 4.48618 2.73352 3.28392 4.08618 1.70319 4.95978 0.04453 4.55117 -1.30244 4.3539 -2.17073 3.35349 -2.97223 2.69125 -3.56222 1.81765 -3.91845 0.83133 -4.14109 -0.25363 -3.92958 -1.36676 -3.41751 -2.36717 -2.54922 -3.0576 -1.66979 -3.60712 -0.67905 -3.9171 0.35622 -3.95937 1.55847 -4.08619 "/>
<path d="M16139198.78276 -4550797.70616l-16.29717 125.95415 -38.2939 286.13956 -23.02087 171.71288 "/>
<path d="M16139212.6643 -4550815.30495l5.38786 2.49398 80.55078 24.68624 28.50892 17.31704 23.47728 19.78288 67.32603 62.4065 4.97598 11.23011 "/>
<path d="M16138937.05951 -4550739.51297l4.35259 -6.1575 62.78419 -37.74809 100.81093 -39.00199 24.80198 -0.35226 7.74784 -3.94528 41.49991 -17.44375 0.87942 -7.25648 2.79412 -17.97914 "/>
<path d="M16139105.00722 -4550822.42055l-27.47365 -4.59343 -93.89799 -19.1064 -37.32543 -12.08943 -4.47504 -3.14212 "/>
<path d="M16138932.45088 -4550883.65676l2.20413 5.25565 7.18011 17.04917 13.72569 18.66958 48.63549 59.26381 49.90453 49.86584 39.4071 35.97288 21.79636 16.88038 "/>
<path d="M16138912.43564 -4550458.75795l67.61546 -89.67334 33.90792 -23.72864 33.71867 -48.3871 26.83913 -22.84078 30.0006 -25.37701 10.78686 -11.93464 25.98197 -36.57882 33.28453 -56.58702 12.72382 -27.82841 "/>
<path d="M16139425.49604 -4550633.31308l-9.55121 -4.9176 -3.25053 -4.41034 -1.6364 -5.07259 1.49168 -13.87916 6.23389 -13.21689 4.10769 -2.57856 7.01313 -0.77498 6.43427 0.4509 3.19487 3.28308 2.86091 2.47993 1.50281 6.17164 -0.33396 13.66779 -1.64753 7.00299 -4.77561 6.42528 -2.1596 2.39539 -3.50656 2.11358 -5.97786 0.85952 "/>
<path d="M16139218.05217 -4550812.81097l91.48236 19.38827 31.94869 3.88893 42.99159 2.08537 50.61697 -1.04268 5.82201 1.04268 "/>
<path d="M16139456.28701 -4550780.43141l-7.01313 4.77663 -10.00762 36.28272 -2.9277 61.65978 "/>
<path d="M16139449.27388 -4550775.65478l-3.7292 -2.69126 -3.29506 -4.91753 -1.33583 -4.18483 1.76998 -2.9167 "/>
<path d="M16139442.68377 -4550790.3651l0.91282 -0.22545 9.10593 -2.83216 2.69393 0.60588 4.20788 2.52217 -0.63452 3.59304 -2.6828 6.2702 "/>
<path d="M16140198.53198 -4550559.1261l8.66066 -60.77277 -14.33795 -17.61319 -59.71177 -8.65159 8.96122 -71.97416 "/>
<path d="M16139350.56689 -4552751.41353l44.87289 5.67734 8.20425 0.88752 "/>
<path d="M16139395.43978 -4552745.7362l-3.33958 28.90797 "/>
<path d="M16138952.98933 -4552353.76718l82.51001 10.29849 "/>
<path d="M16138966.68163 -4552458.20259l83.03321 8.12882 "/>
<path d="M16139087.10705 -4552726.87277l21.39561 -111.78537 12.47891 -83.01765 5.74409 -41.52971 6.83502 -47.00951 6.89068 -48.7843 5.07617 -39.12025 "/>
<path d="M16140412.66615 -4551212.0379l17.76659 10.27144 5.49918 3.15611 1.6364 10.29963 -3.32845 7.8762 -2.33771 5.55138 -5.14296 0.59177 -19.46978 2.25437 "/>
<path d="M16140434.23987 -4551180.43452l18.11168 13.92073 2.01488 10.14468 -0.5232 6.87584 -0.74584 8.94706 -1.5696 4.0297 -3.65128 2.16984 -3.88505 -0.22544 -17.68867 -2.60662 -4.85353 -4.32559 -6.34521 -3.50837 -11.26553 -1.32445 "/>
<path d="M16139567.6399 -4551310.7503l-10.00762 69.87069 -11.03176 76.97243 "/>
<path d="M16140752.86965 -4551120.84858l42.93593 5.45279 5.07617 -41.05786 33.65188 3.02932 "/>
<path d="M16140888.51245 -4551574.87109l-43.33668 -5.70615 -35.76695 -4.73399 "/>
<path d="M16140845.17577 -4551580.57724l14.71644 -121.54735 16.28604 -134.46547 "/>
<path d="M16140809.40882 -4551585.31123l-46.92117 -5.5089 15.22851 -120.63144 16.41962 -134.95846 46.36457 5.7201 "/>
<path d="M16140720.90982 -4551795.98573l28.82062 5.56514 6.1671 3.52224 "/>
<path d="M16140840.50035 -4551840.68994l35.6779 4.09987 43.1363 4.97339 "/>
<path d="M16140888.51245 -4551574.87109l33.44038 3.98726 14.61625 -122.30827 16.04114 -134.26834 "/>
<path d="M16140919.31455 -4551831.61667l33.29566 4.15623 47.15494 6.64998 "/>
<path d="M16139460.4281 -4551581.95799l2.21526 0.29587 46.78758 6.8192 39.97483 5.50891 57.31841 8.65082 54.57995 7.98863 45.5742 6.55153 52.23111 7.63641 42.83574 6.22748 "/>
<path d="M16140960.63634 -4551521.41627l49.55944 7.15739 14.23776 1.93024 25.49216 1.14124 33.13981 2.39519 7.7701 1.49347 5.71069 4.95946 "/>
<path d="M16141049.92571 -4551511.1874l33.13981 -221.53867 "/>
<path d="M16141010.19578 -4551514.25888l33.46264 -223.55333 "/>
<path d="M16140660.65258 -4551556.99179l52.91015 6.26974 11.0095 1.31031 79.32627 9.41166 76.62121 8.86218 2.6828 0.53539 77.43384 9.18625 "/>
<path d="M16140171.55927 -4552455.92033l5.86654 -44.96904 6.67917 -51.16755 "/>
<path d="M16140177.4258 -4552500.88937l117.49772 14.41205 "/>
<path d="M16140477.3873 -4551577.78757l39.58521 4.40994 14.83889 1.56391 71.51164 8.55219 42.40159 4.48039 14.92794 1.78934 "/>
<path d="M16140404.91831 -4550733.08774l-11.97798 2.9449 -27.22875 -2.46582 -5.8888 1.45131 -4.26354 1.54995 -5.77748 6.38296 -6.57898 9.87739 "/>
<path d="M16139745.10543 -4550792.99999l19.04676 2.60671 16.25265 2.19809 17.1766 2.42354 10.59762 1.43721 "/>
<path d="M16140523.49584 -4551626.26862l52.0196 5.84702 13.73683 1.54981 "/>
<path d="M16140589.25226 -4551618.87178l2.6494 -22.71178 5.07617 -46.28285 "/>
<path d="M16140591.90166 -4551641.58357l-14.03739 -1.49345 2.10394 -23.10622 "/>
<path d="M16139040.20815 -4551452.91366l-1.50281 11.32791 -0.26717 2.04297 -0.28943 2.15569 -28.85401 217.69845 -13.73683 103.85607 "/>
<path d="M16138921.15195 -4550880.34557l13.50305 1.94445 244.40194 34.23927 24.90217 3.40984 271.97578 37.21245 8.71632 1.19768 "/>
<path d="M16140860.15937 -4550677.58547l-2.31545 15.82363 -5.59937 38.32625 -5.98899 40.90497 -6.08918 41.68012 -5.97786 40.82075 -4.95372 33.91643 -8.33783 56.99732 -2.10394 14.41495 -6.9686 47.65542 -11.51044 78.66997 -1.90356 11.44193 -5.75522 40.94868 -7.75897 53.05316 "/>
<path d="M16141031.37988 -4552005.64158l-250.9364 -30.68511 "/>
<path d="M16140694.01503 -4552185.90475l-0.25603 5.07184 -1.99262 39.70132 90.04634 11.73573 8.44915 1.0989 178.89042 20.13251 70.25373 8.52357 "/>
<path d="M16140741.57072 -4551675.53843l-16.99849 126.12668 "/>
<path d="M16139741.8883 -4552159.05215l3.21713 -27.5852 7.15784 -10.14367 9.79612 -76.89435 0.73471 -5.74803 "/>
<path d="M16140346.94312 -4550733.18638l6.75709 -3.57896 8.95009 -2.76172 30.82437 3.05762 11.44364 3.3817 "/>
<path d="M16140381.2184 -4550978.9343l98.35077 12.10338 "/>
<path d="M16140098.645 -4550744.99413l114.33625 15.65444 3.43977 0.39453 "/>
<path d="M16140039.59001 -4550752.44795l14.03739 1.98674 14.53833 1.85993 21.44013 2.39537 9.03914 1.21177 "/>
<path d="M16139581.08729 -4552180.64976l4.14109 -30.20559 "/>
<path d="M16140210.03128 -4550709.93717l2.94997 -19.40252 "/>
<path d="M16140264.845 -4551805.45351l0.13358 -10.67942 3.65128 -29.48811 "/>
<path d="M16140378.88069 -4551801.31136l-113.9021 -14.82158 "/>
<path d="M16140527.53673 -4552067.65979l8.69405 1.01438 121.59428 14.7226 1.69206 1.49339 -4.5641 45.22459 "/>
<path d="M16140068.42176 -4552140.21584l-7.93708 8.81941 -2.76072 8.70671 0.92395 9.38296 7.26916 11.18631 "/>
<path d="M16140142.83884 -4552135.21442l-9.81838 19.66758 6.1337 16.76537 "/>
<path d="M16140069.62401 -4552149.41562l-36.7243 -4.07157 -6.03352 -3.74754 -6.92407 -1.43702 -7.79236 0.3663 -22.98747 2.4514 -25.44764 15.7932 -9.618 1.25388 -21.22863 -2.47958 -48.19021 -5.62131 "/>
<path d="M16140057.72395 -4552122.68972l16.78698 1.80333 58.50952 5.33955 15.32869 1.45112 27.01724 0.01409 17.82225 4.25474 26.0265 2.4655 "/>
<path d="M16140281.00859 -4551978.71806l-1.36923 9.58034 -1.3247 9.32675 "/>
<path d="M16139920.42249 -4552007.7267l2.21526 -10.60877 3.89618 -32.24891 -15.15058 -1.46522 "/>
<path d="M16140480.58217 -4551886.01386l-3.88505 -17.80829 -3.97411 -18.85083 -2.41563 -7.7911 -2.61601 -2.90229 -6.31182 -3.29677 -8.09293 -0.94395 -18.64601 -2.11332 -23.52181 -2.47962 "/>
<path d="M16140375.67468 -4551947.48332l-97.36003 -12.32766 "/>
<path d="M16140608.62185 -4551788.4904l16.13019 -9.46779 6.89068 -35.46187 12.44552 -77.39014 "/>
<path d="M16140731.18461 -4550942.28594l1.39149 -11.92024 "/>
<path d="M16141016.35175 -4550933.22599l-1.19112 13.73789 "/>
<path d="M16140949.90515 -4550712.67072l0.02226 -34.80332 43.60384 -29.57569 "/>
<path d="M16141002.96002 -4550847.00808l-9.42876 69.95835 131.3236 18.52883 "/>
<path d="M16140949.92741 -4550747.47404l-23.28804 -15.2317 -40.95444 -4.46665 -4.17448 -7.1579 -8.21538 -0.09863 "/>
<path d="M16140949.92741 -4550747.47404l48.31266 2.9308 15.5402 0.94406 34.36433 31.95706 "/>
<path d="M16139386.48969 -4550025.0065l1.0798 -8.56755 0.5566 -4.42469 17.12094 -135.55791 0.94622 -7.4965 17.9447 -142.06607 1.69206 -13.41459 0.71244 -5.63638 18.49017 -150.33514 1.5696 -8.52489 16.90943 -133.8751 0.56773 -4.4667 2.07054 -16.40137 1.59187 -12.611 16.90943 -133.95749 0.97961 -8.20056 "/>
<path d="M16139308.9 -4552442.25488l2.90544 -23.4003 "/>
<path d="M16139311.80544 -4552465.65518l15.80737 -115.88776 14.7053 -111.9419 8.24877 -57.92869 7.05766 -54.30785 11.0095 -82.63755 7.38048 -73.18426 "/>
<path d="M16140873.29507 -4550774.42892l-0.74584 17.86658 -8.36009 59.5602 -4.02977 19.41667 "/>
<path d="M16140878.88331 -4550815.6713l-1.31357 9.72231 -4.27467 31.52007 "/>
<path d="M16140454.26624 -4552661.13931l-5.75522 46.08129 "/>
<path d="M16140886.58662 -4552252.90917l2.98336 -20.61124 "/>
<path d="M16140593.30429 -4552571.55461l19.01337 2.29633 44.51666 5.09983 "/>
<path d="M16140595.642 -4552768.05106l15.2619 -74.18532 5.20975 -35.07795 2.21526 -13.65078 "/>
<path d="M16140350.72799 -4552627.79344l-5.37673 46.78583 "/>
<path d="M16140561.14409 -4552647.4037l-106.87784 -13.73561 -100.64395 -12.9185 "/>
<path d="M16140547.15123 -4552403.44211l8.98348 -61.57911 12.07816 -89.98008 2.33771 -19.46952 1.99262 -15.53896 3.57336 -27.7672 "/>
<path d="M16140584.55458 -4552680.91856l16.8649 -17.00393 5.22088 -5.39561 4.0409 -4.11362 "/>
<path d="M16140561.14409 -4552647.4037l6.23389 -10.25593 3.50656 -8.22727 2.90544 -4.32495 10.76459 -10.70671 "/>
<path d="M16141054.96848 -4552242.35699l21.09504 2.4232 75.16292 8.36849 47.80059 6.73425 105.6088 11.79199 17.4215 2.05691 "/>
<path d="M16140535.8523 -4552306.74062l7.68104 -65.7357 3.61788 -30.96579 "/>
<path d="M16140693.66994 -4552438.16934l1.49168 -5.52253 1.79224 -4.78995 0.90169 -5.95926 10.4529 -65.84747 2.38224 -23.28742 0.70131 -22.44209 "/>
<path d="M16140681.948 -4552318.98332l9.03914 -71.27227 -3.88505 -0.5917 6.56785 -47.32204 "/>
<path d="M16141054.96848 -4552242.35699l-12.14496 -1.50745 -49.86 -6.15661 -187.22825 -23.14714 -42.74668 -5.28312 "/>
<path d="M16140539.53697 -4552159.70022l9.87404 1.29614 99.82019 13.25727 -5.19862 45.49186 "/>
<path d="M16140626.26599 -4552829.26174l-0.45641 3.55007 -15.12832 118.27996 -15.35096 120.04229 -2.02601 15.83481 -2.42676 18.92009 -6.25616 48.91346 -8.23764 64.42468 -8.70518 68.03165 -6.02238 47.15328 -2.59374 20.24484 "/>
<path d="M16140531.52197 -4552097.3867l-3.98524 29.72691 -6.25616 46.54884 -14.51606 108.10289 -11.63289 86.64655 -8.33783 62.13236 -1.45829 10.89081 -9.01688 67.12034 -14.51606 106.47201 -40.94331 305.91057 -6.53445 50.06074 -1.65866 11.73676 -5.37673 40.00091 -3.4509 25.69985 -1.92583 14.39984 -20.69429 153.00301 "/>
<path d="M16140523.95225 -4551909.47176l-0.30056 2.69096 -7.64765 -1.05666 "/>
<path d="M16140516.00403 -4551907.83746l2.1262 -15.44133 11.93345 -96.71914 6.1671 -46.64747 6.4454 -44.61851 6.73483 -47.14016 6.71257 -44.05458 13.67003 -100.06956 "/>
<path d="M16140965.14478 -4552060.92543l2.05941 -2.05694 18.67941 -13.17284 "/>
<path d="M16140995.82444 -4552057.2624l-0.42301 -2.43733 -9.51782 -16.45549 -14.28229 -24.69727 -2.44903 -7.31196 "/>
<path d="M16140972.05772 -4552103.61384l22.7871 38.78586 3.7292 -36.32036 -26.5163 -2.4655 "/>
<path d="M16139765.03162 -4550769.84955l-52.62072 -7.28471 -23.32143 -4.33983 -33.5183 -5.22752 -52.98808 -7.8765 -67.98281 -8.56691 "/>
<path d="M16140343.20279 -4550713.34706l-5.14296 44.3427 -0.73471 5.36848 -4.99825 33.29591 -21.78522 160.84485 "/>
<path d="M16139507.77227 -4550980.17422l3.52883 -27.85604 0.60113 -4.76243 3.206 -25.34793 "/>
<path d="M16140841.99203 -4552503.80559l4.23014 13.05959 5.58824 10.41106 3.79599 6.72 3.66241 3.81786 7.2469 7.59347 5.78861 5.63523 13.36947 9.5799 11.67741 5.70568 12.84627 5.14216 13.05778 4.39549 9.9297 1.85963 10.06328 1.69057 6.91294 0.54944 13.85928 0.63397 13.48079 -1.4229 15.10605 -1.98642 9.69593 -2.90215 13.58098 -4.9731 10.92044 -6.02971 8.39349 -5.45209 6.27842 -4.52227 6.9686 -6.28328 5.66616 -6.87498 6.86841 -8.35422 7.46954 -14.03169 2.98336 -13.73582 1.49168 -8.66412 0.60113 -14.91918 -1.79224 -13.14408 -4.77561 -13.12997 -6.56785 -12.24242 -7.7701 -9.86154 -7.4918 -8.64998 -9.00575 -7.90331 -10.35271 -7.42432 -10.04102 -6.70583 "/>
<path d="M16141093.79672 -4552509.87752l-20.8724 -2.36678 "/>
<path d="M16140811.112 -4552502.56584l-0.97961 14.27117 0.12245 14.24301 0.73471 8.08654 0.63452 13.48228 4.19674 9.97437 6.34521 6.56505 7.42501 3.53611 11.79987 1.1834 8.96122 -1.00026 6.85728 -4.81813 7.25803 -9.21361 7.83689 -10.31248 "/>
<path d="M16141099.20685 -4552542.68843l-2.39337 17.01827 -3.01676 15.79264 -2.66054 19.44146 -3.87392 14.91923 -6.27842 16.72253 -6.85728 14.32758 -10.75346 12.24256 -10.75346 9.56583 -9.25065 8.65011 -9.55121 8.36835 -3.28392 -6.26922 "/>
<path d="M16141006.04356 -4552401.15983l9.26178 -0.90164 7.75897 -2.39499 7.46954 -7.45263 7.75897 -7.46671 7.45841 -9.56583 6.57898 -10.43929 -10.85365 -14.91929 "/>
<path d="M16141009.02693 -4552409.82404l-6.7237 -23.49899 "/>
<path d="M16141015.72836 -4552606.22493l11.76647 -39.26283 "/>
<path d="M16141027.49483 -4552645.48775l1.40263 -10.80535 "/>
<path d="M16140792.38807 -4552498.53667l6.79049 -2.40905 11.93345 -1.62012 20.31581 -4.39546 "/>
<path d="M16140656.83432 -4552564.15845l1.30244 -7.87515 53.25524 6.01554 8.05953 -1.282 "/>
<path d="M16140719.45154 -4552567.30006l22.94295 1.9864 "/>
<path d="M16140742.39448 -4552565.31366l45.06213 13.51033 5.24315 0.74666 6.57898 0.94389 "/>
<path d="M16139389.79588 -4551054.80908l-1.06867 6.01642 -0.95735 4.93149 -1.34697 14.03364 -0.64565 4.80469 -3.7292 27.58828 "/>
<path d="M16139575.53245 -4552429.54741l-16.64226 122.5673 -11.61062 85.50211 -4.8424 35.6437 -10.26366 75.55659 -5.399 39.8143 -4.88693 34.12264 -4.65315 36.08108 -3.09468 24.458 -12.01137 86.81509 -12.27854 90.07037 -2.03715 15.30063 -10.44177 83.59029 -16.94283 118.06733 -23.63313 174.0179 -1.48055 7.96057 -2.33771 12.53967 "/>
<path d="M16140362.42767 -4550909.90678l2.63827 -18.71173 264.85133 -2014.48427 "/>
<path d="M16139383.63991 -4551026.24866l4.12995 -17.6125 1.0798 -4.83286 36.79109 -282.26077 5.04277 -38.78859 2.29318 -17.69646 243.1663 -1757.89991 "/>
<path d="M16139383.63991 -4551026.24866l-844.88154 -114.25528 -176.46366 -23.8541 -20.60524 -2.78978 "/>
<path d="M16143041.59838 -4550572.54038l-447.33737 -79.06221 -142.65593 -25.20791 -219.93392 -24.64423 -1093.75852 -127.57417 -59.99007 -7.00287 -3.75147 -0.50725 -67.5598 -9.00368 -522.54482 -69.69018 -49.15869 -2.56441 -23.8669 1.49356 -38.19372 4.32568 -10.4195 2.07125 "/>
<path d="M16140112.24824 -4549023.93571l250.17942 -1885.97107 "/>
<path d="M16140677.23919 -4552083.04453l-1.03527 -22.33038 "/>
<path d="M16140675.30223 -4552182.86165l1.0464 -15.07463 "/>
<path d="M16140665.90686 -4551927.71676l7.83689 -68.52766 "/>
<path d="M16140762.98859 -4552278.45132l-9.41763 -1.16933 -45.56307 -5.67759 -5.13183 -0.64806 -10.15234 -1.26795 -10.68667 -1.33839 -11.811 -1.46518 -92.35065 -11.51014 -8.0818 -1.00027 -10.7312 -1.33839 "/>
<path d="M16139306.79607 -4551917.91096l0.35622 -3.49402 "/>
<path d="M16139289.79758 -4551919.65797l0.37849 -3.76171 "/>
<path d="M16139301.43047 -4551918.46042l0.36735 -3.57856 "/>
<path d="M16139284.36519 -4551920.20744l0.38962 -3.84624 "/>
<path d="M16139295.80883 -4551919.03807l0.36735 -3.66309 "/>
<path d="M16139281.76031 -4551948.35682l4.5307 -4.07165 31.78171 3.19815 -0.63452 3.84623 "/>
<path d="M16139278.87714 -4551924.74403l-0.40075 3.93077 5.8888 0.60582 5.43239 0.54946 6.01125 0.61991 5.62163 0.57764 5.3656 0.54946 7.43614 0.7608 0.34509 -3.38131 "/>
<path d="M16140568.54683 -4552698.66914l8.10406 -23.90688 8.96122 -89.5834 2.38224 -22.38516 3.28392 -19.70848 0.60113 -18.51101 -2.21526 -5.39552 "/>
<path d="M16140572.5432 -4552590.00977l-17.91131 -3.55015 "/>
<path d="M16140461.37956 -4551936.66314l13.87041 -112.01928 -1.55847 -10.66509 -1.81451 -6.24125 1.72545 -7.94597 0.77924 -5.97356 6.75709 -47.57705 7.69218 -11.34125 6.90181 -4.31108 3.55109 -1.15526 16.08567 -5.2691 "/>
<path d="M16140279.63936 -4551969.13773l17.10981 -0.23951 18.80186 -0.60582 18.51243 -1.19754 13.14683 0 5.96672 0.90168 15.52907 3.57854 22.98747 4.48022 19.40299 6.56536 23.54407 15.93439 "/>
<path d="M16140165.90424 -4551818.00677l-23.64426 198.4587 -41.7782 305.27536 -6.38974 46.72129 -7.63652 55.82348 -33.10642 241.85356 "/>
<path d="M16140107.09415 -4551825.4739l18.5013 -154.77983 "/>
<path d="M16139947.69577 -4552279.64882l-3.36185 24.35873 "/>
<path d="M16139160.77829 -4552323.71698l2.1262 -16.32828 "/>
<path d="M16140233.30819 -4552218.78712l15.76284 -124.62522 "/>
<path d="M16140672.91999 -4551823.93821l20.68316 1.25392 5.15409 3.35317 -0.70131 20.06267 -2.57148 17.11811 -27.30667 0.07044 4.74221 -41.8583 "/>
<path d="M16139984.16404 -4551740.95407l29.22137 -208.33261 1.95922 -1.73292 31.77058 3.77579 "/>
<path d="M16140504.78303 -4552184.3832l-4.39712 -0.64807 "/>
<path d="M16140770.61397 -4551944.35561l134.72998 17.68142 "/>
<path d="M16140881.3546 -4550863.33867l-0.16698 -2.19808 -0.70131 -9.0741 5.94446 -48.06162 15.51794 -125.37342 18.4679 -163.79476 7.46954 -56.42934 32.75019 -253.14628 "/>
<path d="M16139803.45911 -4552386.04323l12.90193 1.88782 "/>
<path d="M16139634.17556 -4552210.23546l2.01488 0.26768 37.63712 5.24089 "/>
<path d="M16139595.92618 -4552189.45504l7.7367 0.85939 "/>
<path d="M16139620.66137 -4552191.54013l-0.57886 5.32543 -8.95009 -1.19752 "/>
<path d="M16139583.44726 -4551991.42608l6.71257 -47.70425 "/>
<path d="M16139639.88625 -4552250.82409l-39.20672 -5.25495 -0.96848 6.91738 "/>
<path d="M16139900.01763 -4552260.89726l-15.33983 113.98939 -0.93508 6.90336 -6.73483 48.45048 -2.56035 20.6116 -2.39337 17.17401 -5.25428 38.85649 -8.02614 60.46876 -26.0265 193.3277 -6.95747 51.735 -6.74596 50.05865 "/>
<path d="M16138953.93554 -4552144.24515l54.12354 6.7343 "/>
<path d="M16139229.41789 -4551947.11701l-2.31545 18.00546 -21.32881 -2.77549 "/>
<path d="M16139086.69517 -4552044.04727l-1.66979 10.49604 "/>
<path d="M16139165.26447 -4551937.15625l-37.0026 -4.80427 1.79224 -15.07498 "/>
<path d="M16139070.1197 -4552035.24187l16.57547 -8.8054 5.69956 -3.15585 5.81088 -3.2263 9.78498 -10.31287 6.97973 -10.43966 12.0893 1.80334 "/>
<path d="M16139131.90201 -4551970.95518l-1.24678 10.04527 "/>
<path d="M16139161.67998 -4551965.40421l-1.16885 9.52399 -9.80725 1.85972 -5.29881 -0.19724 -6.60125 -3.33903 "/>
<path d="M16140296.59332 -4550937.38258l42.858 5.48106 15.03926 1.91626 "/>
<path d="M16140348.52386 -4550885.13624l-15.44001 3.19848 -17.04301 2.80395 -23.00974 2.14171 -34.54244 -0.02818 -16.87603 -2.11353 -76.54328 -10.72265 -35.04338 -4.81885 -15.017 -2.05717 -5.19862 -0.7186 -21.66277 -2.97303 -4.64202 -0.63406 -97.49361 -13.39975 -65.07737 -8.94725 -91.23745 -12.52614 -10.43064 -1.43719 -20.89467 -2.87439 -61.79345 -8.48225 -13.02438 -1.78944 -181.47303 -24.93947 -16.57547 -2.56439 "/>
<path d="M16140354.49059 -4550929.98526l10.57535 1.36674 9.38423 1.22584 "/>
<path d="M16140354.49059 -4550929.98526l6.42313 -53.89466 "/>
<path d="M16140296.59332 -4550937.38258l26.89479 -3.81843 11.0095 -5.10062 9.85177 -10.15897 16.56434 -27.41931 "/>
<path d="M16140559.06241 -4552303.86661l-13.56985 99.68916 -5.95559 44.47723 -4.79787 38.13758 -1.36923 10.10148 -1.39149 9.00258 -0.45641 5.07188 "/>
<path d="M16140360.91372 -4550983.87991l11.57723 -87.31579 8.30443 -62.53102 11.68855 -88.13174 7.18011 -55.35847 39.62974 -305.13556 6.52332 -41.59141 17.35471 -130.83151 2.05941 -15.51201 15.35096 -115.72644 24.53482 -183.71695 4.60863 -34.47474 "/>
<path d="M16138994.38905 -4551107.39273l83.01094 11.04649 48.09002 6.45318 131.20115 17.38698 133.10472 17.69699 108.41405 14.41405 16.8983 2.2544 "/>
<path d="M16139941.92942 -4551644.20415l-17.05415 119.35009 "/>
<path d="M16139308.43246 -4551454.78756l-65.26662 -8.67909 "/>
<path d="M16139274.16832 -4551690.69833l25.72593 3.32503 "/>
<path d="M16140509.72562 -4552104.20556l1.00188 -9.28435 4.64202 -35.67212 4.35259 -33.50238 11.52157 -88.63004 2.27092 -17.49769 2.33771 -17.94848 "/>
<path d="M16140767.89778 -4552795.83188l-17.16547 119.28053 -11.34346 83.45633 -5.67729 28.35896 -9.0948 42.19343 "/>
<path d="M16140326.17091 -4550717.27829l20.77222 -15.90808 "/>
<path d="M16140343.20279 -4550713.34706l-9.15046 11.89233 -4.01863 3.18444 -5.95559 3.04354 "/>
<path d="M16139998.91387 -4552995.73323l2.80525 9.84706 -12.37873 93.16012 -15.48454 116.53233 -12.82401 96.52898 -12.95759 97.53011 -2.81638 19.68082 -5.81088 9.39665 "/>
<path d="M16139939.447 -4552553.05716l-1.45829 -9.79112 2.49356 -20.27251 13.04664 -97.55828 12.90193 -96.4867 15.5736 -116.49006 12.79061 -95.59723 4.11882 -6.48018 "/>
<path d="M16139939.447 -4552553.05716l-9.05027 66.5094 -7.14671 53.05567 -5.43239 40.39068 -0.96848 7.19905 "/>
<path d="M16140039.36737 -4552886.38668l-6.6903 46.95372 -4.08543 28.68231 -5.84427 40.9809 "/>
<path d="M16140028.59164 -4552810.75066l52.09752 6.62117 "/>
<path d="M16140342.96902 -4550843.20371l-3.94071 -11.39901 -7.15784 -6.56605 -41.27727 -8.91912 -32.10454 -6.93239 "/>
<path d="M16139559.21301 -4551994.61013l3.4843 -24.71155 1.43602 -10.22837 "/>
<path d="M16139562.69731 -4552019.32168l-11.69968 -1.56384 "/>
<path d="M16141142.56579 -4552125.95826l-7.26916 -6.32574 -8.25991 -4.08567 "/>
<path d="M16139575.53245 -4552429.54741l2.21526 0.29585 35.49979 4.53637 50.17169 6.4101 42.66876 5.45211 86.77354 11.10146 38.62786 4.93085 41.13255 5.25488 27.98572 3.59248 16.24151 2.07096 "/>
<path d="M16139432.97671 -4551387.43985l-15.16171 -2.00071 -12.66816 -1.66256 -37.54806 -5.21312 -65.93453 -8.46779 -130.35512 -17.25962 -65.51152 -8.60867 -37.92655 -5.01585 -29.43287 -3.8746 -63.5523 -8.39731 -56.21634 -7.42513 -97.91662 -19.11934 -28.431 -3.57871 -3.85165 -0.50722 -52.97695 -7.12923 -66.12378 -8.72133 -51.52979 -6.66427 -134.50734 -17.58352 -77.07762 -10.48247 -5.95559 -0.83127 "/>
<path d="M16140575.5043 -4550904.52434l62.83985 8.52456 3.42864 0.63406 82.64359 10.94808 70.97731 9.7927 8.0818 1.05677 63.50777 8.34141 14.37135 1.88809 3.77373 0.50725 60.70252 8.15825 57.12916 7.6651 3.18374 0.46498 68.02734 10.00409 63.74154 7.51012 86.52864 11.77948 175.37273 23.54491 11.13195 1.33858 85.02583 10.46912 90.26898 11.07502 71.11089 8.76421 27.48478 3.3676 98.43983 12.11773 6.02238 0.7327 62.42797 7.482 48.40171 6.07297 36.73543 4.57938 92.7514 11.77959 16.36397 1.64858 70.14241 8.62335 29.55532 3.62125 126.31423 16.18994 9.50668 0.42271 "/>
<path d="M16140362.09371 -4550912.14712l10.21913 -2.02898 38.52768 -4.38204 24.05614 -1.50765 49.24774 1.90217 14.83889 1.16948 23.63313 3.31119 9.25065 1.23993 17.84451 2.39533 20.04864 2.69122 68.85111 9.24316 8.73858 1.16949 77.35591 10.38447 71.03297 9.53907 5.24315 0.70451 5.03164 0.67633 49.32567 6.63649 3.91845 0.52134 5.26541 0.70451 16.66453 2.24035 64.93266 8.72186 57.12916 7.66509 3.16147 0.42271 6.7237 0.90178 69.14054 9.28548 55.89352 7.51011 11.52157 1.54993 75.0182 10.07455 157.72859 21.17773 17.65527 2.36717 18.96884 2.3249 76.1648 9.37007 91.29311 11.21592 71.09976 8.75011 27.55157 3.46623 82.28737 10.03235 16.08567 1.98674 6.02238 0.7327 62.40571 7.67926 8.0484 0.98633 47.34418 5.81934 29.77796 3.66351 9.50668 1.1695 83.27811 10.22965 2.9277 0.36635 13.39173 1.64858 58.35368 7.17203 11.78873 1.45132 153.0643 18.81076 12.3008 1.52177 10.4863 1.29632 6.36747 0.77498 55.70427 6.81979 18.31206 2.14175 21.41787 1.4795 19.48091 0.84543 6.54559 0.35226 17.6664 1.66268 25.30292 3.18445 12.64589 1.59223 2.38224 0.30999 116.19528 15.40093 "/>
<path d="M16138541.94211 -4552571.13198l7.66991 1.05659 42.07877 5.80423 11.48817 1.59194 49.63736 6.84674 157.32784 21.70954 68.67299 9.48121 12.56797 1.73282 36.42374 5.02941 3.85165 0.52126 32.9617 4.50816 9.06141 1.22566 4.45278 0.60578 2.84978 0.39446 75.43009 10.27016 "/>
<path d="M16139752.66402 -4553579.51055l-6.12257 7.53631 -6.1337 9.6493 -4.96485 10.21277 -3.4843 10.21278 -3.27279 11.2552 -2.17073 11.91729 -1.90356 10.50864 -13.29155 97.64913 -7.75897 57.00937 -22.70918 166.7616 -3.09468 22.77884 -6.38974 46.9243 -24.1118 176.64067 -16.15246 119.10982 -10.49743 77.1298 -2.41563 17.73641 -13.61437 100.02322 -10.92044 80.16015 -1.85904 13.66532 -11.48817 84.48591 -2.56035 18.89214 -16.64226 122.5673 -16.45302 121.14581 -13.89267 102.32486 -1.76998 13.04603 -9.54008 70.20372 -28.07478 206.73954 -1.34697 9.90455 -25.30292 186.30034 -2.08167 15.35728 -23.67766 174.29969 -2.25979 5.67807 -1.39149 1.70483 -2.34884 2.86017 -3.78486 2.90244 "/>
<path d="M16139426.73169 -4551397.88019l3.16147 -2.4234 2.98336 -3.63509 1.81451 -4.55091 39.652 -291.98659 9.94083 -73.22079 1.39149 -10.21452 2.08167 -15.31472 12.23401 -90.05628 11.78873 -86.84327 8.20425 -60.45455 3.64015 -26.7543 1.01301 -7.42469 5.399 -39.80021 15.10605 -111.21437 25.70367 -189.26175 2.54922 -18.80765 14.09305 -103.36396 1.85904 -13.67941 14.95021 -109.81502 12.3008 -90.31652 3.11695 -22.90655 11.62175 -83.42674 10.86478 -80.63676 1.76998 -13.14356 11.03176 -81.87571 9.79612 -72.07038 2.24865 -16.55245 6.40087 -46.99473 46.85437 -344.18484 4.07429 -22.36958 3.46204 -12.01588 3.61788 -10.55086 5.18749 -10.69172 6.40087 -10.0719 1.59187 -1.95803 "/>
<path d="M16139644.07186 -4552932.73443l-10.76459 79.63655 -4.39712 31.45752 -7.07992 52.01148 -5.83314 42.85472 -9.58461 70.36835 -4.02977 29.64078 -10.89818 80.00518 -1.8813 13.83438 -14.07078 103.37805 "/>
<path d="M16142614.3987 -4550644.58551l-20.32694 -2.71947 -118.92261 -15.8941 -12.63476 -1.59223 -23.622 -2.98719 -17.28792 -1.70495 -9.03914 -0.50726 -18.7462 -0.83134 -21.57372 -1.4795 -18.42338 -2.15584 -53.13279 -6.5098 -2.58261 -0.30999 -16.88717 -1.84585 -12.3008 -1.52177 -114.13587 -14.0341 -9.38423 -1.15542 -29.54419 -3.62125 -70.14241 -8.62335 -13.39173 -1.64858 -86.20581 -10.596 -39.28465 -4.83301 -6.99086 -0.85952 -40.35332 -4.95982 -56.40559 -6.93248 -14.04852 -1.73312 -6.02238 -0.7327 -98.58454 -12.13182 -27.34007 -3.35351 -71.09976 -8.75012 -91.29311 -11.21592 -73.27049 -9.11645 -3.21713 -0.30999 -10.26366 -1.23995 -7.78123 -0.95814 -175.62876 -23.55901 -75.43009 -10.13092 -67.41508 -9.06005 -69.1294 -9.28549 -9.88517 -1.32448 -57.14029 -7.6651 -3.17261 -0.42271 -46.28664 -6.22789 -9.52895 -1.28221 -4.99825 -0.66224 -81.15191 -10.90584 -76.27612 -10.24359 -77.34478 -10.38448 -5.26541 -0.70451 -3.47317 -0.46498 -69.35204 -9.31361 -5.41013 -0.73269 -25.65914 -3.438 -6.32295 -0.84541 -9.25065 -1.23994 -10.90931 -1.53583 -12.17835 -1.70491 -14.97247 -1.25402 -49.0585 -1.64855 -23.67766 1.47947 -38.03787 4.31159 -11.73307 2.32488 "/>
<path d="M16140246.48842 -4550913.1757l-29.67778 0.60588 "/>
<path d="M16140506.27471 -4550896.3943l-10.58648 77.11588 -11.54383 84.07711 "/>
<path d="M16139495.64958 -4551978.2954l16.13019 2.16966 2.35997 0.32404 "/>
<path d="M16140090.8415 -4552305.89532l-22.98747 -3.1276 "/>
<path d="M16140552.32758 -4551858.18835l8.20425 -63.2589 "/>
<path d="M16140706.56074 -4552317.12367l10.67554 -82.76822 -6.80162 -0.61988 "/>
<path d="M16139971.67399 -4551596.17404l2.69393 -26.07915 "/>
<path d="M16140016.16839 -4551591.20054l11.64402 1.49346 "/>
<path d="M16139988.32738 -4551571.50375l-35.45526 -3.87455 "/>
<path d="M16139955.62172 -4551642.51345l-11.06516 81.70346 37.32543 5.07214 3.28392 -0.59175 1.73658 -1.98659 "/>
<path d="M16139990.78755 -4551594.18746l25.38084 2.98692 2.6828 -24.78296 "/>
<path d="M16139990.78755 -4551594.18746l-19.11356 -1.98658 -15.51794 -1.60617 "/>
<path d="M16139988.32738 -4551571.50375l20.67203 2.39518 "/>
<path d="M16139986.90249 -4551558.31619l1.42489 -13.18757 2.46016 -22.68371 "/>
<path d="M16139954.09664 -4552138.80699l-6.23389 -7.48099 -3.58449 -4.776 -2.98336 -6.57932 -2.69393 -15.52549 -1.49168 -8.35445 -2.98336 -9.55196 -0.60113 -8.07267 0.90169 -12.24283 -1.79224 -12.83453 -11.34346 -20.89306 1.19112 -5.36766 "/>
<path d="M16139932.86801 -4552141.28656l8.42689 -16.35674 "/>
<path d="M16139910.83789 -4552146.28798l-4.18561 -14.03213 -0.58999 -7.17103 0.89056 -8.36855 "/>
<path d="M16139877.84279 -4552196.64014l-5.399 41.92724 -44.97307 -5.97352 "/>
<path d="M16139880.53672 -4552216.05398l4.76447 -29.1066 "/>
<path d="M16139885.3012 -4552245.16057l1.79224 -12.39775 -120.45882 -16.15932 "/>
<path d="M16139274.22398 -4550950.54275l4.85353 -43.35519 1.97035 -17.41529 "/>
<path d="M16139216.43804 -4550957.47509l38.66126 4.63565 19.12469 2.29669 14.99474 1.78944 "/>
<path d="M16139255.09929 -4550952.83944l4.86466 -43.08747 "/>
<path d="M16140495.13163 -4551826.36151l51.7747 5.83282 "/>
<path d="M16140089.60586 -4550746.2059l-2.89431 21.72741 "/>
<path d="M16140086.71155 -4550724.4785l-13.61437 101.91651 -7.94821 43.48356 "/>
<path d="M16139077.39999 -4551096.34624l3.06129 -26.72854 48.61322 6.8195 "/>
<path d="M16139254.10855 -4552046.04785l38.6056 4.63516 1.20225 -10.45376 "/>
<path d="M16140083.50555 -4550901.05815l4.20788 -28.98346 0.66792 -4.5793 4.27467 -29.46243 "/>
<path d="M16140115.00896 -4550896.73247l4.09656 -29.05393 0.63452 -4.5793 4.17448 -29.61744 "/>
<path d="M16139831.05521 -4552132.24174l18.75733 2.4514 "/>
<path d="M16139485.97592 -4551379.18339l1.53621 -10.34171 2.90544 -20.50023 "/>
<path d="M16139469.22233 -4551258.94261l9.01688 -64.51652 7.7367 -55.72426 "/>
<path d="M16139535.27932 -4551467.14398l-34.93206 -5.35398 -3.41751 23.00803 "/>
<path d="M16139538.97513 -4551493.8293l-26.26027 -3.52234 -6.37861 4.05774 -13.64777 -1.64846 "/>
<path d="M16139530.21428 -4551430.49735l-37.23637 -5.24128 "/>
<path d="M16139924.27415 -4552533.71439l-62.40571 -8.65001 5.07617 -39.12219 59.12178 7.46659 3.28392 4.47996 -5.07617 35.82565 "/>
<path d="M16142304.94165 -4554074.31722l27.47365 102.41898 -25.05802 100.85642 -22.41975 90.23634 -40.30879 72.2488 -71.22221 89.68837 -84.36904 106.22686 -144.15874 181.5221 -59.73404 75.22427 -120.03581 93.45353 -114.50323 -37.31671 -85.24847 -27.77966 -47.27739 -8.62126 -82.48774 -12.96005 -67.68225 -10.64977 -92.08348 -14.48141 -104.20618 -16.38313 -48.92492 -7.69147 -58.09764 -9.12833 -67.73791 -10.6638 -81.1853 -12.76273 -91.56028 -14.39679 -62.31665 -9.79037 -38.75031 -6.09961 -65.16643 -10.24114 -99.78679 -12.90353 -102.9594 -13.31204 -91.56028 -11.84699 -95.1225 -12.29776 -26.50517 -1.88763 -63.84173 -8.46614 -95.89061 -12.73442 -14.63851 -2.98639 -3.43977 26.29996 -12.82401 98.22751 -12.70155 97.32686 -11.19874 85.73404 -11.75534 90.04545 -12.11156 92.72284 -12.94646 99.18984 -4.99825 38.30407 -5.48805 42.00926 -5.75522 44.1085 -6.57898 50.34956 -5.18749 39.69941 -6.97973 53.50569 -22.93182 21.51224 -8.36009 7.4666 "/>
<path d="M16140691.83317 -4552495.78951l-38.81711 -4.88854 6.7237 -53.30891 1.83677 -14.5951 38.81711 4.9026 -8.56047 67.88996 "/>
<path d="M16140669.27984 -4552546.50626l78.89212 -28.65486 "/>
<path d="M16140748.17196 -4552575.16112l5.07617 -90.4722 10.86478 -76.97541 10.63101 -75.31251 7.92595 -110.07982 20.9058 -105.69751 14.03739 -83.90359 6.40087 -19.49664 39.70766 4.77555 22.69804 -23.8918 5.96672 -48.65683 11.811 -96.35506 24.02275 -9.64954 14.32682 2.62017 5.54371 -31.48422 4.90919 -31.63908 10.54196 -67.78564 11.76647 -75.70189 13.39173 -86.13947 28.9542 -30.45503 23.43275 -22.77782 12.97985 -98.63289 8.38236 -63.71223 9.69593 -87.70053 -30.99135 -69.93733 -34.5981 -83.44526 -29.06552 -70.1335 -1.5696 -14.70558 47.75606 -20.36804 55.39258 -23.60772 59.67838 -25.4388 17.4549 -7.45133 -4.47504 -24.7767 4.23014 -44.07392 12.49005 -78.93538 10.89818 -67.258 24.81311 -153.0649 12.06703 -74.38363 13.14683 -81.11572 10.53082 -64.91748 11.86666 -73.21302 2.72733 -16.81723 -44.72817 -9.39454 "/>
<path d="M16139920.9457 -4552540.44844l6.57898 0.80301 -4.35259 32.12061 -5.58824 41.16524 -6.47879 47.73046 -6.412 47.26577 -8.67179 63.97467 -7.79236 57.38171 -6.57898 48.49223 -6.64577 48.97147 -6.70143 49.42253 -7.85916 57.9323 -6.79049 50.05703 -8.30443 61.15923 -7.66991 56.52435 -8.82764 65.06256 -9.47329 69.83915 -10.208 75.20758 -8.015 59.07595 -7.33595 54.10276 -7.31369 53.86352 -4.82013 41.18331 -8.18198 54.62485 -8.68292 64.02288 28.93194 -18.18964 46.83211 5.74854 45.09553 5.52311 52.67638 6.46712 55.1922 6.77709 56.96218 6.98844 41.255 5.05817 60.43535 7.42523 39.11767 4.79047 67.5598 8.29879 65.16643 7.98883 -4.77561 -25.37543 9.84064 0.61994 "/>
<path d="M16140325.1913 -4551352.4696l58.32028 7.86198 -7.2135 53.49828 -58.32028 -7.86202 7.2135 -53.49824 "/>
<path d="M16140960.63634 -4551521.41627l19.12469 -166.5206 8.05953 -58.52602 11.94458 -74.34758 7.75897 -44.1969 17.58848 -92.91572 6.26729 -47.71849 3.84052 -47.42241 0.60113 -10.1438 3.58449 -36.43308 4.47504 -46.28081 5.37673 -42.998 3.18374 -29.71247 0.85716 -7.55138 1.66979 -16.17346 "/>
<path d="M16141193.70596 -4550277.64757l16.94283 8.04598 26.77234 12.69603 33.7632 4.57959 30.12305 4.08641 8.95009 -18.21973 5.8888 -40.06075 6.12257 -41.58242 5.71069 -38.8909 5.91106 -40.18711 6.53445 -44.40009 4.68655 -31.91553 6.24502 -42.49752 11.87779 -80.75327 -15.94095 9.15886 -38.51654 3.579 -48.26813 -7.59481 -49.80434 -7.83435 -50.51678 -7.94707 -51.80809 -8.14433 -51.52979 -8.10205 -54.06788 -8.51067 -54.69127 -8.5952 -54.3907 -11.75146 -36.446 -7.86248 5.44352 -37.36785 4.74221 -32.60517 6.7237 -46.15996 16.59774 -66.99921 7.8035 -64.85708 4.18561 -53.7678 7.16898 -59.72759 5.3656 -47.17314 4.18561 -32.25176 4.77561 -41.1987 5.37673 -42.39616 -26.78347 -6.97443 -42.70216 -5.3541 -34.60923 -4.32555 -29.33269 -3.67742 -41.18821 -5.15684 -35.75582 -4.46644 -50.78395 -6.36855 -39.76332 -4.97367 -34.94319 -4.36781 -40.33105 -5.0582 -48.76907 -6.10083 -56.97332 -7.12938 -79.76042 -9.98957 -3.58449 -18.20382 "/>
<path d="M16139721.41664 -4551579.3233l2.46016 -16.55487 1.55847 -10.52466 "/>
<path d="M16139631.53728 -4552527.21984l3.36185 -25.14701 "/>
<path d="M16139643.24809 -4552525.62789l-7.43614 53.22453 "/>
<path d="M16139651.94215 -4552470.36059l-16.13019 -2.04277 -16.72019 -2.1273 "/>
<path d="M16140436.47739 -4551728.76704l-30.91342 -4.01538 0.60113 -4.77619 "/>
<path d="M16139556.09607 -4551617.73056l-39.57408 -5.91747 -1.31357 9.08754 "/>
<path d="M16139255.98985 -4552533.62987l7.01313 -56.43626 "/>
<path d="M16139266.96595 -4552767.00858l6.412 -48.75726 "/>
<path d="M16138962.76318 -4551771.28774l106.79992 14.06083 "/>
<path d="M16139387.65854 -4552523.02162l6.05578 -49.815 "/>
<path d="M16139142.37718 -4552757.55576l31.45889 4.40944 -4.67542 37.24788 "/>
<path d="M16138982.08824 -4551734.55764l-19.32506 -36.7301 -12.16722 -1.52161 "/>
<path d="M16138871.29195 -4551574.4625l67.11452 -7.96043 18.91318 -1.35257 68.89563 6.76285 0.02226 -5.24121 "/>
<path d="M16138982.11051 -4551461.94499l-17.1432 -32.22246 -1.97035 -47.46701 -5.73295 -36.92803 0.05566 -5.21303 "/>
<path d="M16138879.45167 -4551749.21025l12.79061 2.07109 54.27938 8.76338 35.56658 3.81813 20.49392 29.50252 12.80174 17.82272 "/>
<path d="M16141456.62034 -4547952.22746l-95.44533 -14.05188 -48.13455 362.24026 -64.877 27.2168 -94.89987 35.74418 -48.71341 14.12293 -52.25337 10.74021 -52.5094 2.60753 -56.47238 -4.98955 -44.4944 -10.14823 -57.61897 -19.71854 -69.57468 -28.65453 -91.35991 -31.9526 -64.49851 -21.79029 -96.14664 -26.5824 -48.02323 -18.90081 -44.19384 -22.08614 -42.99159 -27.1742 -35.57771 -29.17554 -38.51654 -37.02604 -44.19384 -50.16183 -77.92364 -93.14898 -103.05958 -130.97657 -53.38883 -72.07658 -37.40335 -59.57485 69.64147 -480.5467 21.45127 -171.9919 17.95583 -143.90222 16.13019 -153.48317 502.21788 -3719.72763 19.826 -130.70318 27.58497 -155.39631 71.42259 -516.49188 20.41599 -141.17327 1.68092 -43.94898 3.91845 -51.1468 23.15445 -143.56468 12.37873 -72.00697 8.36009 -26.57991 9.80725 -24.39655 6.26729 -21.79064 1.20225 -22.39628 -4.44165 -22.18494 -10.44177 -20.6073 -13.48079 -17.22672 -26.238 -25.46675 -3.25053 -25.88926 -0.96848 -7.76113 99.13001 -122.41664 56.08276 -395.86168 13.9372 -98.39616 -399.13603 -55.04285 -46.25325 -65.69047 -10.86478 -13.81692 -8.605 -9.88732 -7.81463 -8.23943 -8.71632 -8.87323 -30.3123 -28.42244 -2.6494 -2.3521 -51.12904 -48.61936 -76.12027 -73.87227 -9.60687 -10.40827 -7.04652 -9.56321 -5.69956 -9.85897 -4.06316 -10.47866 -3.07242 -9.85895 -4.35259 -16.77427 -26.29366 -104.79986 -40.79859 -126.3049 -3.18374 -9.87279 95.54552 -605.94022 -56.57257 -9.33705 -133.12698 -21.94133 -107.87972 -17.7868 -22.20824 3.40808 -43.91554 7.7738 -66.63585 23.72986 -127.61666 -11.28049 -78.65835 47.98089 "/>
<path d="M16140995.36803 -4551259.60483l29.06552 -252.72381 "/>
<path d="M16139600.5682 -4551515.65372l-57.61897 -6.98831 "/>
<path d="M16139182.75276 -4550816.23491l-52.94355 -6.5379 "/>
<path d="M16140039.87944 -4551632.14381l41.22161 5.45252 61.15893 7.14323 38.53881 4.66353 59.48914 7.41093 102.18016 13.32842 "/>
<path d="M16139836.13138 -4552431.66063l48.03436 6.08606 "/>
<path d="M16140290.5932 -4550870.08789l-8.5716 60.01044 -12.60137 -1.76129 "/>
<path d="M16140257.9098 -4550723.32308l0.71244 -5.49526 2.17073 -16.66895 3.49543 -26.85625 1.72545 -13.2872 3.15034 -24.27762 "/>
<path d="M16140374.45017 -4550927.39267l-2.13733 13.21657 -0.77924 4.80475 -3.06129 18.96539 "/>
<path d="M16140348.52386 -4550885.13624l2.69393 -20.21942 0.63452 -4.76248 2.63827 -19.86712 "/>
<path d="M16140368.47231 -4550890.40597l-19.94845 5.26973 "/>
<path d="M16139952.78307 -4551875.82762l39.99709 5.10017 "/>
<path d="M16139958.34905 -4551915.58631l40.39784 5.14242 "/>
<path d="M16140171.55927 -4552455.92033l-8.66066 47.77278 0.60113 2.93033 -2.39337 17.6102 "/>
<path d="M16140114.76406 -4552404.25922l30.22324 3.2121 17.91131 -7.10043 "/>
<path d="M16140115.99971 -4552412.5994l-19.3362 -2.83171 -49.39246 -6.77639 "/>
<path d="M16140206.17963 -4552451.53893l-6.9686 50.19596 "/>
<path d="M16140584.62137 -4552503.72106l68.02734 8.31193 -8.05953 63.88938 "/>
<path d="M16140609.95768 -4551661.50565l1.42489 -14.48364 "/>
<path d="M16140600.49553 -4551600.83758l4.809 -39.77383 7.20237 0.84535 -4.97598 40.4783 -3.77373 -0.33814 "/>
<path d="M16140603.75719 -4551599.62591l-1.20225 9.4257 "/>
<path d="M16140603.75719 -4551599.62591l6.36747 -58.13202 "/>
<path d="M16140520.16738 -4551534.4489l-2.51582 21.07765 "/>
<path d="M16140443.89127 -4551554.94884l-35.83374 254.38535 "/>
<path d="M16140877.56974 -4550805.94899l38.93956 7.94694 30.08966 9.6096 15.76284 2.53626 "/>
<path d="M16140638.35529 -4551640.03376l-4.48618 36.26561 5.97786 0.90171 4.92032 -42.09854 1.79224 -16.56886 "/>
<path d="M16140633.86911 -4551603.76814l-1.49168 11.94767 "/>
<path d="M16140646.55953 -4551661.53382l1.49168 -11.20087 "/>
<path d="M16141151.22644 -4552231.56529l-34.34206 5.62127 -28.9542 1.49337 -21.20636 0.90166 -5.37673 1.19751 -8.90556 3.71934 "/>
<path d="M16139446.31278 -4551896.20009l5.0873 -43.99934 "/>
<path d="M16139435.12517 -4551897.63715l-1.06867 8.00246 -2.97223 21.35871 23.622 3.26862 "/>
<path d="M16139427.03225 -4551837.46358l-36.46827 -4.59298 "/>
<path d="M16139466.60633 -4552625.7507l-17.75546 -2.23997 -23.17672 -2.91618 "/>
<path d="M16139302.49913 -4552762.0779l6.08918 -49.29261 "/>
<path d="M16140572.5432 -4552590.00977l22.7871 2.62035 "/>
<path d="M16140470.16267 -4551920.55966l-9.10593 -0.19724 "/>
<path d="M16140618.72966 -4551577.78757l10.59762 -76.72986 3.06129 -23.81066 "/>
<path d="M16140362.42767 -4550909.90678l-11.38798 2.25443 -29.63325 3.24074 -19.46978 0.5777 -9.31744 -1.07085 -55.15881 -5.80515 -510.95646 -69.0416 -342.86403 -46.49714 "/>
<path d="M16140358.29771 -4550778.58557l-3.58449 26.57443 "/>
<path d="M16139507.77227 -4550980.17422l-72.74729 -9.98986 -52.97695 -7.27047 -101.00017 -13.87869 -57.21822 -7.86224 -267.91262 -36.81716 -10.1746 -1.39491 -16.76472 -2.31075 -139.21616 -19.12007 -38.26051 -5.25555 -12.90193 -1.77533 "/>
<path d="M16140310.84221 -4550695.889l-100.81093 -14.04818 -67.92715 -8.20063 -19.81487 -2.38128 "/>
<path d="M16139515.10823 -4551038.14063l11.29893 1.45127 6.59011 -0.08454 102.23582 14.14637 47.07701 5.77691 48.5353 6.58004 59.42234 6.86185 16.72019 1.93034 21.58485 2.86028 124.41066 15.28771 100.36565 13.45603 39.30691 5.79103 31.25851 4.10022 28.31968 3.62116 42.32367 5.56559 73.12577 9.62355 28.90967 3.79024 "/>
<path d="M16139730.8454 -4551010.27058l-3.26166 26.71474 -0.57886 4.72017 -3.4509 28.32109 "/>
<path d="M16140324.0781 -4550695.22674l2.09281 -22.05155 "/>
<path d="M16140014.65444 -4552720.73053l5.6439 -49.36325 "/>
<path d="M16141096.54631 -4551502.33928l5.28768 -15.18833 15.45115 -88.33983 0.8015 -5.33982 2.13733 -13.10297 "/>
<path d="M16140979.76103 -4551687.93686l-6.83502 -0.60583 -36.35695 -4.64941 -33.40698 -3.80406 -43.26989 -5.12843 -35.81148 -3.64908 -46.36457 -5.6779 "/>
<path d="M16139602.58308 -4550794.57811l2.4045 -17.26063 "/>
<path d="M16139655.57116 -4550786.70161l2.93883 -18.07789 "/>
<path d="M16139689.08946 -4550781.47409l2.24865 -18.78241 "/>
<path d="M16139348.00654 -4550828.36665l3.02789 -18.10599 "/>
<path d="M16139050.04879 -4550868.3407l2.61601 -18.72589 "/>
<path d="M16140241.61262 -4550879.13381l-1.75885 16.95054 -6.18936 45.35656 "/>
<path d="M16140219.64929 -4550728.55063l0.53433 -5.25572 7.74784 -56.44602 -1.81451 -5.11479 -34.55357 -5.62204 "/>
<path d="M16139511.31223 -4550866.79078l59.53366 7.48191 4.63089 -34.11241 19.80374 2.19807 5.72182 8.58093 -7.33595 63.74429 -0.61226 5.32613 "/>
<path d="M16139501.89461 -4550935.18452l-59.14405 -7.17188 "/>
<path d="M16141287.84886 -4550608.51369l-79.92739 -13.03378 -12.10043 -1.76132 -156.60426 -22.82668 -103.81656 -14.8655 -38.80597 -7.87659 -24.46802 -6.45345 -11.96685 -2.25448 -9.47329 -1.57813 -232.4351 -28.85727 -111.08572 -13.21683 -48.66888 -5.74889 -53.57807 -6.10115 "/>
<path d="M16139923.25001 -4552433.49208l35.59997 4.2687 -3.86279 32.68447 "/>
<path d="M16139958.4381 -4552396.05992l-1.8479 -0.25359 -1.603 -0.22541 -1.82564 -0.25359 "/>
<path d="M16139956.5902 -4552396.31351l-0.37849 2.60631 "/>
<path d="M16139790.67963 -4551448.50367l52.04186 7.46741 17.27678 3.12786 7.68104 -8.18597 40.63161 5.38217 "/>
<path d="M16139849.67896 -4551488.46124l-6.95747 47.42498 -4.5307 30.44735 "/>
<path d="M16139827.00318 -4551386.834l79.17042 11.22936 "/>
<path d="M16140471.87699 -4552065.58876l-38.90616 -9.08715 "/>
<path d="M16140432.97083 -4552074.67591l-31.05814 15.52564 -22.68691 11.6372 -18.21187 13.1447 -24.18973 11.63723 -21.19523 14.63813 -17.62188 11.3414 -11.04289 17.01916 -5.95559 1.01439 "/>
<path d="M16140279.26087 -4550962.12482l20.30468 3.63525 7.97048 0.7186 12.69042 1.08494 "/>
<path d="M16140333.64044 -4550998.36449l21.75183 -97.89721 "/>
<path d="M16140458.48525 -4550907.69463l-34.50904 5.32609 -35.66676 7.42553 -19.83713 4.53704 "/>
<path d="M16140577.86428 -4551643.07702l-2.34884 22.65542 "/>
<path d="M16139164.97503 -4552355.97903l-53.19958 -7.29769 "/>
<path d="M16139863.79427 -4552639.28911l-77.20007 -11.55201 -25.77046 -3.95867 "/>
<path d="M16139656.907 -4552721.19542l2.14847 -17.17291 2.61601 -20.94838 "/>
<path d="M16139020.60479 -4552231.66391l-75.15179 -9.89004 "/>
<path d="M16140269.42023 -4550811.83874l-35.75582 -4.98797 -39.24012 -5.46703 -2.86091 21.30454 "/>
<path d="M16139051.67406 -4551447.67239l8.05953 0.90172 "/>
<path d="M16140253.66852 -4551721.14485l50.83961 6.35417 "/>
<path d="M16139144.81507 -4551225.26818l26.49404 -196.77548 20.22675 -150.29136 21.94107 -162.96934 6.75709 -50.21326 6.34521 -47.08528 5.71069 -42.44983 6.45653 -47.94429 10.57535 -77.79805 "/>
<path d="M16139149.08974 -4551222.91519l1.3247 2.09937 0.5566 2.40935 -0.25603 2.46571 -1.06867 2.22618 -1.50281 1.57805 -1.89243 1.08491 -2.1262 0.47905 -2.17073 -0.16908 -2.32658 -0.9581 -1.8813 -1.70486 -1.19112 -2.22618 -0.37849 -2.49389 0.48981 -2.4798 1.29131 -2.16982 1.94809 -1.62032 2.38224 -0.85947 2.52695 -0.01409 2.33771 0.81721 1.93696 1.53578 "/>
<path d="M16139136.98931 -4551174.37591l-86.74015 -11.07459 "/>
<path d="M16139499.92425 -4551170.31804l-6.79049 53.37236 "/>
<path d="M16139505.28985 -4551115.45215l-12.15609 -1.49353 -8.41575 -1.04265 "/>
<path d="M16139557.63227 -4551240.8796l-38.23825 -5.28364 -11.19874 -1.54987 -5.47692 42.53693 "/>
<path d="M16139519.39403 -4551246.16325l3.29506 -25.07966 "/>
<path d="M16140486.7938 -4551764.22914l117.46433 13.49728 "/>
<path d="M16141145.84971 -4551325.29078l-15.017 -1.78938 -27.68516 -3.29697 "/>
<path d="M16140773.25225 -4551288.23505l76.39857 9.72187 58.28689 7.15756 "/>
<path d="M16140773.25225 -4551288.23505l-7.29143 56.44332 -13.09117 110.94315 -20.29354 166.64239 "/>
<path d="M16140742.55033 -4551285.14941l2.28205 -18.68287 18.17847 2.21207 0.95735 -7.90428 7.84802 0.95809 -4.2858 35.12551 -8.47141 -1.02855 1.0464 -8.53834 -17.55508 -2.14163 "/>
<path d="M16139434.9582 -4552389.69207l43.05838 5.38168 14.15984 4.71954 19.826 2.52178 "/>
<path d="M16139424.46077 -4552314.46099l76.72139 10.07312 "/>
<path d="M16139691.1934 -4552173.80277l3.07242 -23.30228 "/>
<path d="M16139694.26582 -4552197.10506l0.58999 -4.11382 "/>
<path d="M16139745.10543 -4552186.63735l-26.28253 -3.1699 "/>
<path d="M16139764.50842 -4552168.43507l7.85916 1.23979 31.44776 3.64891 "/>
<path d="M16140350.39403 -4551593.39846l28.48666 -207.9129 "/>
<path d="M16140310.31901 -4551289.71446l40.07502 -303.684 "/>
<path d="M16139704.09533 -4552110.93988l50.98433 6.90339 "/>
<path d="M16140342.46808 -4551594.14519l7.92595 0.74673 77.56742 9.73567 "/>
<path d="M16140427.96145 -4551583.66279l11.33232 1.3103 22.5088 2.60651 15.58473 1.95841 "/>
<path d="M16140493.74014 -4550909.75179l-13.00212 0.1409 -22.25277 1.91626 "/>
<path d="M16140493.74014 -4550920.12215l9.90743 -1.94444 7.46954 1.01449 40.86539 5.65015 5.26541 0.73269 3.69581 4.63566 "/>
<path d="M16140560.65428 -4550903.08714l-4.89806 2.74759 -5.399 -0.76087 -20.79448 -2.94485 -20.21562 -2.84622 -7.93708 -0.98631 -7.66991 -1.87399 "/>
<path d="M16140803.47549 -4550873.56817l2.53808 -2.07126 4.64202 -3.77618 3.17261 0.45089 43.70403 6.19969 2.53808 0.36635 4.45278 4.62159 2.46016 2.55033 "/>
<path d="M16140945.83085 -4550854.67317l-3.47317 1.77537 -4.809 2.4517 -3.21713 -0.40862 -43.48139 -5.53747 -4.30806 -4.01572 -1.41376 -2.42352 "/>
<path d="M16140560.94371 -4550910.0336l2.86091 0.39452 2.18186 0.42271 3.77373 1.8599 5.74409 2.83213 "/>
<path d="M16139447.64862 -4551835.23753l1.24678 -9.04508 -20.64977 -2.73325 "/>
<path d="M16141105.47413 -4550725.97208l113.56814 20.16341 "/>
<path d="M16140523.2732 -4550853.85594l2.13733 -17.04918 3.91845 -31.26616 0.23377 -1.87399 "/>
<path d="M16140518.9874 -4550819.68704l4.2858 -34.1689 "/>
<path d="M16140810.25484 -4552474.05167l5.9222 4.59271 7.33595 3.70516 10.61988 2.69082 7.20237 -0.69032 6.36747 -3.25434 7.90368 -6.6073 "/>
<path d="M16138799.17919 -4551109.46394l121.4273 16.47111 13.12457 1.77533 16.46415 2.2403 273.92387 37.14111 162.30382 22.00857 47.4221 6.43914 74.45048 10.10255 3.60675 0.49315 17.73319 2.39531 197.94832 26.84155 51.69677 7.01686 23.71105 3.21254 22.10805 3.01528 80.09437 10.84937 183.18735 24.84088 31.3587 4.25522 126.74837 17.18999 33.95244 4.60749 11.16534 1.28221 10.43064 1.19766 19.21374 -0.56361 29.45514 -3.24074 11.38798 -2.25443 "/>
<path d="M16140361.47032 -4550907.37055l-10.25253 2.01489 -29.65551 3.25483 -19.72581 0.5777 -9.48442 -1.08494 -12.47891 -1.42311 -26.49404 -3.59299 -7.50293 -1.01449 -29.06552 -3.93116 -97.70512 -13.21657 -31.3921 -4.25522 -183.14283 -24.77044 -78.39119 -10.60985 -23.84463 -3.22663 -54.7024 -7.39729 -20.6275 -2.78984 -197.98171 -26.7852 -17.72206 -2.4094 -3.65128 -0.49315 -121.87258 -16.49942 -49.47038 -6.69275 -112.84457 -15.25946 -255.89011 -34.61903 -18.07829 -2.45165 -16.50868 -2.22621 -13.08004 -1.77533 -161.02364 -21.78301 "/>
<path d="M16139429.18071 -4551394.21691l-5.06504 2.93062 -5.65503 1.7471 -0.64565 0.09863 -5.66616 0.92991 -7.28029 -0.43678 -37.58146 -4.95951 -65.91227 -8.72141 -133.01566 -17.56959 -62.83985 -8.2987 -29.13231 -3.84642 -8.80537 -1.15534 -29.43287 -3.88869 -63.54117 -8.39731 -56.22747 -7.42513 -97.78304 -19.16161 -12.90193 -1.5921 -15.64039 -2.07114 -3.85165 -0.50722 -52.96581 -6.98834 -66.15717 -8.74951 -46.32004 -6.11479 -203.92618 -27.33335 -8.77198 -0.01409 -6.90181 1.38075 -3.84052 2.29656 -4.97598 5.17079 -1.93696 7.56598 "/>
<path d="M16138384.51408 -4551510.34204l5.28768 -8.53815 2.83865 -2.86014 2.51582 -2.59244 4.79787 -2.88831 6.30068 -1.93024 3.43977 -0.69038 9.62914 0.25361 64.3538 8.21408 139.63917 18.7952 46.33117 6.11479 66.11265 8.73542 36.39034 4.79039 16.60887 2.19795 3.86279 0.49313 28.23062 3.62098 98.0836 19.20387 95.06685 12.56778 24.7018 3.26875 29.43287 3.8746 37.92655 5.01585 62.83985 8.2987 133.03792 17.56959 65.89001 8.70731 37.58146 4.9736 6.48993 0.22543 5.55484 -0.90173 4.88693 -1.50758 4.38599 -2.5502 "/>
<path d="M16139393.52508 -4552371.08159l10.23026 -81.89433 "/>
<path d="M16139819.04383 -4551659.32183l-1.46942 10.94728 -14.10418 106.88099 -1.52508 9.21442 -4.87579 36.26599 -6.38974 47.50948 -4.14109 30.7432 -8.77198 63.98053 -5.68843 48.98955 -3.78486 22.58571 -3.56222 26.40407 -33.88565 245.53003 "/>
<path d="M16140626.77806 -4551194.56659l-6.24502 46.70774 -1.50281 1.9444 -41.64462 -6.11499 "/>
<path d="M16140565.93083 -4551202.76684l-2.6828 -1.00037 -2.37111 0.2818 "/>
<path d="M16140560.87692 -4551203.48542l-7.2469 -0.94401 "/>
<path d="M16140553.63002 -4551204.42943l-139.30521 -19.34524 "/>
<path d="M16140017.79365 -4550796.14213l-0.87942 4.60754 -5.65503 35.31043 "/>
<path d="M16140702.87606 -4552285.9463l3.68468 -31.17738 "/>
<path d="M16140682.03706 -4552288.55263l3.62902 -19.31505 -4.79787 -1.04253 1.0798 -10.07311 "/>
<path d="M16140611.38257 -4551675.98928l3.21713 -15.1599 "/>
<path d="M16140560.65428 -4550903.08714l-4.65315 -0.61997 -54.21259 -7.22826 -8.0484 1.18357 "/>
<path d="M16140493.74014 -4550920.12215l9.31744 2.31079 53.85637 7.24234 4.02977 0.53543 "/>
<path d="M16139542.6932 -4551164.44258l-7.43614 45.59477 1.09093 5.88957 -9.94083 76.26888 "/>
<path d="M16139567.6399 -4551310.7503l7.68104 -54.85077 "/>
<path d="M16140834.46683 -4552813.46956l-5.18749 1.93 -3.35072 6.07176 -3.33958 19.99033 -9.08367 70.3116 -20.80561 164.10921 -28.46439 203.15019 -10.66441 68.28584 "/>
<path d="M16140834.46683 -4552813.46956l10.13007 -3.24015 25.9931 2.6062 171.82163 20.01849 9.33971 -5.64913 "/>
<path d="M16141124.85486 -4550758.5209l-0.62339 3.46623 4.99825 0.84542 "/>
<path d="M16140998.24007 -4550744.54324l-6.40087 -20.38878 1.69206 -12.11771 "/>
<path d="M16140292.05148 -4550456.68661l9.77385 -70.83413 3.78486 -25.94092 5.62163 -38.3265 6.15597 -47.2175 4.57523 -36.95941 2.11507 -19.26168 "/>
<path d="M16139115.30428 -4550680.69947l-54.44636 33.56358 -36.91354 21.82625 -36.41261 16.4296 -58.92141 19.10684 "/>
<path d="M16140346.94312 -4550733.18638l-3.74033 19.83931 "/>
<path d="M16140353.77814 -4550783.41856l-3.96297 28.81479 -2.87204 21.4174 "/>
<path d="M16140326.17091 -4550717.27829l12.21175 4.29758 4.82013 -0.36635 "/>
<path d="M16140404.91831 -4550733.08774l-28.47553 187.70003 "/>
<path d="M16140368.47231 -4550890.40597l-14.69417 106.98741 "/>
<path d="M16140326.17091 -4550717.27829l12.13382 -90.69971 3.00563 -22.69946 "/>
<path d="M16140381.2184 -4550978.9343l-2.48242 18.88072 -2.69393 20.5293 -1.59187 12.13161 "/>
<path d="M16139525.50547 -4550978.01844l-17.73319 -2.15578 "/>
<path d="M16140584.55458 -4552680.91856l11.08742 -87.1325 "/>
<path d="M16140576.11656 -4552617.77698l8.43802 -63.14158 "/>
<path d="M16140413.69029 -4551949.93477l-24.32331 -1.09892 -5.72182 3.29677 -1.25791 8.94637 "/>
<path d="M16139443.38508 -4550834.12958l30.95795 4.46662 13.52532 1.84583 18.13395 2.66306 "/>
<path d="M16140216.42102 -4550728.94516l3.22827 0.39453 38.26051 5.22755 29.82249 4.07213 23.67766 3.21262 14.76096 -1.23996 "/>
<path d="M16139196.67883 -4550867.50938l9.26178 1.25403 "/>
<path d="M16139181.53937 -4550869.55246l1.19112 0.15499 13.94833 1.88809 "/>
<path d="M16139056.41627 -4552500.35402l52.89902 7.22715 72.29088 9.69257 49.84887 6.97358 80.35041 10.80554 33.46264 4.70541 58.48726 7.97385 39.29578 5.36756 91.07048 12.41161 12.0559 1.64831 27.21762 3.70517 2.13733 0.29585 "/>
<path d="M16139056.41627 -4552500.35402l14.96134 -112.2668 7.60312 -57.05569 8.12632 -57.19626 "/>
<path d="M16139916.84914 -4552385.90235l14.61625 1.87373 32.97283 4.21236 134.26244 17.1735 9.69593 1.23976 25.21386 3.2262 36.30129 4.63502 40.30879 5.15629 38.8505 4.97314 38.19372 4.88862 38.79484 4.95906 33.98584 4.33918 44.02686 5.6353 33.66301 4.29692 43.37007 5.55078 36.6909 4.69139 3.85165 0.49309 14.20437 1.81739 "/>
<path d="M16139916.84914 -4552385.90235l-2.6828 19.89252 -4.46391 33.16367 -4.06316 30.20524 -5.62163 41.74367 "/>
<path d="M16139590.15983 -4552039.13033l4.12995 0.59172 2.17073 -15.75109 15.66265 2.15556 35.46639 4.73378 "/>
<path d="M16139074.01588 -4552081.36799l-0.16698 -6.49483 -4.45278 -5.39592 "/>
<path d="M16139092.39473 -4552047.20312l-8.51594 -8.425 -3.89618 -5.88904 -4.86466 -10.7496 -1.10206 -9.10123 "/>
<path d="M16139344.04357 -4551717.8621l-64.74342 -8.65069 -65.82321 -8.79157 "/>
<path d="M16139419.42913 -4552112.78548l1.72545 -12.29929 "/>
<path d="M16139411.71469 -4552059.26298l7.71444 -53.5225 "/>
<path d="M16139410.35659 -4552049.80951l1.3581 -9.45346 "/>
<path d="M16139532.99727 -4551036.7739l-1.66979 13.06144 -0.06679 0.53542 -1.09093 8.59491 -0.53433 4.18474 -0.61226 4.77652 -1.22451 9.59532 -0.65678 5.14287 -0.2783 2.19805 -0.58999 4.63563 -0.72358 5.69239 -0.99074 7.76364 -13.24702 103.80219 -3.79599 29.78678 -1.51395 11.84992 "/>
<path d="M16139485.63083 -4550810.54243l2.23752 -17.2747 0.53433 -4.98796 13.49192 -102.37943 4.02977 -30.88553 1.8479 -14.10417 "/>
<path d="M16139474.58793 -4550811.88101l-126.58139 -16.48564 -143.4129 -19.69819 -24.65727 -3.35348 -129.88758 -16.92238 -85.96091 -11.01855 "/>
<path d="M16138995.5579 -4551115.83258l-26.76121 -3.21249 -14.11531 -1.49353 -16.11906 -2.01485 -1.21338 7.58036 "/>
<path d="M16138995.5579 -4551115.83258l-1.16885 8.43985 "/>
<path d="M16138953.56819 -4551112.81734l13.9038 1.43717 26.91705 3.98744 "/>
<path d="M16139387.76986 -4551043.86116l22.25277 2.86027 12.31194 0.32407 12.5791 1.45127 6.61238 1.00039 21.45127 2.31076 10.86478 1.18356 12.91306 1.98669 14.37135 1.59217 3.80713 0.97221 14.88342 2.84618 4.47504 3.49432 3.75147 5.41057 2.1262 3.84658 "/>
<path d="M16139388.72721 -4551048.79266l22.83163 2.73346 12.25628 1.33855 11.93345 1.31037 6.32295 0.69041 10.09668 1.09902 9.86291 1.08493 13.44739 1.46536 12.84627 1.409 13.43626 1.46536 8.96122 1.49354 10.74233 2.69119 6.27842 2.69119 3.58449 5.60782 "/>
<path d="M16140324.0781 -4550695.22674l-13.23589 -0.66225 "/>
<path d="M16140056.82227 -4550728.57881l-24.55708 -3.35352 "/>
<path d="M16140122.28926 -4550720.51909l-23.18785 -2.53628 -12.38986 -1.42313 -21.26202 -2.86036 -8.62726 -1.23996 "/>
<path d="M16140032.26519 -4550731.93233l-130.68908 -18.61342 -77.56742 -10.99049 "/>
<path d="M16139824.00868 -4550761.53624l-14.26003 -1.94447 -15.51794 -2.12765 -17.07641 -2.53627 "/>
<path d="M16139777.15431 -4550768.14462l-12.12269 -1.70493 "/>
<path d="M16139808.17905 -4550784.33443l38.92843 5.17116 164.15172 22.93911 28.33081 3.77622 "/>
<path d="M16139515.27521 -4550824.12548l77.77893 10.55363 11.93345 1.73311 53.52241 7.05924 32.82812 4.52299 53.76731 7.25652 "/>
<path d="M16139506.00229 -4550825.15407l9.27291 1.02859 "/>
<path d="M16139534.60027 -4550803.14502l-17.95583 -2.95897 -12.70155 -1.73311 -18.31206 -2.70534 "/>
<path d="M16139218.63103 -4550864.66315l132.4034 18.1905 92.35065 12.34307 "/>
<path d="M16139485.63083 -4550810.54243l-11.04289 -1.33858 "/>
<path d="M16139205.94061 -4550866.25535l12.69042 1.5922 "/>
<path d="M16140112.32617 -4553041.81284l-3.97411 30.55536 -11.811 88.39834 -5.74409 42.99497 -6.27842 47.02419 -3.82939 28.7105 -5.51031 41.26268 -5.91106 44.23535 "/>
<path d="M16140952.04248 -4550904.98931l59.94555 8.38366 "/>
<path d="M16140886.43077 -4550922.67247l66.4466 9.07406 "/>
<path d="M16140527.53673 -4552067.65979l-22.41975 -2.07102 "/>
</g>
</svg>