<?xml version="1.0" encoding="UTF-8" standalone="no"?>
<svg xmlns="http://www.w3.org/2000/svg" xmlns:xlink="http://www.w3.org/1999/xlink" stroke="white" fill="none" stroke-width="0.1%" stroke-linecap="round" stroke-linejoin="round" width="1200" height="1200" viewBox="1.613761326637081E7 -4563691.881873293 2149.7914186622947 2149.791418659501" preserveAspectRatio="xMidYMid meet">
<g id="planet_osm_line" class="line">
<path d="M16139392.66792 -4562411.97579l57.83048 44.51249 57.04011 43.9062 54.46863 42.2844 51.58545 39.33677 44.13818 33.97728 54.23486 41.7348 53.0994 40.87459 45.56307 33.94945 "/>
<path d="M16138611.07151 -4564337.94545l8.34896 15.93464 13.94833 27.72351 15.86303 31.5169 10.46403 23.07015 6.55672 14.44002 8.66066 25.72133 4.38599 20.92683 36.37921 305.8835 11.66628 136.56534 13.05778 152.75675 19.10242 179.45539 14.05965 132.89065 12.66816 116.57512 22.10805 217.38661 "/>
<path d="M16139214.06693 -4561994.84005l-33.60735 -22.94819 -38.96182 -31.05826 -45.52967 -41.49549 -32.69453 -33.73788 -25.83725 -33.14539 -38.80597 -58.08175 -21.50693 -34.93634 -65.42246 -108.77158 -11.96685 -21.72033 -14.38248 -27.6722 -16.68679 -34.63951 -3.4509 -7.15073 -9.96309 -23.17285 "/>
<path d="M16139012.67884 -4562481.0008l57.6635 7.75718 76.12027 9.43556 77.07762 11.21267 54.51315 7.00969 65.70076 10.76136 8.15972 1.52323 "/>
<path d="M16138874.04155 -4562481.7342l3.53996 -5.54285 3.81826 -4.13246 6.30068 -4.35812 5.37673 -2.83489 5.85541 -1.96045 5.17636 -0.53595 3.26166 0.43722 2.98336 1.02959 4.19674 3.03235 "/>
<path d="M16138855.25082 -4562473.37055l-6.43427 -19.80195 -6.56785 -21.26872 -6.06691 -26.20504 -6.64577 -33.08765 -4.46391 -28.22173 -3.96297 -35.49919 -0.58999 -4.58372 "/>
<path d="M16138776.19171 -4562607.18815l10.40837 -24.41363 3.26166 -5.82485 3.2394 -4.92221 2.94997 -3.35669 3.11695 -2.66561 3.18374 -1.77707 3.206 -1.10009 13.81475 -2.10146 "/>
<path d="M16138651.04634 -4562895.47968l31.42549 -3.20147 271.11862 -31.97234 58.27575 1.91806 161.48005 24.83603 361.16496 56.37138 79.30401 13.38419 32.48303 11.46614 25.79273 21.01423 25.80386 34.39855 18.12281 37.68481 42.06764 87.48513 121.33824 252.23436 20.79448 53.63797 "/>
<path d="M16139348.73012 -4561891.70656l264.86246 -350.22938 "/>
<path d="M16139554.51533 -4561731.0521l232.51302 -312.57571 27.01724 -35.33185 "/>
<path d="M16138773.56457 -4563271.06045l126.00253 -13.28491 144.80439 -15.82341 "/>
<path d="M16138899.5671 -4563284.34536l-7.03539 -56.34081 -6.2005 -58.28668 -6.79049 -63.78638 "/>
<path d="M16138892.53171 -4563340.68616l49.31453 -8.6027 112.53287 -17.00794 "/>
<path d="M16138984.37029 -4562912.77043l-0.31169 1.98858 -26.16008 171.82285 -3.99637 23.7223 -16.39736 104.4662 "/>
<path d="M16138901.27029 -4562746.23647l-18.82413 -158.00142 "/>
<path d="M16138862.29734 -4563162.62279l7.64765 75.36689 14.30455 141.31439 "/>
<path d="M16138869.94499 -4563087.2559l52.39808 -5.76818 90.26898 -9.19524 "/>
<path d="M16139486.83308 -4563104.08093l13.11344 -94.50453 12.15609 -87.66379 3.42864 -26.55566 "/>
<path d="M16139023.09834 -4563167.55885l73.52652 10.29521 68.40583 10.90166 "/>
<path d="M16139070.34234 -4562473.24362l11.75534 -80.63208 "/>
<path d="M16139133.74992 -4562926.16863l0.67905 -4.2028 "/>
<path d="M16139082.09767 -4562553.8757l20.48279 -133.92939 "/>
<path d="M16139264.28315 -4563626.19327l3.80713 1.00127 63.74154 123.76345 43.89328 88.38121 -9.01688 57.2712 "/>
<path d="M16139499.94651 -4563198.58546l12.01137 11.53625 46.97683 63.40728 23.43275 48.71218 56.5837 117.66327 -13.33608 95.1978 "/>
<path d="M16139611.28827 -4562807.4177l-26.76121 187.84643 -20.85014 146.77898 -8.92782 62.70644 "/>
<path d="M16139434.56858 -4563574.98731l13.88154 -3.13075 9.85177 -2.24229 7.7701 1.94614 6.42313 5.37304 19.51431 15.16017 24.90217 22.19735 52.53167 38.24612 134.12885 103.20319 "/>
<path d="M16140013.88634 -4563169.63199l-182.14095 94.34966 -58.82122 28.68585 -60.61346 29.54623 "/>
<path d="M16139726.84903 -4562773.82307l28.37534 -14.59718 55.80446 -28.67246 60.26837 -29.70193 90.02407 -44.3835 101.55677 -50.08106 120.00241 -61.16598 "/>
<path d="M16139745.96259 -4563585.01417l69.53015 144.79097 "/>
<path d="M16139569.44327 -4563497.43752l176.51932 -87.57665 "/>
<path d="M16139516.9116 -4563535.68364l42.0899 -34.88959 43.67064 -30.68695 43.29215 -21.80235 122.98577 -57.25562 91.6716 -42.68767 "/>
<path d="M16139559.0015 -4563570.57324l-29.25476 -36.13049 "/>
<path d="M16139070.34234 -4562473.24362l-3.15034 8.25083 -2.60488 5.16206 -4.87579 6.62888 -102.74789 134.63763 "/>
<path d="M16139146.4626 -4562463.80806l-75.75291 99.70153 72.62484 60.19655 "/>
<path d="M16139450.4984 -4562367.4633l-139.42766 187.71334 -110.80742 146.40438 "/>
<path d="M16139654.41344 -4562396.47542l-1.00188 15.71195 2.38224 8.9561 9.85177 9.84467 174.05916 126.92376 60.01234 43.59646 111.24157 86.86907 272.14276 212.30266 110.80742 16.46027 "/>
<path d="M16139754.66777 -4561575.09219l230.40908 -289.8576 8.61613 -10.83248 32.1936 -40.52296 4.12995 -5.12001 "/>
<path d="M16139451.44461 -4561810.6885l260.521 -355.53536 "/>
<path d="M16139653.28911 -4561656.28135l225.36631 -285.20079 4.65315 -5.89576 8.41575 -10.63493 34.36433 -43.41408 "/>
<path d="M16138938.05025 -4563821.87639l6.05578 62.35985 18.52356 187.61768 5.32107 66.93058 "/>
<path d="M16138804.13291 -4563744.44126l11.12082 95.24699 "/>
<path d="M16138740.4025 -4563583.40648l119.36789 -12.76272 "/>
<path d="M16139438.08627 -4563739.74521l12.94646 25.511 3.59562 7.14986 34.05263 68.22713 "/>
<path d="M16138723.37061 -4563416.44609l-4.33033 -17.09245 0.5232 -33.45147 -3.7292 -7.60131 -1.5696 -25.45518 -6.63464 -89.05738 -2.99449 -19.48957 -4.02977 -8.79991 -4.63089 -72.48617 -4.17448 -16.18945 -12.10043 -10.4498 -13.58098 -6.72679 -9.48442 -10.97156 "/>
<path d="M16138681.6926 -4562923.33385l-1.0464 -7.00937 -4.17448 -4.71052 -4.18561 -3.87842 -5.96672 -2.69374 -11.64402 -2.38346 -21.19523 -6.27598 -15.38435 -12.38271 -7.60312 -12.96093 -8.05953 -24.93458 -8.05953 -67.03255 -4.63089 -23.7356 -2.13733 -9.33627 -7.12445 -12.60818 -17.31018 -22.55083 -18.36772 -22.83285 -15.97435 -31.05485 -10.4529 -30.75859 -3.42864 -7.61559 "/>
<path d="M16138684.67596 -4562885.11368l-2.98336 -38.22017 "/>
<path d="M16139712.21052 -4561171.11171l-24.43463 -58.6656 -24.47916 -47.32438 -26.87253 -53.2908 -13.30268 -23.88062 -1.19112 -3.44174 0 -2.68004 0.74584 -3.14552 0.90169 -2.68004 -0.30056 -3.28657 -2.69393 -4.03416 -13.73683 -24.17674 -34.77621 -53.89671 -1.64753 -6.12172 -0.58999 -11.19964 -3.58449 -7.46172 -18.51243 -28.52093 -2.69393 -7.46169 -5.07617 -6.86927 -21.79636 -30.74943 -3.7292 -2.83515 -4.47504 -1.04379 -19.11356 3.28652 -14.03739 2.08757 -5.22088 -0.60652 -38.80597 -51.21594 -25.41424 -33.55611 -29.08778 -38.37993 -2.6828 -4.03405 -1.64753 -4.93677 -1.79224 -3.13132 -30.15645 -39.70561 -6.86841 -10.90315 -5.52145 -12.53931 -7.91482 -24.62722 -2.53808 -18.81595 -26.2714 -32.9913 -6.1671 -6.07919 -26.08216 -25.7272 -57.47425 -73.14728 -25.38084 -38.22369 -7.16898 -10.14124 -5.52145 -16.57294 -31.79285 -44.48588 -8.40462 -8.71661 -26.53857 -17.26395 -5.43239 -4.6827 -17.85565 -8.30756 -12.83514 -10.00009 -131.37926 -102.11603 -16.41962 -12.24257 -12.97985 -12.94777 -31.05814 -37.22124 -10.59762 -14.76716 -8.8165 -14.93639 -10.15234 -12.21426 -2.38224 -2.86315 -14.59399 -16.93914 -174.56009 -123.10061 -11.78873 -11.79095 -4.93145 -12.53845 3.13921 -25.232 7.90368 -21.94573 11.35459 -19.56212 9.4065 -20.59167 1.78111 -9.8586 1.34697 -16.71305 -0.14472 -37.92513 -4.77561 -62.40904 -4.63089 -65.6807 -2.69393 -41.50683 6.27842 -39.56038 5.37673 -14.78045 7.01313 -9.70319 10.15234 -11.49432 2.83865 -11.4943 -0.69018 -4.79517 -1.55847 -10.88784 "/>
<path d="M16139430.42749 -4562426.82735l124.32161 16.7415 99.66434 13.61042 137.71334 18.85716 72.03484 9.85877 "/>
<path d="M16139351.91386 -4562433.3011l6.34521 -0.80393 12.31194 -1.77711 "/>
<path d="M16139371.10534 -4562420.48053l-14.99474 -10.28184 -4.19674 -2.53872 "/>
<path d="M16139371.10534 -4562420.48053l-1.94809 -6.51607 1.41376 -8.88554 4.26354 -5.93779 4.36372 -2.93363 6.81275 -1.70658 4.23014 0.32439 6.56785 2.73618 2.58261 2.15791 3.75147 5.55698 1.3581 5.43005 -0.54547 6.13525 -2.41563 5.28902 -4.11882 4.32994 -4.75334 2.52463 -6.34521 0.98728 -5.6439 -1.08601 -5.23202 -3.03237 -4.34146 -5.37364 "/>
<path d="M16139403.14309 -4562435.68468l8.8499 2.87722 18.43451 5.98011 "/>
<path d="M16139430.42749 -4562426.82735l-19.18035 2.67977 -7.29143 0.02821 "/>
<path d="M16139535.2014 -4563109.90551l23.73332 -13.73642 79.70476 -41.87198 229.37381 -114.72751 "/>
<path d="M16139268.58008 -4561998.14053l238.95842 -325.41658 "/>
<path d="M16138874.04155 -4562481.7342l1.71432 4.52737 8.62726 22.74972 9.64027 21.95994 8.38236 17.84161 7.15784 13.69504 4.63089 8.84325 15.61812 27.5312 27.15082 46.02184 69.46336 112.72122 32.80585 46.5303 28.96533 37.46134 4.79787 6.51626 8.63839 11.7067 32.85038 35.07788 30.60173 27.47564 41.35519 32.08792 "/>
<path d="M16139548.73785 -4563362.58778l12.83514 41.73016 "/>
<path d="M16138743.53057 -4563394.69972l-21.96334 2.36926 -17.05415 19.72973 -9.18386 9.30782 -66.88075 10.15399 -37.18071 11.69121 -4.2524 1.21284 -11.08742 3.18723 -5.44352 1.56541 -12.76835 3.65263 -2.63827 0.76155 -13.61437 -1.93208 -5.15409 -4.32956 -7.60312 -9.29374 -1.58074 -13.17199 1.42489 -9.77321 -0.30056 -19.0387 -4.02977 -18.65789 -5.59937 -26.42843 -12.16722 -75.09642 -0.70131 -26.18843 -0.42301 -15.75251 -14.44927 -101.93242 -12.51231 -42.166 -9.58461 -38.44283 -32.24926 -43.60409 -34.73168 -39.89505 -10.30818 -19.26351 "/>
<path d="M16138914.55071 -4562496.59976l-10.15234 26.14873 -2.07054 8.47649 -1.01301 6.51604 -0.90169 8.06749 0.30056 12.83465 1.61413 10.66265 2.18186 9.18173 5.0539 13.75146 "/>
<path d="M16138743.83114 -4563257.86014l-7.15784 9.25151 -14.33795 56.14386 -5.96672 11.63498 -20.00411 10.7465 -11.69968 3.01805 -8.015 2.05904 -23.032 6.0643 -32.49416 8.57465 -11.05403 5.66943 -10.74233 11.0427 -6.86841 7.17847 -2.39337 7.7567 -2.46016 18.05198 -13.63664 41.57607 "/>
<path d="M16139511.12299 -4563324.08717l-69.65261 -10.85916 -69.14054 -10.78864 "/>
<path d="M16139539.87682 -4563322.33842l21.69617 1.4808 17.81112 -0.16923 126.18064 -57.55344 "/>
<path d="M16139517.7465 -4563335.35531l8.22651 -30.74406 -2.33771 -28.43112 "/>
<path d="M16139710.16224 -4563021.35173l8.12632 -5.55667 46.39796 -78.97772 -4.17448 -6.86821 7.75897 -2.97575 7.16898 0.29617 0.89056 5.37328 -4.77561 2.08726 -6.86841 2.08726 "/>
<path d="M16139760.51205 -4563112.75434l-90.40256 -8.47596 -11.2878 -3.61039 "/>
<path d="M16138587.52744 -4563591.81155l-0.87942 -8.54608 -2.38224 0.25384 2.00375 19.46139 2.18186 -0.22564 -0.8015 -7.77046 89.16691 -9.18069 -0.32283 -3.14484 -88.96654 9.15249 "/>
<path d="M16138587.01537 -4563340.23488l-0.60113 -7.78474 -1.89243 -21.73236 "/>
<path d="M16138684.08597 -4562857.93637l22.90955 -4.37207 27.3178 -4.78107 42.75782 -1.93217 6.26729 -4.99261 2.48242 -6.51578 -0.72358 -4.9785 -0.85716 -5.89522 3.65128 -0.38079 "/>
<path d="M16138514.94713 -4563228.08886l-2.11507 -7.64379 -9.10593 -7.79892 -5.3322 -6.23349 -7.61425 -80.92221 45.52967 -6.64242 9.10593 -2.15773 6.64577 -1.94619 4.58636 -0.66283 5.71069 -0.83206 19.49204 -2.75004 4.5641 -2.34106 8.79424 -4.52699 7.68104 -8.96936 4.93145 -6.41676 7.56973 -4.28724 12.51231 -4.07569 13.28042 -0.36667 11.4993 0.81796 10.37498 0.74745 11.86666 -2.67952 18.84639 -11.01424 6.76823 -8.43343 1.71432 -2.12951 4.60863 -9.51933 16.50868 -7.57315 "/>
<path d="M16139560.48205 -4561411.51302l-40.89878 -59.11561 -44.2161 -59.91927 -2.81638 -3.82252 -32.9951 -45.84194 -12.06703 -15.57211 -10.61988 -13.682 -14.66078 -19.71897 -18.63488 -25.07887 -98.52888 -125.84478 -44.93968 -56.27844 -57.17369 -75.99657 -35.0879 -43.89383 -54.49089 -70.7629 -12.0559 -15.54323 -17.9447 -23.11734 -34.78734 -36.13573 -72.41333 -60.90294 -35.37733 -24.93653 -12.13382 -6.10719 -10.10781 -5.09167 -20.00411 -22.38357 -33.29566 -47.17882 -3.89618 -3.42733 -23.12106 -20.31009 -51.66338 -39.11092 -24.03388 -17.77123 -23.43275 -16.57235 -65.54492 -46.2755 -14.32682 -14.64 -11.5661 -10.846 -8.80537 -12.08714 -2.09281 -18.36339 -0.58999 -10.74723 1.6364 -11.94605 3.74033 -9.70351 13.72569 -21.79055 19.8594 -26.27554 1.26904 -8.51873 1.87017 -12.53832 -0.07792 -17.44643 -0.15585 -36.04929 -4.93145 -74.94715 -6.56785 -76.87879 -5.37673 -82.85809 -0.44528 -7.02351 4.17448 -4.62593 30.3123 -4.04768 -1.41376 -15.16117 "/>
<path d="M16138673.77778 -4562888.39978l-2.38224 -33.58016 "/>
<path d="M16138671.39554 -4562921.97993l-0.44528 -4.32973 0.17811 -4.30152 -1.31357 -4.56948 -13.1357 -3.72328 -25.14707 -4.42845 -7.45841 -2.69374 -4.48618 -2.67963 -15.90756 -26.48601 -8.05953 -32.08493 -4.18561 -21.21126 -3.42864 -5.51436 -8.66066 -13.59548 -5.37673 -11.49409 -14.92794 -56.42665 -23.14332 -44.79134 -13.72569 -29.55992 -5.37673 -17.4595 -2.69393 -18.44667 "/>
<path d="M16138671.12838 -4562930.61118l9.51782 0.26796 88.44334 -2.00268 4.33033 -1.79112 4.63089 -3.58225 3.7292 -5.81057 "/>
<path d="M16138881.84504 -4562907.58039l0.60113 3.3425 "/>
<path d="M16139026.6717 -4562704.43332l10.99837 -74.735 2.77186 -17.60122 2.11507 -14.55483 14.15984 -88.10426 0.84603 -2.98992 "/>
<path d="M16139177.93262 -4562683.10857l31.18059 -195.22137 "/>
<path d="M16139335.07122 -4562658.55402l10.37498 -64.79228 4.06316 -25.40061 17.19886 -107.37012 "/>
<path d="M16139535.83592 -4562833.18479l-1.15772 7.54537 -31.36983 193.37477 "/>
<path d="M16139754.86815 -4562665.11225l19.75921 -13.15875 -29.62212 -22.96078 "/>
<path d="M16138840.83494 -4562293.74084l-12.0893 -31.22668 -6.42313 -6.4174 -9.10593 -13.44126 -16.72019 -16.57236 -22.68691 -17.31985 -8.96122 -5.21852 -13.1357 -10.60627 -17.91131 -14.17459 -10.38611 -9.61896 -41.43311 -48.95502 "/>
<path d="M16138681.42543 -4562469.6189l0.70131 -1.39629 0.16698 -0.78982 -0.08906 -1.56554 -1.20225 -2.1297 -3.71807 -1.28346 -3.42864 2.36947 -0.5232 2.25664 1.46942 3.17339 2.66054 1.15653 3.25053 -0.95907 "/>
<path d="M16138675.29173 -4562476.0221l3.70694 -17.99665 16.64226 -72.1132 "/>
<path d="M16138706.93986 -4563398.31001l-6.40087 1.08591 -48.33492 8.34881 -32.4051 4.78083 -15.07266 8.20779 -20.20449 6.1347 "/>
<path d="M16138706.93986 -4563398.31001l-0.07792 -10.56293 -17.93357 -138.69912 -8.8165 -79.56606 -5.24315 -53.32105 -4.60863 -30.88406 -51.35168 -34.48004 -88.83295 -55.39346 -47.02135 -30.8978 -13.29155 -13.43932 "/>
<path d="M16139391.08718 -4562509.01122l-45.5742 -5.68388 -31.9153 -3.99141 -76.98856 -10.71896 "/>
<path d="M16139313.59769 -4562518.68651l6.80162 -47.14926 1.09093 -6.82626 13.58098 -85.892 "/>
<path d="M16139389.36173 -4562498.77177l16.40849 2.22842 73.80482 10.43692 84.10188 13.31414 "/>
<path d="M16139503.30836 -4562632.26466l-23.73332 146.15823 "/>
<path d="M16139697.76125 -4561620.93396l18.54583 -23.30164 9.95196 -12.90615 209.35857 -266.76592 34.34206 -43.75274 "/>
<path d="M16139498.97803 -4561773.57852l239.22559 -316.2698 13.89267 -18.63202 12.96872 -16.86893 "/>
<path d="M16139397.17636 -4561853.49669l220.27901 -301.57059 30.96908 -39.59098 9.30631 -13.30039 "/>
<path d="M16139297.01108 -4561931.03055l135.29771 -179.01539 11.48817 -15.28923 2.08167 -2.83499 11.95571 -15.76875 104.17278 -137.3338 "/>
<path d="M16138821.63233 -4562895.50789l-9.10593 1.48086 "/>
<path d="M16138453.33179 -4563842.70523l207.74443 129.31716 32.41624 297.91507 -91.68273 9.68855 0.86829 16.92326 -28.62024 3.00388 -13.74796 -140.1661 -17.55508 1.98846 -2.27092 -28.88197 12.10043 -0.64872 "/>
<path d="M16138552.58425 -4563553.56563l-15.2953 -141.47535 "/>
<path d="M16138537.28895 -4563695.04098l-12.49005 5.85246 -10.4529 -17.31763 -5.3656 -10.15365 15.51794 -7.77035 -117.64244 -125.69278 -10.50856 -13.4675 -13.9372 -9.30737 -10.63101 -14.84947 -9.55121 2.11531 -8.24877 9.30736 -3.10581 7.44589 1.55847 6.99463 -0.54547 23.77614 10.16347 10.90094 -21.65164 14.82135 -6.35634 2.93325 -5.6105 4.03322 3.79599 5.8383 7.74784 -2.86274 28.05251 -9.1523 71.37806 101.50779 15.21737 33.77504 9.26178 42.65966 15.82963 155.25442 -6.26729 138.24876 14.92794 102.71115 26.87253 83.60252 39.70766 90.17527 30.45701 91.65689 8.13745 37.28917 9.32857 18.54591 20.79448 9.49157 22.48654 -0.90262 4.88693 12.10071 0.57886 9.49159 -25.16934 6.89657 -6.26729 8.96978 -0.73471 23.22838 14.02626 132.27722 9.26178 68.67086 -2.76072 67.45839 2.46016 36.74053 -18.81299 23.29963 -9.25065 18.80053 -4.77561 13.14487 -1.49168 18.80058 5.96672 31.35319 22.98747 24.48461 37.32543 26.88236 41.07689 20.50737 -37.64825 52.04432 -1.15772 3.32859 2.86091 4.27357 6.32295 -0.40902 13.3806 -18.15209 "/>
<path d="M16138558.41739 -4563323.90383l-0.70131 -7.92578 -1.06867 -10.26684 -2.98336 -26.35808 -0.75697 -6.6424 "/>
<path d="M16138553.66405 -4563368.45453l12.26741 -5.627 -3.19487 -38.11965 "/>
<path d="M16139177.93262 -4562683.10857l-21.78522 140.57238 "/>
<path d="M16139026.6717 -4562704.43332l-21.60711 137.41283 -8.36009 48.51733 -1.36923 13.3282 -2.57148 21.22643 "/>
<path d="M16138914.55071 -4562496.59976l10.09668 1.63606 68.1164 11.01518 19.91506 2.94773 "/>
<path d="M16138787.89139 -4562891.78459l-1.06867 -9.08259 "/>
<path d="M16139710.57412 -4562698.45337l-41.0101 18.71558 -11.46591 71.66109 "/>
<path d="M16139741.78811 -4562595.00247l7.59199 -4.75298 8.86103 3.76571 "/>
<path d="M16139636.62459 -4562852.3232l7.8035 -8.54669 "/>
<path d="M16139165.09749 -4561993.83862l6.42313 1.04374 5.07617 1.04374 4.63089 3.28638 7.15784 3.58258 7.91482 3.87877 5.67729 0.45135 4.47504 -0.9027 2.6828 -3.13123 6.71257 -8.88592 "/>
<path d="M16139081.29617 -4562042.58407l5.27654 -1.26941 5.22088 -7.46131 0.90169 -9.85907 0.23377 -7.81391 -1.28017 -11.73495 4.3192 -9.61927 5.66616 -13.28642 "/>
<path d="M16138908.63964 -4562193.7838l5.79975 -7.87022 18.47904 -10.83213 "/>
<path d="M16138699.22542 -4562323.38786l10.75346 -26.26194 44.33855 30.74707 18.51243 25.23241 92.10575 81.21238 57.30727 57.57401 86.25034 82.69444 74.11652 72.9206 121.87258 154.63003 44.87289 44.11998 89.18918 115.94279 87.78655 113.13715 57.32954 88.86311 24.04501 25.93971 12.26741 13.23083 17.19886 42.04819 24.83538 49.67943 9.55121 21.97638 25.63688 36.46284 64.5987 131.69046 "/>
<path d="M16139236.41988 -4563564.19891l-82.22058 37.87935 -21.96334 143.14177 -35.61111 225.91416 -1.8479 12.73505 -5.34334 34.341 -5.38786 38.20538 -2.47129 15.31604 -4.93145 36.00548 -2.52695 16.30334 -9.36197 65.46749 "/>
<path d="M16139145.14903 -4563597.41022l9.05027 -75.20806 37.92655 -17.76894 -7.7701 -14.77922 "/>
<path d="M16138505.75214 -4563534.97852l48.21247 -3.21538 "/>
<path d="M16138850.98728 -4562281.52659l4.77561 1.3258 2.78299 0.49365 2.1596 -0.29619 2.54922 -1.21296 1.98149 -2.0028 1.16885 -2.56697 0.26717 -2.14384 -0.5232 -2.77853 -1.43602 -2.42593 -2.18186 -1.79124 -3.46204 -1.0155 -2.80525 0.31029 -2.00375 0.88857 -2.09281 1.88996 -1.46942 2.91957 -0.2449 2.80674 0.73471 2.72212 -0.20038 2.87726 "/>
<path d="M16138866.6722 -4562287.9299l4.77561 0.87446 7.01313 -3.87866 14.29342 -6.51615 "/>
<path d="M16139475.36717 -4561530.54791l15.48454 -20.04354 23.05427 -25.17779 "/>
<path d="M16139570.8125 -4561618.49377l-9.49555 -7.34877 -1.83677 -5.62794 1.28017 -4.9791 12.13382 -15.40276 31.54794 -41.97665 "/>
<path d="M16139567.25028 -4561532.35338l-53.3443 -43.41586 14.32682 -18.01231 13.98173 -19.22532 55.15881 43.03487 "/>
<path d="M16139528.2328 -4561593.78155l53.80071 44.31852 "/>
<path d="M16139528.2328 -4561593.78155l-9.60687 -7.12311 -12.69042 -10.31086 -43.89328 -80.90677 -4.33033 -4.33024 -10.30818 -1.94649 -11.93345 0.74757 -9.56234 2.83511 -13.43626 5.23297 -9.10593 5.96643 -1.6364 6.12159 3.12808 9.40807 6.12257 10.74806 8.96122 7.91295 3.77373 5.50099 23.21011 33.83818 12.13382 17.68786 6.26729 4.78165 6.412 -2.53893 5.07617 -5.52922 4.78674 -6.12164 6.412 -5.21891 7.31369 -1.79135 10.60875 -2.39787 "/>
<path d="M16139427.48866 -4561595.78449l5.29881 -4.54186 14.13758 -9.76076 "/>
<path d="M16139402.208 -4561629.18546l5.16522 -4.697 16.3417 -10.04283 "/>
<path d="M16139462.04223 -4561692.12229l12.38986 -3.13132 11.34346 0.29621 8.05953 -14.64101 7.46954 -9.25288 10.59762 -7.9129 9.55121 -9.40802 8.41575 -12.66626 "/>
<path d="M16139485.77554 -4561694.9574l6.86841 3.13132 10.29705 2.99027 9.56234 1.33998 10.89818 7.01021 14.7721 11.65077 12.24514 7.32053 22.47541 9.66198 "/>
<path d="M16139609.61848 -4561584.96582l10.37498 0.63473 11.04289 7.75785 14.62738 13.73846 8.66066 9.70439 9.4065 -2.53894 4.63089 -9.40817 18.06715 -19.11253 5.52145 -10.59298 10.94271 -21.55267 "/>
<path d="M16139654.32438 -4561553.13039l2.39337 5.37409 4.47504 14.03471 5.97786 10.29683 12.83514 10.90337 8.91669 4.83811 19.14695 10.38149 14.03739 11.65098 7.31369 7.67329 5.68843 17.54703 "/>
<path d="M16139688.92248 -4561507.68328l-3.2394 -19.02801 -6.42313 -18.95745 "/>
<path d="M16139286.72516 -4561830.02626l20.04864 -26.0234 31.29191 -43.85176 "/>
<path d="M16138855.25082 -4562473.37055l-4.40825 5.98008 -14.33795 1.49502 -13.1357 1.93225 -9.55121 2.8349 -7.75897 -0.88855 -8.51594 -3.28623 -6.56785 1.94635 -8.05953 5.06333 -12.97985 6.23397 -12.10043 0.94497 -9.4065 -1.49502 -9.10593 -0.15514 -6.56785 3.73756 -4.02977 5.21848 "/>
<path d="M16138656.38968 -4562556.82341l9.77385 -1.33987 "/>
<path d="M16138675.19154 -4562873.2386l11.04289 -0.98724 "/>
<path d="M16139331.83182 -4563501.42855l-47.44437 25.72313 9.85177 51.2067 -9.11707 65.16868 -20.73882 127.87057 -15.50681 98.4672 -31.52568 219.12177 "/>
<path d="M16139463.6341 -4562879.04921l-4.33033 1.46676 -3.99637 -0.19745 -3.67354 -1.53727 -2.9277 -2.67965 -1.83677 -3.55406 -0.51207 -3.94895 0.62339 -3.25789 1.94809 -3.49764 3.01676 -2.60913 4.51957 -1.53727 3.98524 0.21155 6.57898 4.30153 1.59187 2.9053 0.71244 3.93485 -0.66792 3.93485 -1.99262 3.48354 -3.03902 2.58093 "/>
<path d="M16139463.6341 -4562879.04921l0.58999 4.76696 "/>
<path d="M16139542.47056 -4562873.43605l16.76472 -109.85101 1.9147 -13.07373 5.23202 -36.27352 0.90169 -5.97976 2.00375 -12.03002 0.92395 -6.03616 0.89056 -5.09125 0.72358 -5.71178 10.54196 -7.44647 "/>
<path d="M16139745.96259 -4563585.01417l-4.47504 -9.60377 54.93617 -27.3164 -27.47365 -58.38381 "/>
<path d="M16138936.21348 -4562945.54662l-19.3362 5.9234 -31.49228 4.47076 "/>
<path d="M16139134.42897 -4562930.37143l-9.38423 -1.11416 -16.56434 6.12085 -44.69478 -5.82468 0.96848 -7.70043 "/>
<path d="M16138936.21348 -4562945.54662l-13.87041 -147.47746 "/>
<path d="M16138989.76929 -4562949.94686l-14.4604 -1.83343 -39.09541 6.23367 "/>
<path d="M16139064.7541 -4562938.88985l-22.92068 -4.01945 -52.06413 -7.03756 "/>
<path d="M16139134.42897 -4562930.37143l14.64964 2.62322 29.56646 4.78104 18.51243 3.72329 20.19336 5.37338 "/>
<path d="M16139217.35085 -4562913.8705l4.44165 6.12087 25.97084 4.1887 14.03739 -2.98992 18.05602 -0.74748 7.7701 2.24244 "/>
<path d="M16139287.62685 -4562905.05589l4.2524 -0.50772 5.74409 -0.69107 8.96122 3.58226 48.96944 8.36331 16.31944 6.16319 "/>
<path d="M16139371.87344 -4562888.14591l23.51068 -159.33906 1.3581 -9.18117 7.60312 -51.56109 37.12505 -226.71909 8.74971 -64.06882 "/>
<path d="M16139371.87344 -4562888.14591l1.89243 3.38482 41.19934 7.61584 7.02426 0.29617 11.78873 -6.12088 13.09117 -2.58092 "/>
<path d="M16139433.77821 -4562882.96996l10.15234 3.44123 6.47879 4.14641 0.34509 0.11283 13.46966 0.98724 18.223 0.12693 56.88426 8.06716 40.15294 7.16455 57.14029 6.60041 13.92607 8.92749 "/>
<path d="M16139680.40654 -4562814.14508l-29.85589 -29.25063 "/>
<path d="M16139755.22437 -4562788.42025l-24.80198 -49.91231 -50.01585 24.18749 "/>
<path d="M16139680.40654 -4562814.14508l7.2469 6.05041 17.83338 27.31854 6.87954 13.80739 2.1596 4.3298 16.11906 31.80361 10.4529 18.43345 3.90731 11.17009 6.31182 22.2697 3.55109 13.84983 "/>
<path d="M16139754.86815 -4562665.11225l2.20413 5.11965 14.7053 31.26799 18.65715 37.33272 12.91306 27.91148 7.34709 14.37183 "/>
<path d="M16138984.0586 -4562910.78186l61.6376 9.90057 11.02063 1.45265 "/>
<path d="M16139130.07637 -4562889.23188l21.9522 4.66823 35.37733 4.17461 21.7073 2.0591 "/>
<path d="M16139209.11321 -4562878.32994l21.40674 0.84621 24.52368 7.13633 18.65715 2.65145 7.35822 2.045 "/>
<path d="M16139366.70822 -4562856.11703l22.08579 2.14372 27.77421 1.80524 29.45514 5.3029 13.25815 0.78979 67.76017 11.52254 8.79424 1.36804 38.0824 5.95167 28.31968 5.81064 10.94271 2.24246 21.35108 8.65955 11.64402 7.46076 10.75346 11.05717 23.28804 31.64839 8.36009 17.61539 10.89818 22.10037 11.09855 22.18504 12.79061 25.58408 12.0893 25.68287 19.11356 42.69209 3.67354 8.50459 11.55496 26.72674 15.56246 18.77223 "/>
<path d="M16139282.6954 -4562865.35478l4.70881 0.93083 27.88553 5.64138 7.5252 1.2411 17.43263 3.30021 7.04652 0.73338 15.52907 -2.39759 3.88505 -0.21155 "/>
<path d="M16139534.6782 -4562825.63943l67.50414 11.19818 "/>
<path d="M16139611.28827 -4562807.4177l-9.10593 -7.02355 0.05566 -6.98123 "/>
<path d="M16139599.44388 -4561697.98998l225.1882 -290.78507 14.30455 -18.3219 29.96721 -38.33624 "/>
<path d="M16139311.07073 -4562179.74996l-42.25688 -30.66285 -1.93696 1.21297 -10.49743 14.35822 "/>
<path d="M16139741.78811 -4562595.00247l-83.68999 -13.07422 -73.57105 -11.49458 -81.2187 -12.69339 -69.69713 -10.94451 "/>
<path d="M16139268.58008 -4561998.14053l-19.36959 26.50261 "/>
<path d="M16139792.12678 -4562377.61826l10.66441 -79.1378 -62.10514 -7.75719 "/>
<path d="M16139020.64931 -4563533.63877l4.74221 -179.7775 "/>
<path d="M16138892.53171 -4563340.68616l-55.54843 6.17702 -2.6828 -1.19874 -4.18561 -32.53511 1.49168 -3.28594 54.72466 -27.44392 48.62435 -22.33867 59.07725 -29.05149 "/>
<path d="M16138934.95557 -4563421.31151l6.89068 72.02265 "/>
<path d="M16138827.2317 -4563436.11932l-12.04477 -102.92072 71.35579 -6.86793 -12.53457 -106.2901 "/>
<path d="M16138886.54272 -4563545.90797l76.08687 -25.9909 "/>
<path d="M16139515.53124 -4563312.80491l-3.13921 -4.41418 -1.26904 -6.86807 2.20413 -6.82576 4.41938 -4.44238 4.61976 -1.91798 6.25616 0 4.61976 1.91798 3.32845 2.93338 2.78299 5.28855 0.5232 4.79496 -0.7681 3.83597 -2.89431 4.90778 -5.399 3.77956 -4.89806 1.0013 -4.95372 -0.71924 -5.43239 -3.27186 "/>
<path d="M16139536.2144 -4563313.59467l-24.25652 126.54545 -16.47528 83.77216 "/>
<path d="M16139561.57298 -4563320.85762l77.06648 155.34371 20.18222 40.67322 51.34055 103.48895 2.14847 4.30148 45.5742 91.86886 "/>
<path d="M16138754.77384 -4563285.26204l-14.97247 -2.24236 -12.0893 -7.9117 -5.23202 -49.71244 14.36021 -8.02448 9.86291 -8.09499 "/>
<path d="M16138695.32923 -4563363.29292l2.89431 11.16939 1.12433 3.70903 23.13219 3.28595 "/>
<path d="M16139241.3736 -4561976.7297l7.83689 5.09178 47.80059 40.60737 41.05463 31.12913 10.66441 8.19486 48.44624 38.20986 14.85002 11.56595 39.41823 31.24224 47.53342 37.10998 30.89116 24.74006 24.64614 17.78636 44.92855 33.06212 4.99825 4.16098 14.19324 11.07245 34.65376 26.4752 44.47214 35.34739 5.13183 4.59827 51.7747 41.24349 35.6779 28.23863 10.29705 7.53219 51.64111 41.82212 47.80059 35.40435 55.64861 40.51062 180.76059 131.56188 39.58521 30.62325 57.83048 41.89377 23.98935 20.96105 16.72019 13.44274 6.26729 6.55916 "/>
<path d="M16138884.24954 -4562945.94151l1.13546 10.78905 -31.94869 3.73739 -34.03037 -6.14906 "/>
<path d="M16138786.23273 -4563154.48533l-17.62188 1.66416 "/>
<path d="M16139084.09029 -4563557.54254l-20.9058 0.74743 -42.53518 23.15633 -52.69865 28.67048 -88.40994 42.20908 -52.30903 26.6399 -67.72678 32.16822 -15.97435 9.25138 "/>
<path d="M16139381.00164 -4562445.50107l1.54734 -9.8728 6.81275 -43.3979 1.72545 -10.23945 18.96884 -128.26027 "/>
<path d="M16139705.56475 -4563378.5803l-2.99449 -4.24492 -0.94622 -4.1462 0.28943 -3.35645 1.65866 -3.90645 2.88317 -3.1167 8.25991 -2.43977 4.11882 1.0436 1.8813 1.0577 3.03902 2.96157 1.49168 2.76413 0.81263 4.17441 -0.66792 4.18851 -1.92583 3.52568 -3.15034 2.84875 -3.31732 1.45258 -4.23014 0.36667 -4.10769 -1.10001 -3.09468 -2.0731 "/>
<path d="M16139414.47541 -4562632.73008l-4.41938 -4.54141 -1.30244 -3.27207 0.12245 -6.4031 1.36923 -3.13103 3.97411 -4.06187 4.0409 -1.69245 3.21713 -0.28207 4.10769 0.84622 2.91657 1.60782 3.84052 4.61192 1.26904 5.83895 -0.7681 4.04777 -2.38224 3.97726 -1.8479 1.72066 -4.35259 2.12967 -4.36372 0.3808 -5.42126 -1.77707 "/>
<path d="M16139241.42926 -4563624.68431l-1.65866 -4.18841 0.37849 -6.61402 2.32658 -4.23072 3.41751 -2.91919 2.48242 -1.12819 4.44165 -0.64871 4.30806 0.86025 3.85165 2.32689 2.58261 3.08842 1.61413 4.20251 0.20038 3.38458 -1.09093 4.35764 -2.82752 4.03329 -3.75147 2.52433 -4.37486 1.08589 -4.17448 -0.40897 -4.08543 -1.88972 -3.64015 -3.83586 "/>
<path d="M16139523.6353 -4563394.53049l11.82213 25.89262 1.26904 18.44642 -0.15585 17.76952 "/>
<path d="M16139488.80343 -4563083.87115l-3.4509 -1.12825 -2.84978 -2.2424 -1.9147 -3.07448 -0.74584 -3.55399 0.8349 -3.145 0.62339 -2.53856 2.37111 -2.75011 3.16147 -1.77699 5.24315 -0.42309 3.40638 1.22697 4.60863 5.47201 0.61226 4.23094 -0.84603 3.52578 -4.92032 5.18995 -3.47317 1.02953 -2.66054 -0.04231 "/>
<path d="M16139451.94555 -4562898.8645l11.12082 -68.54226 13.25815 -81.7565 6.17823 -38.07854 "/>
<path d="M16139494.93714 -4563084.85837l-5.41013 36.62592 -12.13382 82.17961 -10.36384 70.16416 "/>
<path d="M16139464.22409 -4562874.28226l-0.7681 4.38617 "/>
<path d="M16139428.61298 -4562633.46348l-22.84276 136.92013 -4.16335 24.56909 -3.12808 18.4198 -1.66979 10.15488 "/>
<path d="M16139463.06637 -4562967.40676l14.32682 1.35392 "/>
<path d="M16139476.32452 -4563049.16326l13.20249 0.93081 "/>
<path d="M16138860.59415 -4563750.51932l8.58273 72.13319 "/>
<path d="M16138776.19171 -4562607.18815l-4.82013 9.18157 -4.34146 9.647 -5.98899 16.5861 -4.50844 16.33225 -2.28205 15.35911 -1.02414 17.44651 0.42301 14.58345 1.93696 14.58347 3.57336 14.10395 4.2524 12.96155 6.52332 14.34376 6.77936 11.21268 8.8833 11.98842 9.618 10.09849 39.85238 35.47173 9.36197 9.76004 12.13382 13.59637 9.35084 13.34251 8.21538 12.28471 10.208 18.02513 8.41575 18.8291 16.47528 40.25349 8.73858 19.64726 5.54371 11.05777 4.78674 7.91252 4.61976 6.09307 10.208 11.10011 14.87228 15.50068 20.14883 19.06911 15.33983 13.41328 "/>
<path d="M16138527.11435 -4563321.39353l0.94622 9.9989 4.8424 56.77816 "/>
<path d="M16138584.52181 -4563369.75198l-3.13921 -32.08371 "/>
<path d="M16139570.8125 -4561618.49377l36.03412 26.23558 2.98336 3.14545 -0.21151 4.14692 -12.24514 14.99381 -8.36009 11.1008 -6.97973 9.40818 -14.78323 17.10965 -14.13758 18.63305 -0.60113 4.33032 80.06098 132.60457 3.62902 1.74908 2.44903 -0.43727 2.66054 -0.49369 6.97973 -4.28806 19.70355 -10.29698 13.1357 -12.69489 53.97882 -57.18323 65.53378 -78.8909 "/>
<path d="M16139618.63536 -4561682.75655l-42.1233 56.15233 -3.28392 5.37405 -2.41563 2.73639 "/>
<path d="M16139092.99585 -4562115.33511l250.75828 -319.48922 "/>
<path d="M16139725.24603 -4563391.96379l90.24671 -48.2594 137.94711 -64.57587 "/>
<path d="M16139720.31458 -4563377.22644l27.56271 17.81178 100.98904 65.25371 19.14695 13.91953 94.5993 73.26469 51.27376 37.34474 103.30449 76.43867 "/>
<path d="M16139257.12531 -4563643.55331l12.95759 -16.0626 92.98517 -47.65176 "/>
<path d="M16139088.04213 -4563579.81036l20.80561 -0.38077 36.30129 -17.2191 81.48587 -42.58929 15.84076 0.28205 "/>
<path d="M16139755.74757 -4562916.90272l-0.61226 -2.22833 0.17811 -2.29885 0.95735 -2.1014 1.61413 -1.65009 2.66054 -1.12827 2.30431 -0.02821 2.18186 0.77568 1.78111 1.46675 1.16885 1.98857 0.42301 2.27064 -0.37849 2.28475 -1.14659 2.00268 -3.55109 2.24244 -2.30431 0.14103 -2.21526 -0.64876 -1.87017 -1.36803 "/>
<path d="M16139414.21937 -4562654.13956l4.5307 -30.63324 24.93557 -150.49931 2.33771 -11.59305 0.65678 -3.96307 "/>
<path d="M16139128.67375 -4562894.21038l5.07617 -31.95825 "/>
<path d="M16139245.06941 -4563620.84846l-8.64952 56.64954 -28.27515 184.05321 "/>
<path d="M16139287.43761 -4562897.59519l-4.0075 27.21959 "/>
<path d="M16139283.4301 -4562870.37561l-0.73471 5.02082 4.33033 15.73945 -26.60536 169.32751 "/>
<path d="M16139257.09191 -4562660.86703l-20.26015 130.02296 -0.22264 1.4386 -13.06891 76.81009 "/>
<path d="M16139265.98634 -4562663.51853l-7.04652 2.91947 -1.8479 -0.26797 -5.19862 -2.6515 -2.9277 -7.05185 2.9277 -7.03774 7.04652 -2.91946 7.04652 2.91946 2.91657 7.03774 -2.91657 7.05185 "/>
<path d="M16139205.89608 -4563363.94164l-32.31605 210.7961 "/>
<path d="M16139171.03081 -4563136.06674l-29.94494 196.00631 -6.65691 9.689 "/>
<path d="M16139104.78459 -4562702.33187l27.36233 -179.18544 -2.07054 -7.71457 -1.40263 -4.9785 "/>
<path d="M16139364.05881 -4563338.8387l-33.67415 213.99801 "/>
<path d="M16139328.16941 -4563111.32992l-30.79097 195.89395 -5.49918 9.87236 -4.44165 7.96841 "/>
<path d="M16139213.05392 -4563366.2545l-2.54922 1.38207 -3.10581 0.95899 -1.50281 -0.02821 -4.15222 -2.31285 -1.74772 -2.97568 -0.86829 -3.51158 2.61601 -4.82314 2.84978 -1.67823 3.55109 -0.90258 5.3656 2.79234 1.59187 3.35645 0.04453 3.75133 -2.09281 3.99108 "/>
<path d="M16139179.40204 -4563138.01296l-6.23389 2.58086 -2.13733 -0.63464 -4.09656 -1.94622 -2.58261 -6.23355 0.67905 -2.11546 1.90356 -4.11809 6.64577 -2.66548 5.82201 2.66548 2.49356 6.81178 -2.49356 5.65533 "/>
<path d="M16139331.85408 -4563112.48638l-3.68468 1.15645 -3.43977 -0.83208 -2.59374 -2.39753 -1.0798 -3.38474 0.72358 -3.45526 2.17073 -2.55266 3.10581 -1.24107 3.32845 0.35258 3.05015 2.15777 1.48055 3.42705 -0.5566 3.82194 -2.50469 2.94755 "/>
<path d="M16139107.26701 -4562689.48343l-4.68655 1.67834 -3.96297 -1.11419 -2.76072 -3.0605 -0.70131 -4.06186 1.69206 -3.97723 3.61788 -2.35531 4.3192 0.04231 3.07242 1.87579 1.82564 3.10281 0.15585 3.59644 -2.57148 4.27341 "/>
<path d="M16139370.0144 -4563341.19387l-5.95559 2.35517 -6.46766 -2.35517 -1.6364 -3.62442 -0.75697 -3.58211 2.39337 -5.20393 6.21163 -2.58081 2.90544 0.40898 3.30619 2.17183 2.05941 3.58211 0.25603 4.28725 -2.31545 4.5411 "/>
<path d="M16139095.15545 -4562696.04164l-68.48375 -8.39168 -72.76955 -10.80339 "/>
<path d="M16139249.01012 -4562671.99486l-71.07749 -11.11371 -68.09413 -10.64828 "/>
<path d="M16139408.87604 -4562646.94666l-73.80482 -11.60737 -66.40208 -10.36623 "/>
<path d="M16139025.10209 -4563180.05412l-162.80476 17.43134 -76.06461 8.13745 "/>
<path d="M16139181.8956 -4563143.66829l66.98094 10.67602 72.90313 11.59273 "/>
<path d="M16139334.91537 -4563119.25587l69.42997 11.02862 76.33177 11.21198 "/>
<path d="M16139355.19778 -4563348.40039l-70.07562 -10.92965 -69.97543 -10.91554 "/>
<path d="M16139199.12785 -4563372.74176l-66.89188 -10.43603 -73.68237 -11.49372 "/>
<path d="M16138957.89852 -4562738.95901l-56.62822 -7.27746 -45.67439 -7.17873 -11.2878 -1.07187 -16.21925 -0.66287 "/>
<path d="M16140059.2713 -4564088.81235l-86.48411 42.58745 -32.88378 -67.85781 -93.35252 44.33597 5.399 10.75968 -73.84935 36.60838 9.15046 19.06574 -2.13733 1.19866 8.44915 17.34534 -56.98445 28.359 27.30667 57.45153 -253.40769 122.49099 -14.51606 -29.51586 -41.24387 20.15201 -8.5382 3.61016 -5.72182 -11.43687 -39.35144 18.6572 -7.06879 5.20371 -31.33644 14.6099 -28.49779 0.80383 -90.58067 44.56314 -2.21526 -3.97685 -62.83985 -9.61775 17.15433 35.31215 -38.75031 19.81378 -7.85916 50.03525 -57.29614 4.86533 -3.96297 26.11772 -64.55417 -9.54736 -3.99637 21.06907 -51.65224 6.21919 -82.75491 27.18962 -63.36305 6.47306 2.32658 77.86034 -75.76405 13.43982 3.99637 41.20803 -268.8477 134.15992 "/>
<path d="M16138483.24334 -4563269.19887l-20.21562 -392.37728 -74.58406 -115.63868 -55.65975 -28.20436 21.1507 -16.92258 4.45278 -59.22881 69.01808 53.58796 13.35834 -33.84506 155.84729 -67.68979 23.37709 -73.3301 -8.90556 -117.04506 -239.33691 -373.68924 -243.78968 -265.09969 -176.99799 -160.74865 135.80978 -31.02138 24.49029 -145.23524 "/>
<path d="M16139655.25947 -4561194.78111l-239.33691 -393.54174 -77.37818 -96.25324 -95.16703 -119.55364 -234.88413 -268.05976 -10.01875 -11.21308 -300.56263 -249.64664 18.92431 -29.61869 -100.18754 -84.62438 31.16946 -95.90679 -24.49029 -304.63923 15.58473 -35.25859 164.75285 -19.74476 -3.33958 -29.61707 -192.58272 8.46201 -124.49972 -345.20215 "/>
<path d="M16139166.64483 -4564092.30959l-48.15681 314.0089 -30.44588 198.49033 -3.95184 22.26782 -25.53669 162.87102 -4.17448 28.37471 -10.00762 66.12804 -19.2694 120.11464 -2.00375 12.49527 -10.4863 65.33953 -22.84276 152.27246 -0.94622 6.47343 "/>
<path d="M16139468.66574 -4562885.11368l73.80482 11.67763 83.14453 11.36737 18.81299 1.19879 7.8035 -2.75017 104.70711 -51.56205 "/>
<path d="M16138821.63233 -4562895.50789l28.25289 -7.33376 31.95983 -4.73874 85.14828 -5.95162 17.37697 0.76158 43.20309 4.69642 29.98947 5.65546 "/>
<path d="M16139650.55065 -4562843.39571l10.64214 -5.2888 2.38224 -1.91807 32.22699 -22.24113 41.80047 -21.4936 28.27515 -13.83542 "/>
<path d="M16139057.56286 -4562902.41855l22.00786 4.48488 33.87452 6.38884 16.63113 2.31296 "/>
<path d="M16138850.98728 -4562281.52659l-9.6514 9.6614 "/>
<path d="M16138576.96322 -4563299.16746l13.6923 -1.25515 97.8053 -8.96941 4.77561 33.74814 -113.77965 10.42203 "/>
<path d="M16138688.46082 -4563309.39202l-5.67729 -42.39303 -57.84161 10.06939 -9.03914 1.57951 "/>
<path d="M16139215.84804 -4561993.4719l3.10581 -3.9634 6.03352 -8.66023 -17.62188 -12.83518 -7.10218 -14.41488 "/>
<path d="M16138514.1011 -4563225.77598l0.84603 -2.31288 "/>
<path d="M16138555.1112 -4563249.97661l-4.29693 -49.12034 0.89056 -14.34259 "/>
<path d="M16138532.90297 -4563254.61647l8.05953 6.2758 14.14871 -1.63594 "/>
<path d="M16138532.90297 -4563254.61647l-19.41412 0.90259 -7.16898 -63.60393 20.79448 -4.07572 26.38272 -5.17573 1.58074 -4.4988 "/>
<path d="M16138528.06057 -4563311.39462l23.64426 -2.04491 9.86291 -1.79106 6.56785 7.91169 3.39524 54.08452 -16.41962 3.25777 "/>
<path d="M16138985.60594 -4562921.28887l-1.23565 8.51843 "/>
<path d="M16138988.82307 -4562943.47343l-3.21713 22.18456 "/>
<path d="M16139446.68014 -4562850.82823l3.33958 -20.04099 "/>
<path d="M16139463.45599 -4562869.89609l-3.68468 21.00003 "/>
<path d="M16139450.01972 -4562870.86923l0.73471 -4.40027 0.87942 -4.04768 "/>
<path d="M16139459.77131 -4562848.89606l-0.48981 2.82069 -0.62339 5.38752 -1.20225 6.00808 -5.9222 37.21915 -4.78674 30.1816 -7.23577 45.52643 -11.0095 68.09256 "/>
<path d="M16138791.29777 -4562935.51915l-22.68691 -217.30202 -12.53457 -121.10216 -1.30244 -11.33871 -8.07066 -75.98597 -3.17261 -33.4517 -22.99861 -212.46939 -13.30268 -108.20738 -15.52907 -151.13307 -5.85541 -56.78891 -11.73307 -166.71252 -3.71807 -36.05818 -3.60675 -28.83799 -4.17448 -26.52524 -4.29693 -15.20157 -15.39549 -40.66902 -13.19136 -27.38522 -19.99298 -39.68165 -3.80713 -7.68531 "/>
<path d="M16138808.34078 -4562937.09872l3.49543 35.80844 "/>
<path d="M16138795.02697 -4562899.82353l-3.7292 -35.69562 "/>
<path d="M16138811.83621 -4562901.29028l0.69018 7.26325 10.93157 102.12321 4.63089 36.75388 10.06328 100.3052 "/>
<path d="M16139375.59151 -4563700.48447l58.97707 125.49716 89.06672 180.45683 "/>
<path d="M16138786.82272 -4562900.86718l-3.97411 -33.59422 "/>
<path d="M16138782.84862 -4562934.4614l-1.06867 -9.06845 -24.55708 -224.64954 -13.39173 -89.68076 12.24514 -16.0632 "/>
<path d="M16138686.23443 -4562874.22584l98.86284 -11.28273 "/>
<path d="M16139712.36637 -4562766.96874l14.48267 -6.85433 "/>
<path d="M16140038.58813 -4562408.92931l-30.40135 8.09573 -17.9447 -36.36022 -15.66265 -31.71989 -22.05239 -44.65309 -17.52169 -35.49949 -16.3751 -33.15814 -17.96697 -36.3878 -16.78698 -34.00414 -19.80374 -40.12502 -16.8983 -34.22956 -20.39373 -41.30944 -18.51243 -37.47312 -27.67403 -56.04723 -20.80561 -42.1551 -19.38072 -39.24965 -19.98185 -40.47648 -18.7462 -37.98005 -24.28991 -49.17783 -16.44189 -33.31161 -24.46802 -49.57232 -17.90017 -36.25887 -18.75733 -37.9652 -15.59586 -31.61875 -17.73319 -35.92003 -45.76344 -92.66944 -20.08204 -40.68629 -18.7462 -37.97843 -27.01724 -54.71802 -27.0729 -54.84466 -16.67566 -33.76126 -18.91318 -38.30212 -18.43451 -37.35712 -17.26565 -34.9596 -17.74433 -35.93254 -19.80374 -40.12076 -17.55508 -35.55152 -22.80936 -46.21256 -23.71105 -48.00331 -17.96697 -36.39719 -13.36947 -27.0757 -24.40123 -49.44118 -16.03001 -32.46239 1.8813 -47.41014 1.44715 -36.49523 7.63652 -52.65556 4.98711 -34.37968 4.41938 -30.43114 5.81088 -40.07646 5.15409 -35.47924 5.63277 -38.82115 6.1671 -42.54375 5.24315 -36.1416 4.83127 -33.26483 4.66429 -32.16483 5.04277 -34.77344 6.45653 -44.50307 6.33408 -43.62861 5.02051 -34.60382 5.35447 -36.90215 5.48805 -37.84678 7.05766 -48.60555 5.86654 -40.4128 5.49918 -37.94502 5.63277 -38.83322 5.14296 -35.42074 5.29881 -36.53456 5.06504 -34.88467 5.06504 -34.94096 5.93333 -40.863 5.19862 -35.85722 5.32107 -36.68902 5.98899 -41.24326 6.10031 -42.08911 5.02051 -34.58767 5.20975 -35.85657 28.06364 -8.06524 34.16395 5.14653 35.1547 5.30163 2.9611 -11.18136 "/>
<path d="M16138706.93986 -4563398.31001l14.62738 5.97955 "/>
<path d="M16138579.45678 -4563265.22185l-2.49356 -33.94561 -1.03527 -37.88018 "/>
<path d="M16138624.94192 -4563341.71567l-34.2864 41.29305 "/>
<path d="M16139005.06459 -4562567.02049l77.03309 13.14479 13.24702 2.03096 21.13957 3.22979 39.66313 6.07877 62.04948 8.98417 18.63488 2.70795 "/>
<path d="M16139412.02638 -4561841.93074l-18.40111 21.256 -3.4509 8.75912 "/>
<path d="M16139162.40355 -4562326.18048l17.03188 13.03226 4.15222 -5.41601 -17.03188 -13.03225 -4.15222 5.416 "/>
<path d="M16138875.75587 -4562477.20683l-3.82939 -0.77572 -1.80338 -0.47953 -5.85541 -2.53871 -4.07429 -2.27074 -4.75334 -3.24391 -3.56222 -2.82079 -3.06129 -3.83627 "/>
<path d="M16138914.55071 -4562496.59976l-5.23202 6.82631 -4.3192 4.18887 -5.77748 4.16067 -4.83127 2.15791 -7.11332 2.03097 -5.44352 0.60647 -6.07804 -0.57826 "/>
<path d="M16138839.03157 -4562644.94393l-18.51243 2.90537 "/>
<path d="M16138914.55071 -4562496.59976l-2.33771 -3.66702 -1.0464 -3.2439 -0.90169 -6.86861 0 -7.77126 0.81263 -5.7967 1.28017 -4.65429 1.14659 -4.41452 3.33958 -12.89095 4.36372 -14.52698 4.2858 -12.94733 12.01137 -37.3892 "/>
<path d="M16138868.66481 -4562443.04697l-2.1262 -10.73315 -0.20038 -5.45825 0.93508 -6.3891 1.58074 -5.76853 1.78111 -4.40044 1.29131 -2.18611 2.11507 -3.75165 "/>
<path d="M16138924.64739 -4562494.96371l-3.90731 16.96705 -5.02051 21.08545 -2.93883 12.90516 -1.61413 5.57109 -2.6828 6.26219 -2.69393 8.06751 -1.28017 9.39329 "/>
<path d="M16138819.37254 -4562653.34975l18.7796 -1.49499 "/>
<path d="M16138789.86175 -4562637.42663l8.70518 -13.84987 4.02977 -6.86851 3.55109 -7.5878 2.90544 -7.91218 2.63827 -8.95584 1.83677 -10.19696 0.79037 -11.04317 "/>
<path d="M16138881.39976 -4562491.40951l7.61425 -8.36364 7.04652 -6.89682 4.35259 -4.90816 4.0075 -5.0492 3.58449 -5.66977 5.49918 -10.71896 "/>
<path d="M16138937.50479 -4562610.77052l-4.78674 43.97569 -2.9611 16.40278 -4.70881 21.94564 -4.0409 14.21674 -6.45653 17.62991 "/>
<path d="M16138820.51913 -4562642.03856l-14.66078 3.37079 -6.48993 3.34259 -2.57148 2.41174 -2.87204 3.48363 -4.74221 5.03504 -5.94446 6.93905 -7.04652 10.26755 "/>
<path d="M16138864.21203 -4562510.15364l2.88317 4.93637 2.39337 2.03097 4.65315 2.34125 6.26729 1.19883 5.46579 0.22566 3.13921 -0.3526 9.91857 -0.78982 "/>
<path d="M16139432.80973 -4562611.4475l-17.92244 111.08198 "/>
<path d="M16139398.46767 -4562615.9184l-17.32131 102.11184 "/>
<path d="M16139437.58534 -4562673.25009l11.34346 -69.27713 "/>
<path d="M16139511.03394 -4562638.90752l59.12178 7.46088 "/>
<path d="M16139441.16982 -4562649.96486l57.32954 8.36352 "/>
<path d="M16139438.47589 -4562634.73282l57.6301 7.75707 "/>
<path d="M16139509.24169 -4562623.39339l55.23673 7.475 "/>
<path d="M16139413.09505 -4562488.72976l-5.96672 32.55196 "/>
<path d="M16139409.52169 -4562701.61259l20.29354 -131.68504 "/>
<path d="M16139416.06728 -4562698.14308l23.3103 -136.94568 "/>
<path d="M16138795.80621 -4562892.37694l-7.91482 0.59234 "/>
<path d="M16138795.80621 -4562892.37694l16.72019 -1.6501 "/>
<path d="M16138581.73883 -4563639.50593l-0.87942 -8.54604 -2.38224 0.23974 2.00375 19.4613 2.18186 -0.22564 -0.8015 -7.77042 89.16691 -9.18065 -0.32283 -3.14483 -88.96654 9.16655 "/>
<path d="M16138601.44238 -4563449.8412l-0.87942 -8.5321 -2.38224 0.23974 2.00375 19.46165 2.19299 -0.22564 -0.8015 -7.77056 89.15578 -9.18082 -0.32283 -3.14489 -88.96654 9.15261 "/>
<path d="M16138598.09166 -4563484.32211l-0.87942 -8.54617 -2.39337 0.25385 2.00375 19.44748 2.19299 -0.22564 -0.8015 -7.75643 89.16691 -9.19489 -0.33396 -3.14488 -88.95541 9.16668 "/>
<path d="M16138594.28453 -4563521.34136l-0.87942 -8.54614 -2.39337 0.23974 2.00375 19.46152 2.19299 -0.22564 -0.8015 -7.77051 89.16691 -9.18076 -0.33396 -3.14487 -88.95541 9.16665 "/>
<path d="M16138590.76684 -4563556.87972l-0.87942 -8.54611 -2.38224 0.25384 2.00375 19.46145 2.19299 -0.22564 -0.8015 -7.77048 89.15578 -9.18073 -0.32283 -3.14485 -88.96654 9.15252 "/>
<path d="M16139241.3736 -4561976.7297l-25.52556 -16.7422 -1.78111 -1.36815 "/>
<path d="M16139206.44154 -4562008.98697l12.51231 11.55167 22.41975 20.7056 "/>
<path d="M16138819.37254 -4562653.34975l-0.85716 -7.78525 -4.19674 -42.70596 -18.51243 -188.53597 -0.77924 -7.44659 "/>
<path d="M16138839.03157 -4562644.94393l4.50844 33.3836 4.17448 29.84365 7.33595 34.59673 9.16159 36.96631 9.82951 28.41944 "/>
<path d="M16138838.15214 -4562654.84474l0.87942 9.90082 "/>
<path d="M16138820.51913 -4562642.03856l-1.14659 -11.31119 "/>
<path d="M16139747.87728 -4563359.41466l-26.56083 40.58784 "/>
<path d="M16139755.64738 -4562510.63317l8.07066 -5.66977 9.39537 -28.96939 -31.3253 -49.73013 "/>
</g>
</svg>