<?xml version="1.0" encoding="UTF-8" standalone="no"?>
<svg xmlns="http://www.w3.org/2000/svg" xmlns:xlink="http://www.w3.org/1999/xlink" stroke="white" fill="none" stroke-width="0.1%" stroke-linecap="round" stroke-linejoin="round" width="1200" height="1200" viewBox="1.5239157394689579E7 4334901.046562045 2149.7914205212146 2149.7914205174893" preserveAspectRatio="xMidYMid meet">
<g id="planet_osm_line" class="line">
<path d="M15239848.26042 4334720.29874l39.38484 60.41706 109.67196 157.87525 49.5817 66.95994 10.35271 6.57172 13.15796 3.54817 17.07641 -1.15971 "/>
<path d="M15239838.54223 4335781.15155l22.68691 26.67149 5.07617 11.48584 0 12.83873 -6.86841 8.65578 -18.14508 14.78521 -23.65539 21.93619 -65.62284 83.90655 -1.55847 11.94124 1.19112 8.95937 3.42864 7.79975 8.38236 17.24227 57.65236 43.33333 59.06612 32.60687 30.73531 11.23706 "/>
<path d="M15239989.61391 4335977.26557l139.48332 -5.16303 "/>
<path d="M15240313.59816 4336069.02626l23.05427 -26.50519 15.51794 -24.02039 12.52344 -30.86765 4.89806 -11.0439 7.39161 -13.88773 20.52731 -31.1163 18.80186 -5.39774 15.03926 -2.41587 -0.04453 -5.38393 0.44528 -10.98876 7.7701 -26.05002 9.6514 -20.29338 6.85728 -16.38659 4.15222 -8.04835 12.41212 -13.54278 "/>
<path d="M15239151.08872 4336293.43426l2.07054 15.94417 12.02251 13.87348 36.4794 22.62546 62.59495 47.80458 100.73301 69.91883 26.11555 16.96543 27.16196 10.22894 34.67602 3.69953 180.25965 -20.62353 294.0727 -45.8026 170.21863 -27.19453 21.13957 -7.70283 15.75171 -12.85186 20.97259 -17.0208 15.91869 -24.06108 10.10781 -25.84191 86.5843 -298.59454 28.33081 -92.10628 11.62175 -46.67466 22.69804 -77.80536 30.77984 -111.62875 5.48805 -17.64314 7.07992 -29.9437 11.64402 -47.42138 20.14883 -55.76008 9.8963 -30.81381 1.30244 -19.27248 -3.85165 -35.46643 -20.99486 -71.81677 -34.09716 -129.12505 "/>
<path d="M15240330.61891 4335798.21469l44.62798 16.53852 80.78455 29.9156 "/>
<path d="M15239719.40811 4335949.7662l-68.38356 83.03629 -82.91076 72.99962 -133.06019 90.47577 -60.88063 42.78039 "/>
<path d="M15239219.09379 4336300.28129l-18.33432 1.14577 -30.30117 -1.94643 -19.36959 -6.04636 -6.32295 -1.65654 -73.27049 -26.61508 -72.56918 -29.14138 -69.9309 -14.45338 -59.76743 0.63501 -44.79496 10.67093 "/>
<path d="M15240226.04538 4335312.02894l-53.74505 35.48069 -42.29027 33.92054 -59.68951 57.58321 -68.3947 89.45976 -79.59344 120.70048 "/>
<path d="M15239922.33241 4335649.17362l-57.80821 89.38899 -25.98197 42.58894 -65.63397 102.57169 -53.50015 66.04295 "/>
<path d="M15240087.48601 4335014.51117l117.51999 -42.95092 "/>
<path d="M15240205.00599 4334971.56024l34.45338 7.62101 "/>
<path d="M15240309.94688 4335269.7833l-83.9015 42.24564 "/>
<path d="M15240492.31047 4335065.49705l50.22735 27.97103 44.63912 29.11685 17.65527 23.56678 32.07115 129.16771 16.95396 81.1501 0.77924 58.39788 -7.46954 32.3741 -32.44963 39.6219 -43.15857 67.39831 "/>
<path d="M15240328.15875 4335144.23269l3.58449 -19.64589 -2.28205 -11.72128 -21.23976 -92.04495 -8.21538 -39.56839 0.67905 -11.74905 9.6848 -10.86547 34.38659 -34.10135 27.81874 -26.52181 19.18035 -15.04884 25.98197 -10.7413 25.08028 -4.48705 31.94869 -6.26807 73.03672 -18.07248 45.19571 -5.2188 45.08439 13.14363 38.83937 8.26999 32.14907 1.71198 39.75219 12.27381 50.57244 52.58807 44.08252 34.59836 78.34666 60.19481 32.38284 20.08787 40.04162 15.6837 26.67215 17.25757 30.65739 30.09713 23.75558 26.13474 32.76133 47.10587 16.46415 26.79724 18.80186 26.57628 35.04338 31.18735 55.42597 30.99398 "/>
<path d="M15240366.8868 4335668.94281l18.7462 6.44706 20.0709 8.40741 "/>
<path d="M15240379.65514 4335897.32117l-4.58636 18.5953 -7.01313 14.96457 -7.05766 23.08185 15.98548 8.73851 "/>
<path d="M15240571.22486 4335644.99062l-19.72581 -8.40744 -22.98747 -2.67823 -17.02075 2.0846 -12.41212 4.55576 -14.01512 4.43151 -11.65515 2.27788 "/>
<path d="M15240379.65514 4335897.32117l-71.73428 -21.30112 "/>
<path d="M15240336.61903 4335912.16152l-4.73108 16.28985 -5.41013 6.29506 -2.69393 7.20618 -5.399 1.49093 -8.10406 -8.3934 -8.10406 -6.90247 -5.87767 -5.45296 "/>
<path d="M15240194.04102 4335975.81605l27.78534 -58.93323 9.26178 -16.57978 26.93932 -27.8585 "/>
<path d="M15240571.55881 4335554.26172l-14.4604 -14.88226 -54.56881 -77.07609 -8.41575 -8.49041 -9.90743 -2.7197 -20.98372 -1.36675 -50.11603 0.53842 "/>
<path d="M15240571.55881 4335554.26172l7.44727 7.51015 2.44903 9.24963 -10.23026 73.96912 -14.80549 91.04565 -7.85916 23.9934 -10.29705 19.41005 -6.84615 5.85338 -16.05227 3.7688 -18.86865 14.86811 -23.90029 19.14767 "/>
<path d="M15240515.36474 4335789.0619l-25.52556 -10.64376 -12.69042 -6.26754 -5.26541 -6.54364 -5.27654 -16.91133 2.22639 -20.56974 7.98161 -31.1722 2.20413 -20.2109 1.19112 -15.1582 -2.7162 -8.21415 -4.08543 -6.11575 -9.90743 -1.36673 -7.78123 -1.3115 -6.84615 0.53841 -30.25664 0.01381 -17.78885 0.01381 -15.69605 -0.28991 -11.16534 -5.85345 "/>
<path d="M15240531.41701 4335785.29309l-2.56035 45.07367 2.53808 4.45904 10.99837 12.41075 2.83865 4.18293 6.32295 14.31583 3.82939 4.48663 6.22276 3.60311 2.70506 4.99742 1.40263 6.18464 1.24678 19.65831 -1.72545 5.38394 -8.14859 8.69713 -8.5382 6.90248 -12.56797 15.15783 -10.92044 15.33727 -19.5477 34.26374 -24.03388 29.72185 -21.59598 38.63966 -47.96757 52.07152 -17.6664 25.77337 -8.14859 9.51142 -15.18398 -6.52961 -5.55484 -4.15521 -8.09293 -16.35856 -13.19136 -14.01179 -30.47928 -36.04419 "/>
<path d="M15241233.83186 4335292.88037l-14.61625 24.68468 -14.17097 2.04325 -11.59949 -7.2342 -13.18023 -11.85914 -19.0579 -9.96776 -21.01712 1.9052 -29.25476 19.01052 -21.71843 12.24568 -23.36596 -2.09847 -30.71305 -14.77214 -21.01712 -16.38743 -39.98596 -27.99813 -56.73954 -41.83166 -58.79896 -38.54602 -10.7312 -2.15372 -12.66816 3.94849 -21.62938 11.67979 -14.83889 7.24809 -11.76647 -1.46342 -6.38974 -6.22645 -9.4065 -15.15888 -14.53833 -29.76558 -47.9453 -87.44722 -13.12457 -22.14494 -8.73858 -5.99184 -18.20074 -1.8086 -150.80451 -15.40761 -7.89255 3.57578 -16.00774 33.85253 -1.603 10.68589 "/>
<path d="M15239596.88988 4335131.07561l-11.55496 -63.82519 -10.00762 -50.73736 -18.40111 -69.58306 -13.02438 -50.25471 -35.77808 -98.094 -34.5981 -83.17005 -51.64111 -101.98912 -28.9542 -48.83417 -94.16516 -149.95557 "/>
<path d="M15240621.01806 4336765.02649l-91.61594 -137.21143 -171.87729 -165.64993 -185.12431 -179.595 -162.30382 -59.49754 "/>
<path d="M15240246.20534 4335683.16224l21.37334 -3.86547 27.38459 -14.63359 5.1207 -20.70795 -2.00375 -39.06911 -24.82425 -51.90829 -3.11695 -55.08381 -2.00375 -77.44914 2.00375 -41.14077 6.23389 -73.30827 -9.23952 -36.30917 -10.64214 -68.25606 -26.33819 -75.76694 -107.62368 -154.46238 "/>
<path d="M15238706.65678 4338142.28962l120.78165 -118.56083 124.67783 -203.30933 40.40898 -159.28236 0 -176.40036 -10.13007 -189.79234 -36.73543 -98.00317 -20.48279 -54.52328 -14.19324 -26.01943 -70.40958 -117.53684 -35.84488 -41.82493 -18.47904 -39.47846 -4.67542 -39.47861 0 -39.47875 1.22451 -32.57698 11.57723 -32.57708 33.50717 -44.17247 34.62036 -37.27066 6.90181 -35.89039 -5.78861 -38.37524 -9.01688 -25.26147 -11.68855 -25.8137 -22.93182 -27.6083 -52.98808 -42.93105 -19.36959 -24.01938 -8.68292 -23.88139 13.35834 -86.00104 -4.5641 -50.38616 -9.90743 -84.75971 4.23014 -60.18808 21.1507 -100.91242 16.5866 -60.74118 11.79987 -12.56242 18.59035 -5.1078 43.9712 0 23.15445 5.66 78.03496 33.26968 33.61849 19.18869 73.35954 52.59616 55.77106 38.37709 48.09002 49.97284 68.12753 87.38289 49.64849 48.17762 27.38459 21.94905 47.9787 20.15443 20.14883 12.00981 40.85425 17.94567 18.03376 8.00652 22.8205 3.175 80.59531 1.10435 25.26952 -3.72717 34.62036 -9.93913 143.15687 -53.00885 153.39826 -39.48072 67.12565 -34.23515 31.50342 -26.50471 13.24702 -16.56547 "/>
<path d="M15240678.12496 4334709.70915l-5.45466 -0.82839 -42.52405 -20.98592 -14.69417 -3.86583 -20.92806 -4.69423 -54.21259 0 -22.37522 4.0039 -21.7073 6.90327 -17.03188 9.38844 -33.28453 28.02721 -12.35646 14.63487 -25.60348 35.89676 -23.26577 34.93019 -21.59598 29.54561 -16.36397 16.29147 -18.47904 16.42951 -30.77984 26.34238 -12.86853 18.40373 -26.97271 14.99357 -26.16008 4.85979 -52.39808 17.75478 -18.84639 9.95426 -20.1043 -5.46725 -17.58848 8.97402 "/>
<path d="M15240893.19422 4336408.32836l-61.671 -72.19692 -135.03054 -85.72584 -130.13248 -135.97555 -72.88087 -84.31951 -21.47353 -19.32676 -10.1746 -8.60042 -97.63833 -50.5673 "/>
<path d="M15240010.0967 4336223.07259l22.93182 -28.71355 35.17696 -97.18489 3.56222 -42.65671 -10.79799 -119.55013 0.44528 -70.12933 10.35271 -55.08222 22.70918 -76.48053 15.02813 -27.47238 24.26765 -12.01056 37.29203 -5.79821 19.03563 -3.03716 40.85425 1.10442 15.25077 -2.89911 "/>
<path d="M15241381.21887 4335301.02577l-7.90368 -5.79842 -12.46778 -14.08188 -13.91494 -19.32811 -9.23952 -17.94756 -13.24702 -22.50352 -28.60911 -33.41022 -6.12257 -15.60068 -7.01313 -25.67904 -6.12257 -12.42536 -28.72043 -33.41049 -9.23952 -17.94783 -9.35084 -24.85089 -4.5641 -23.33227 -3.89618 -11.59713 -7.79236 -7.86948 -14.69417 -7.73143 -10.79799 -9.38817 -7.01313 -10.7688 -3.11695 -8.55982 -10.79799 -37.41477 -7.01313 -11.59723 -11.57723 -10.90693 -17.03188 -10.07856 -19.36959 -5.5225 -58.77669 -3.86575 -28.72043 -0.69031 -13.91494 3.03738 -13.1357 4.69413 -19.36959 7.7315 -14.69417 0.82837 -11.57723 -3.17544 -11.68855 -7.7315 -20.03751 -16.2914 -44.19384 -27.33647 -17.03188 -16.98178 -18.59035 -25.67982 -12.35646 -7.86963 -12.35646 -2.34709 -16.25265 -0.69032 -22.48654 0.69032 -27.82987 7.04125 -18.59035 6.21287 -16.25265 0 -8.5716 -4.69417 -20.03751 -14.77283 -11.68855 -11.59738 -6.12257 -10.90707 -0.77924 -12.42579 12.35646 -38.93422 0.77924 -10.07874 -1.55847 -7.73164 "/>
<path d="M15240122.52938 4334971.20128l-2.22639 -4.14185 -104.30636 -154.3542 -50.65037 -89.32764 -59.88989 -75.93598 -30.50154 -42.66245 -58.44273 -88.36289 -44.86175 -79.52722 -22.2639 -49.98095 -5.67729 -34.24122 3.67354 -61.99346 13.35834 -27.47606 53.76731 -53.98583 35.06564 -37.00323 15.58473 -29.54745 1.00188 -14.63568 -9.79612 -36.86543 -22.8205 -53.02017 -3.56222 -41.69834 5.1207 -60.75283 6.79049 -45.2887 0.66792 -20.98751 "/>
<path d="M15239897.33005 4336953.03369l-148.94548 -5.93557 -93.16328 -99.38671 -118.00979 -30.9205 -148.94548 -30.78255 -49.75981 -87.10266 -12.5791 -112.08877 117.88734 24.70932 93.17441 61.98012 111.76477 24.70912 80.81795 93.3144 130.35512 30.78253 74.47274 55.90527 -37.06939 74.81598 "/>
<path d="M15240079.98307 4336517.13359l17.79999 18.29054 9.48442 9.38683 20.09317 11.15376 -0.05566 16.53735 -8.2933 19.61564 -11.29893 27.30448 -13.23589 33.37818 -8.46028 9.24869 -25.49216 12.4236 -27.16196 8.55847 -98.07247 0 -6.23389 1.51844 -13.1357 7.86827 -7.01313 10.07689 -2.22639 8.55845 -4.67542 39.61726 -2.33771 35.75204 -5.45466 10.07681 -6.12257 3.86507 -11.68855 3.17488 -20.81674 -0.82823 -12.35646 -2.34665 -41.74481 -18.63519 -17.81112 -4.69331 -30.94682 -3.03685 -20.81674 -4.69332 -27.05064 -11.59526 -28.72043 -17.94507 -21.7073 -9.24862 -16.14133 -4.69333 -15.58473 -3.03686 -39.4071 0 -9.35084 0.6902 -8.46028 3.1749 -7.01313 1.51843 -24.71293 10.07686 -17.6998 7.03999 -19.36959 -0.82823 -15.36209 -7.73019 -41.07689 -41.27379 -18.47904 -20.15381 -27.82987 -30.36883 -21.7073 -19.4637 "/>
<path d="M15239318.11248 4336497.90432l-12.40099 89.65804 -5.83314 71.13232 -3.07242 76.73625 1.70319 79.91058 6.54559 79.16459 9.13933 77.43855 12.73495 79.82601 13.91494 71.47435 17.12094 68.57518 34.23074 116.09921 30.65739 97.58807 29.38835 81.14788 30.79097 72.16161 41.92292 71.99549 44.31629 67.8266 53.32204 72.7399 64.0755 79.3232 70.54316 75.37513 75.8865 75.01575 93.53064 83.13092 89.58993 70.15631 89.52313 60.8809 90.32463 60.59071 83.18906 48.2929 91.56028 48.29268 89.75691 41.41919 69.46336 27.47929 64.20908 21.86192 67.8381 19.87444 68.3279 17.95597 75.27424 16.27214 72.14616 12.6975 78.71401 10.32361 643.03704 73.01026 549.88489 59.27734 233.2366 27.75466 968.769 125.55063 809.92722 110.02294 986.82502 133.48343 500.7262 63.01487 577.06911 84.81969 1193.55645 139.16578 1033.90203 132.88481 413.05097 47.33525 445.87909 41.95293 216.23811 22.94984 156.52634 21.74917 132.9266 22.34254 99.48623 21.74908 104.68485 27.21389 118.83356 33.47907 106.28785 32.29216 95.79042 32.58186 92.98517 36.29395 261.37816 119.29999 179.63626 83.07452 105.98729 53.5289 104.02806 64.30609 "/>
<path d="M15239251.89965 4336448.22282l31.16946 16.84121 25.04689 13.25208 17.47716 6.34995 18.14508 4.83148 17.81112 2.89889 21.59598 2.89889 15.25077 0.13804 19.87053 -4.63822 "/>
<path d="M15240786.96203 4335201.33396l63.81946 128.8219 330.28493 130.32517 "/>
<path d="M15239696.17573 4336993.75434l-5.23202 -1.10429 -14.13758 1.51839 -20.70543 9.38643 -25.60348 20.1532 -10.90931 5.38338 -1.55847 -3.03678 -10.79799 -16.2882 -17.03188 -43.61936 -13.91494 -26.36495 -20.03751 -24.29446 -16.25265 -10.0767 -30.8355 -9.93867 -23.26577 -3.31289 -42.63536 -15.46017 -27.71855 -5.5215 -21.59598 -3.03682 -17.81112 -4.00309 -27.05064 -15.46021 -14.69417 -10.90499 -13.1357 -13.25164 -17.03188 -20.15357 -23.15445 -37.40844 -29.38835 -48.17564 -12.35646 -24.84712 -16.25265 -49.83245 -24.82425 -81.58215 -14.69417 -34.09628 -26.2714 -37.4094 -10.79799 -10.07709 -22.48654 -17.11727 -16.47528 -15.59883 "/>
<path d="M15239927.275 4336428.06854l3.00563 -57.56413 6.23389 -6.21197 21.7073 -3.17501 78.14628 -2.34675 28.60911 -3.03697 17.81112 -3.17501 4.67542 -8.42069 0.77924 -25.67625 "/>
<path d="M15239091.1543 4334642.74737l16.25265 18.77695 16.25265 8.56007 17.81112 13.25429 30.16758 27.19886 66.68037 45.00913 32.50529 28.85544 60.33516 58.26291 20.92806 15.60115 48.75794 20.98559 13.34721 29.97342 7.31369 26.52178 -4.90919 47.43807 -1.3247 70.41119 0.15585 44.16553 0.93508 49.45303 9.97423 19.066 -1.44715 13.94398 19.25827 20.8469 10.79799 15.0484 7.68104 19.32819 9.35084 37.41375 17.81112 47.35375 29.38835 58.26002 22.48654 55.91275 26.60536 114.99989 10.4863 13.90206 64.39833 10.58875 "/>
<path d="M15239538.10206 4337416.27385l-2.00375 -4.83107 -12.35646 -20.98066 -15.47341 -13.94112 -19.36959 -7.72974 -39.29578 -4.69306 -13.1357 -7.03959 -9.23952 -13.94116 -3.89618 -10.90449 -5.45466 -31.05714 -10.01875 -22.49923 -3.11695 -5.52129 -15.47341 -40.44354 -11.57723 -25.67413 -5.45466 -15.45972 -1.55847 -14.90761 0.77924 -16.97814 6.23389 -45.8273 -0.77924 -49.69247 -10.01875 -32.71434 0.77924 -19.32497 8.46028 -12.42321 6.23389 -3.17482 40.18634 -9.38644 26.16008 -3.86501 28.60911 0.82822 23.26577 7.73001 8.5716 5.52143 13.02438 15.46 13.91494 32.71439 19.36959 58.2507 6.23389 10.90472 3.78486 3.86496 10.01875 3.86496 13.91494 -0.82821 52.76544 -35.61289 13.02438 -11.73295 22.48654 -28.71128 8.46028 -6.21159 7.79236 -2.3466 27.05064 0.69018 27.82987 17.11636 14.02626 10.90477 10.01875 11.73296 13.1357 23.18982 6.90181 3.86497 9.35084 -2.34659 3.78486 -4.69317 3.11695 -6.90173 -1.55847 -9.24832 -6.12257 -10.90475 -22.48654 -23.32792 -13.91494 -12.42317 -24.71293 -16.28818 -34.06376 -20.29124 -7.79236 -3.865 -2.33771 -0.41411 "/>
<path d="M15240534.4115 4337035.16502l-35.62224 -85.30617 -3.67354 -49.83126 -1.66979 -43.48176 3.89618 -110.5687 7.01313 -34.92393 10.79799 -35.75228 17.81112 -28.85039 10.01875 -6.21182 23.37709 -9.66283 3.89618 -6.62595 -2.44903 -5.38358 -2.33771 -2.34669 -32.50529 1.51845 -13.91494 2.34669 -13.58098 11.73345 -4.78674 0.96628 -3.56222 -5.38358 -0.5566 -20.56806 3.89618 -6.21184 10.79799 -7.73029 13.91494 -5.52164 34.50904 -2.76082 5.34334 -12.28566 -2.78299 -8.28248 -4.5641 -3.03691 -10.01875 2.3467 -17.1432 6.90207 -13.91494 -3.03691 -11.46591 0 -21.7073 10.07701 -13.02438 10.90525 -8.68292 10.07699 -6.90181 5.52164 -9.23952 -2.34669 -2.44903 -9.38678 0 -8.4205 11.02063 -14.0802 32.39397 -29.54088 8.5716 -4.69342 12.24514 -3.86517 20.92806 0 55.65975 19.46387 13.24702 -0.82825 6.12257 -5.38362 3.89618 -6.21187 0 -14.08026 -10.79799 -30.36925 -10.24139 -18.63572 -13.1357 -18.63575 -4.23014 -8.55865 "/>
<path d="M15240386.10054 4336146.12563l-6.86841 54.03135 -12.46778 12.56218 -47.9787 35.61577 -24.71293 14.90889 -0.89056 6.48812 2.33771 2.34677 7.79236 0.41414 52.65412 0 27.05064 8.55879 -7.68104 10.07728 -15.47341 10.21531 -6.23389 6.90223 -3.11695 8.55876 0.77924 10.90551 17.1432 7.86853 51.87488 0.69022 13.91494 -4.69351 26.38272 -17.80773 73.47086 -65.43332 20.03751 -14.63282 7.79236 -0.82827 9.23952 5.38378 4.67542 7.04032 -1.44715 15.59912 -24.93557 52.8712 -6.79049 27.19475 0.66792 35.75339 3.89618 25.67611 17.81112 37.27166 3.78486 8.55866 "/>
<path d="M15239811.83669 4335023.52656l23.26577 -8.14561 -5.45466 -14.08225 -22.37522 -30.37354 -26.38272 -26.36983 -18.59035 -28.85502 -31.72605 -34.10148 -8.46028 -17.94819 -4.67542 -22.50431 0.77924 -51.35971 12.35646 -44.31866 0 -31.89298 -7.68104 -19.46719 -21.7073 -36.4493 -54.9807 -55.69587 2.84978 -67.70801 -11.221 -24.87976 "/>
<path d="M15239721.33394 4335528.98395l5.34334 -75.12958 0 -78.55391 -7.68104 -79.10671 -6.23389 -36.58532 -2.22639 -24.85048 6.34521 -28.57812 -9.43989 -53.71879 "/>
<path d="M15239682.32759 4334869.43548l54.32391 105.93526 9.95196 23.41524 2.34884 21.66181 -3.25053 24.40918 -9.0948 17.64416 -9.90743 11.66611 -35.93393 10.42356 -64.77681 6.19891 "/>
<path d="M15240033.76322 4334741.80924l32.97283 7.11033 24.51255 13.0471 21.60711 19.09429 20.82788 28.67589 54.07901 86.01342 18.55696 29.145 "/>
<path d="M15239616.78267 4335394.98731l-14.85002 -73.62569 -12.06703 -34.27967 "/>
<path d="M15239484.53512 4334708.89457l16.80924 13.7927 12.43439 14.055 46.75419 86.16587 39.35144 104.29278 41.75594 106.50074 11.32119 17.10574 17.07641 6.44743 20.54958 1.21493 12.47891 -4.43175 16.5866 -14.38593 8.27104 -10.54786 8.2933 -19.52184 "/>
<path d="M15239864.4908 4335460.75714l53.08827 91.04721 1.28017 16.24898 -2.93883 13.58452 -24.81311 55.9255 -49.84887 74.35521 -72.85861 116.84681 -1.0798 5.61867 3.74033 4.33479 5.52145 1.93271 7.51407 -1.07679 62.17194 -101.55053 18.2564 0.5384 "/>
<path d="M15239910.91103 4336094.55125l0 8.83503 -0.66792 25.53871 -5.45466 15.46125 -22.48654 24.0201 -16.25265 33.40718 -5.34334 6.21207 -15.58473 6.21206 -20.81674 1.5185 -15.58473 -2.34678 -17.81112 -4.55551 -10.79799 -2.34678 -20.81674 3.86529 -37.18071 13.94263 -39.51842 18.63615 -17.03188 7.04032 -22.59786 6.21204 -44.08252 4.69354 "/>
<path d="M15240118.6332 4336393.17119l-1.15772 35.96028 -5.96672 42.93132 -14.7053 29.81715 -16.82038 15.25365 "/>
<path d="M15239933.39757 4335853.51785l-21.60711 104.98686 -0.87942 22.70906 3.89618 7.73073 56.5503 28.57605 8.5716 6.21217 3.78486 7.17851 -0.77924 23.88231 -3.78486 18.91254 -6.23389 16.28961 -12.15609 8.54513 -24.24539 0.0138 -25.60348 -4.00337 "/>
<path d="M15239542.13182 4335095.98077l-2.25979 -13.11572 -0.25603 -84.64512 0.04453 -20.73684 1.83677 -35.08153 2.4045 -45.72627 "/>
<path d="M15239707.44127 4335152.46103l63.11815 -39.49888 25.61461 -42.79867 15.66265 -46.63693 "/>
<path d="M15241233.83186 4335292.88037l29.38835 18.63776 28.72043 5.52229 10.24139 4.41783 8.23764 7.17898 17.81112 16.29073 26.38272 34.23807 13.1357 19.46595 7.68104 17.11897 15.58473 29.54396 15.47341 20.98444 21.03938 20.9844 9.1282 6.90276 14.02626 6.35053 16.03001 1.65666 12.35646 -5.24609 "/>
<path d="M15239972.13675 4335411.88539l-160.30007 -388.35883 "/>
<path d="M15238231.87915 4336038.08973l18.5013 -14.0395 29.03212 -56.24101 2.7162 -60.74173 0 -41.62209 21.77409 -65.24277 14.50493 -11.25117 29.03212 -3.36845 40.82086 18.00188 45.35156 12.36937 35.37733 0 25.39198 -21.37031 35.37733 -60.75651 18.14508 -34.87199 19.04676 -8.98722 35.37733 12.3695 62.58382 43.87296 53.52241 12.36944 63.25173 -8.58682 68.72865 -16.13827 40.36445 1.64282 51.48526 16.63525 30.34569 22.32295 32.4385 18.65074 92.45084 26.61624 74.19444 25.13904 53.57807 36.40387 67.35942 68.29317 28.79835 47.77873 14.72757 43.59566 9.07254 25.87018 10.87591 15.75123 20.86127 8.04817 79.74928 -0.0138 82.43208 -4.15523 30.76871 -12.70038 19.64789 -27.08498 23.97822 -40.17204 14.58285 -35.20242 4.57523 -33.80824 -3.32845 -44.21731 -6.54559 -89.91231 -1.90356 -125.65484 8.39349 -69.6064 13.83701 -34.19593 13.85928 -15.06171 21.57372 -12.10736 42.74668 -17.7262 143.15687 -68.2268 107.64595 -48.87175 54.37957 -24.10462 57.16256 -26.21695 75.3633 -37.26158 15.58473 -20.62577 1.49168 -23.44219 -8.71632 -19.97698 -21.429 -25.98256 -111.35289 -102.45361 -19.06903 -29.72429 -10.16347 -41.00392 -9.98536 -29.68307 -16.49755 -22.44874 -25.7482 -15.82183 -32.10454 -14.1375 -25.04689 -18.65215 -22.48654 -25.37581 -17.07641 -36.9179 -11.02063 -62.5978 1.75885 -19.7569 8.86103 -14.67619 31.6036 -20.30922 "/>
<path d="M15238939.64847 4336448.22282l-31.94869 -20.98253 -23.15445 -24.01953 -5.45466 -8.5587 -14.80549 -17.94567 -0.66792 -2.2087 0 -18.77397 2.33771 -7.73047 9.23952 -7.04025 48.64662 -11.59572 39.62974 -4.69351 88.27636 1.51849 23.93369 4.69351 17.03188 5.38373 19.36959 17.11748 11.57723 12.42396 44.19384 35.75331 19.36959 17.11737 64.67662 29.54121 "/>
<path d="M15239307.34788 4334405.00898l87.69749 141.49219 31.90417 51.04332 57.58557 111.35009 34.20848 81.88611 36.56845 102.07028 14.4938 55.25257 14.92794 58.53815 11.93345 59.62851 11.93345 63.20393 5.58824 45.03499 3.68468 48.50007 3.09468 50.88825 0.06679 43.84709 -4.2524 77.24279 "/>
<path d="M15239975.88822 4335977.55547l-17.57735 -10.1604 -46.52042 -8.89036 "/>
<path d="M15239374.17298 4336239.05827l-41.73368 28.60299 -41.54443 20.87241 -27.5961 8.69682 -44.20497 3.05079 "/>
<path d="M15239589.86562 4335287.08195l-14.57172 -40.06442 -30.75758 -129.69267 -2.4045 -21.34408 "/>
<path d="M15239600.97531 4335536.42509l-20.61637 90.59099 -12.27854 50.08564 -25.29179 77.35066 -123.23068 294.7226 -29.07665 83.03552 -14.30455 59.0563 -4.75334 27.99572 "/>
<path d="M15239726.69954 4335074.16725l-6.03352 19.49412 -13.08004 15.47654 -37.61486 25.67913 -8.83877 10.96193 -7.2469 14.71713 -5.63277 20.17045 -27.21762 137.07798 "/>
<path d="M15240258.02747 4335872.44455l11.12082 -33.9466 8.015 -64.71834 7.63652 -36.19716 5.29881 -9.45656 12.93532 -12.34186 10.94271 -8.22792 7.30256 -7.81376 8.61613 -6.98545 8.62726 -4.52812 6.63464 -2.47114 16.24151 0.82832 "/>
<path d="M15240047.95646 4335440.14544l13.42513 35.7978 "/>
<path d="M15240463.22269 4335449.72651l-3.79599 59.9712 "/>
<path d="M15240026.51632 4335387.78077l21.44013 52.36467 "/>
<path d="M15240415.65587 4335505.00384l43.77082 4.69387 8.80537 1.29772 "/>
<path d="M15240002.96112 4335459.36278l44.99534 -19.21734 73.15917 -32.62262 "/>
<path d="M15240296.29911 4335922.69471l-20.36033 -22.84723 -17.91131 -27.40293 "/>
<path d="M15239736.21736 4335009.58238l-1.72545 -15.15914 -64.73228 -118.36074 "/>
<path d="M15239542.13182 4335095.98077l19.31393 -7.24816 "/>
<path d="M15240405.7039 4335683.79728l-7.46954 30.73047 -14.83889 40.00746 5.22088 14.7163 -0.97961 24.28324 -12.38986 21.21845 -7.04652 23.86898 6.10031 4.92841 6.6903 5.85334 0.18924 8.84903 -2.38224 10.9612 0.85716 28.107 "/>
<path d="M15240481.47908 4336020.12966l10.93157 13.33546 11.78873 22.54324 1.82564 15.97213 0.28943 15.94449 -3.92958 9.52527 -8.09293 15.75119 -4.77561 12.42423 -8.59386 9.55285 -15.28417 7.64779 -11.46591 3.81009 "/>
<path d="M15240313.59816 4336069.02626l-34.66489 -41.56624 -10.96497 -12.65903 -47.31078 -29.07303 -26.61649 -9.91191 -12.24514 -2.91283 -26.16008 -1.54615 -26.53857 0.74546 "/>
<path d="M15240468.23206 4335510.99542l6.17823 0.53841 "/>
<path d="M15240433.09963 4335993.00313l30.13419 15.58568 18.24526 11.54085 "/>
<path d="M15240376.98348 4335962.7014l27.28441 13.5288 28.83175 16.77293 "/>
<path d="M15240418.61697 4335645.12867l-2.58261 13.61203 -10.33045 25.05658 "/>
<path d="M15240468.23206 4335510.99542l2.81638 44.61923 2.80525 0 0.56773 19.09289 -7.70331 41.40232 -4.88693 0.53841 -6.11144 27.92818 "/>
<path d="M15235902.74145 4338935.05408l74.47274 -31.05253 68.23885 18.63153 86.8292 62.38088 61.89364 49.95964 6.1337 93.4322 -24.9467 130.83132 55.77106 37.3998 86.8292 12.55858 80.70663 -37.39976 180.11494 -130.55515 68.23885 -18.63115 148.83416 49.95901 92.95177 74.80007 148.83416 37.53785 136.36638 56.16852 80.59531 49.958 62.00496 68.58836 86.71788 112.19693 92.95177 87.21747 80.59531 -12.28216 99.41944 -56.02893 115.71661 -20.99022 157.11633 8.84598 136.58902 -62.10144 55.9937 -112.0595 55.9937 -105.85037 18.70167 -118.41012 6.34521 -112.06299 6.35634 -99.64319 -18.47904 -99.64411 -18.60149 -87.22386 -24.60161 -112.20514 -6.12257 -99.64688 26.39385 -117.36919 101.90186 -229.11099 83.21132 -108.15312 74.58406 -93.30295 43.52592 -105.86394 55.88238 -68.46015 62.00496 -1.39405 86.8292 57.57006 12.5791 -87.09363 -12.35646 -87.23236 18.81299 -93.44431 37.29203 -68.59996 -18.47904 -81.02305 -26.71668 -88.47731 24.50142 -224.30221 -161.53571 -117.88131 -31.16946 -62.254 62.00496 -81.1654 18.36772 -105.87483 68.02734 -137.21091 -18.70167 -93.31546 -43.64837 -87.10436 -18.70167 -105.87898 30.8355 -87.24396 18.47904 -49.83429 -80.59531 -12.28605 -62.2276 -62.25874 18.4679 -118.30641 43.31441 -87.24663 49.53717 -31.33717 142.66706 -3.21655 121.88371 -13.43222 101.59017 59.44401 111.86496 55.90965 99.40831 93.18211 111.76477 68.19499 99.29699 24.71022 111.76477 6.07401 92.95177 -43.76058 61.90477 -112.37024 18.35658 -143.29446 -31.16946 -105.74646 -25.04689 -105.88555 6.11144 -74.68652 -97.34889 -76.41272 17.6998 -174.17055 -35.59997 -128.66934 6.42313 -22.24118 -2.98336 -15.65583 -14.08192 -16.02861 -30.05626 -38.17331 -88.53239 -2.08469 -69.04035 -9.27759 -12.52344 -5.08059 -6.15597 -10.35446 6.73483 -17.575 17.23226 -22.97318 -3.43977 -28.71654 6.89068 -37.91147 19.52544 -26.41109 29.86702 -27.57087 12.63476 -45.94701 -6.89068 -71.22654 -5.74409 -52.83689 9.19499 -21.82791 17.22113 -9.19507 16.08567 -25.26578 1.14659 -43.65609 -20.28241 -47.20456 -17.23226 -62.61298 -40.77633 -64.89145 -79.41532 -112.93967 -34.11942 -43.04993 -30.85776 -16.25077 10.55309 -21.92546 -22.74257 -51.1688 -59.29989 -97.4782 -52.7877 -103.15388 -40.62048 -90.97671 -33.05076 -135.32738 -27.56271 -116.59196 -37.14731 -77.87595 "/>
<path d="M15241241.07876 4331418.60465l-46.21985 13.74166 -32.72793 9.76417 -17.59961 -7.88591 -35.42186 4.58515 -32.37171 -14.23884 -26.29366 4.52991 -93.36366 7.26443 -133.44981 61.09838 -49.19208 -9.40504 -84.06848 24.41718 -65.26662 69.20472 -31.28078 76.41332 -14.62738 62.5334 17.06528 44.67635 -22.74257 97.47253 -43.87101 66.60618 -47.92304 82.04532 -38.17145 95.84074 -2.53808 52.90538 21.1507 93.35368 -8.89443 56.48135 18.4679 81.06195 32.65001 40.62741 47.11041 17.05463 8.92782 51.97848 17.06528 95.8502 16.24151 17.86911 -9.75159 21.92898 -13.80362 9.74927 -36.55732 -0.81474 -37.35882 19.49851 -20.30468 35.73797 -17.06528 46.30176 -53.60033 74.73418 -77.9793 51.97668 -33.91905 34.6878 -8.52707 8.53385 -8.93896 -4.47405 0 -19.0838 14.61625 -47.91677 -4.46391 -17.06781 -4.06316 -12.17947 -8.11519 0.40046 -13.40287 23.55802 -26.59423 46.53591 -45.49628 115.34467 -8.13745 38.38811 -3.22827 49.33819 3.25053 92.59997 35.53318 28.29351 25.58122 26.40169 7.72557 1.21514 9.74046 -7.30464 6.10031 -15.43781 -0.63452 -43.68994 12.06703 -56.28351 5.16522 -64.33424 5.74409 -59.15635 10.34158 -17.81325 7.002 -7.24959 13.00212 3.65932 17.86678 -2.8446 14.2155 -12.17932 10.96497 -23.15731 49.65962 -38.60944 15.72944 -14.99641 31.26964 -31.2771 15.84076 -39.38304 15.02813 -19.09779 21.92994 -3.24511 27.20648 -21.92867 16.6534 -17.05413 17.06528 -10.56391 10.15234 -6.90452 8.52707 4.05986 0.40075 14.20949 -15.84076 30.46266 -29.2325 38.18177 -25.9931 17.45448 -21.52919 32.49232 -7.31369 17.06775 -3.25053 31.67745 -24.49029 33.01681 -41.35519 165.41394 -41.35519 109.12845 -35.62224 88.11113 -23.5552 33.30557 -10.15234 21.52705 -4.09656 20.04953 8.14859 42.08733 22.79823 54.52825 25.91518 61.33533 81.44134 119.59046 19.45865 62.52177 -12.3342 23.6803 -1.44715 30.30795 16.08567 28.14006 24.69066 62.60377 21.25089 99.93884 5.17636 114.87743 -15.50681 59.73026 -23.5552 61.45582 -11.48817 60.30948 0.57886 66.61894 15.50681 151.62732 -7.46954 40.7852 -29.28816 25.8462 -44.79496 14.92505 -60.94742 56.23452 -42.44612 24.75524 -31.58134 48.81999 -12.63476 26.42566 -4.59749 44.22211 10.77573 17.86551 12.5791 80.90528 24.82425 43.62785 80.59531 -49.97876 80.59531 -93.60725 61.89364 -62.40528 105.51975 5.9368 99.41944 93.33161 105.53088 -0.27613 55.89352 37.27719 74.57293 99.54328 136.4777 -25.26541 111.46421 113.12781 -57.86387 22.78005 -119.04506 -28.46816 -33.7632 -1.97427 -33.12868 31.97491 31.28078 61.96148 34.49791 30.71829 64.48738 26.07942 5.79975 -96.47621 68.16092 37.89752 20.28241 26.50748 6.35634 73.21277 82.8217 19.92185 -12.44552 75.73859 -180.70493 5.71558 74.58406 87.11386 -18.59035 56.0507 -105.53088 -55.77459 -86.8292 -12.28701 -130.23267 43.7638 -80.82908 -80.76298 -12.5791 -68.47644 -37.29203 -62.26423 -42.49065 -58.03998 -44.57232 -45.67012 -41.80047 -3.57575 -64.49851 -32.73406 -8.77198 -22.57289 -5.85541 -18.14118 9.59574 -16.37403 98.77378 -58.02723 86.92939 12.2875 80.59531 -31.34005 -99.40831 -62.12811 -124.12123 18.9146 -124.02104 31.47823 -86.81807 56.19118 38.07127 153.2748 42.86914 -3.89328 93.05196 18.49997 68.46149 86.97705 29.67778 114.2564 29.7557 108.73298 -3.10581 119.5277 6.23389 56.04972 18.81299 93.46157 -55.77106 81.03619 6.23389 37.41173 62.11628 18.49874 -49.42585 124.65861 -99.28585 18.91264 -61.90477 99.8085 -55.65975 106.01964 -111.65345 62.53453 43.63724 74.68204 -24.82425 56.0457 -92.95177 18.91191 -68.23885 37.40959 0.11132 55.631 0.11132 62.80884 -51.58545 51.21309 -134.563 -53.53218 -123.31973 57.94947 -56.5503 44.72496 -43.4146 6.34983 -105.53088 -74.54167 -136.58902 -49.55669 -117.99866 -99.39015 -142.93423 -99.39106 -124.23255 -68.19384 -136.4777 12.7001 -62.11628 -93.31848 -0.22264 -143.15432 -62.11628 18.77445 -18.2564 180.70237 25.04689 149.36362 31.16946 74.68103 68.35017 99.52789 62.2276 111.95053 -105.41956 31.47293 -18.47904 37.4085 49.75981 74.54054 -12.24514 124.64719 89.69011 50.7419 48.33492 27.34476 170.31882 209.43841 35.61111 282.29992 -87.22995 313.87262 -78.0127 263.27881 -266.34301 356.22705 22.58672 578.90943 -29.04326 274.38664 -139.85068 242.34929 -125.39027 206.61568 -550.07413 282.22025 -363.36908 253.57932 -101.36753 242.49276 86.52864 109.32902 127.85044 187.18008 307.93198 446.55592 -10.89818 50.10065 99.28585 -6.2091 92.97404 105.96817 55.87125 80.9932 55.77106 49.9478 55.77106 31.04479 93.05196 -12.4179 55.89352 6.34693 74.36142 37.39162 55.88238 31.18258 68.12753 31.18249 74.48387 0 74.46161 -12.4178 45.86363 -13.79757 78.2576 -23.45591 68.23885 12.41784 43.4146 62.36493 43.30328 74.78225 18.59035 99.61688 -6.34521 87.19851 18.59035 62.36306 55.88238 18.62607 55.77106 12.55533 49.64849 -24.83473 -12.46778 93.40589 -31.05814 43.59834 -49.64849 74.64105 37.18071 99.75054 49.42585 143.20871 55.77106 155.76146 24.71293 118.37169 68.12753 124.57859 62.00496 137.13136 49.53717 87.18925 55.7822 99.60458 30.82437 124.57342 18.59035 143.33353 37.06939 136.98589 37.18071 137.12211 24.60161 130.77479 0.01113 105.80503 37.64825 62.88936 -2.1596 216.08884 47.92304 32.80264 15.5402 80.66814 -14.27116 51.94842 22.62012 17.44943 28.08591 48.30648 15.67378 51.76853 35.6445 64.77583 -30.04513 96.28023 -76.63234 80.38919 -55.88238 74.76086 -37.29203 74.62241 -105.41956 62.20794 -55.88238 24.96583 -43.4146 56.0005 -24.92443 80.96573 -18.60149 74.62035 -6.23389 49.79259 -0.11132 31.17197 55.77106 74.7572 -18.59035 43.58514 -18.70167 80.96307 80.59531 -6.20669 55.87125 -24.82678 55.7822 0 80.59531 43.58476 43.4146 93.51355 24.71293 99.58138 55.77106 56.13481 37.18071 62.2031 -12.46778 62.34066 -12.46778 62.20238 86.8292 -24.82574 62.01609 -24.8258 61.99382 -18.61939 68.35017 -43.58328 30.94682 -49.78997 -124.00991 -0.13792 -111.54213 -31.17057 12.46778 -87.16774 -12.34533 -49.79075 -24.83538 -62.3422 0.11132 -49.79127 -6.23389 -62.20492 -43.30328 -49.92971 -24.82425 -49.79201 -12.35646 -62.34378 12.46778 -68.41306 -117.76489 -31.17222 -74.48387 118.2057 -86.8292 -24.96516 -30.94682 -55.9994 -6.23389 -68.55139 31.05814 -68.42769 37.30316 -24.95187 37.16958 -18.62083 55.88238 -31.17273 55.77106 -18.62092 68.24998 -49.79388 49.63736 -31.03508 62.00496 24.96601 37.18071 74.75974 12.35646 93.37998 24.71293 68.5517 86.8292 -24.96546 93.06309 -55.86215 43.4146 111.99987 111.54213 0.13793 86.71788 130.75699 49.64849 62.3435 61.90477 80.96325 61.99382 43.72266 68.12753 24.82667 86.8292 0.13793 86.8292 -6.20666 62.00496 18.7579 43.4146 55.99766 24.71293 62.34188 -6.23389 74.75461 -18.70167 74.61617 6.12257 68.54712 6.23389 55.99591 24.71293 43.72074 30.94682 43.58265 -241.78593 -12.6886 -148.82303 -24.96349 -111.55326 -24.96354 -74.47274 24.82562 -18.70167 55.99537 -24.82425 99.57725 -30.94682 -124.54066 -6.12257 -43.58268 -68.23885 -31.17 -55.77106 12.41284 -86.8292 18.61923 -74.47274 6.2064 -49.53717 6.2064 -99.29699 12.41279 0 105.78399 6.12257 74.75155 18.47904 80.95728 12.35646 80.95667 6.1337 99.5745 43.29215 105.91757 43.4146 74.74849 61.89364 93.50385 -49.64849 99.57105 -37.29203 99.57013 -24.82425 87.15759 -0.11132 99.56841 -0.11132 80.95038 24.72406 93.36109 68.22772 87.29258 111.43081 105.90854 68.23885 87.15312 78.48024 81.08487 70.35392 83.29063 87.49712 80.53205 23.71105 21.78768 66.45774 80.66918 19.36959 118.17582 -23.59973 143.40882 -73.68237 69.08376 -73.70463 69.22121 -54.88051 93.90297 -42.52405 99.96922 -5.34334 112.10232 -11.24327 143.40102 -17.6998 112.23755 19.36959 111.82274 106.09861 123.67929 124.77802 148.35813 44.08252 105.47643 18.92431 43.43117 50.53905 142.83907 82.37642 260.71779 30.8355 -6.47995 42.96932 -43.98106 74.14991 -6.8936 13.12457 93.33897 80.81795 61.6281 19.48091 130.56216 -11.57723 99.67839 -5.89993 31.15793 0.33396 49.76978 0.23377 18.74977 7.002 111.9465 44.65025 180.18731 51.09565 224.57508 -66.58019 186.52198 -85.49337 131.51468 -110.31762 131.65093 62.90664 136.47414 6.89068 99.52854 -48.75794 93.73795 -73.24822 118.96332 7.12445 118.27278 -5.34334 112.06847 62.78419 123.92184 99.51962 86.28956 86.60656 11.71658 -11.46591 106.00002 31.72605 117.991 56.32766 86.56267 6.90181 93.44004 87.9424 185.95417 119.33449 247.96149 75.02934 117.56952 92.84046 5.51319 31.50342 86.83243 37.84863 99.23621 44.19384 124.18181 13.46966 136.72238 19.25827 93.30652 37.73731 93.03007 74.69538 61.60614 148.13285 0.96475 191.83688 8.54489 61.78232 5.65065 86.60656 -0.6891 49.53717 18.19233 60.40196 -39.77508 123.53124 -47.64484 162.23703 7.16672 141.96575 63.71472 154.61164 -89.94219 117.26395 -72.35674 82.36529 -9.50978 68.42809 4.54816 98.52888 -6.8498 213.28814 30.91365 161.19062 60.77958 117.89847 61.33053 50.08264 86.68907 -50.72829 145.85383 58.29802 40.89054 16.39736 -41.15239 33.86339 -31.79467 12.11156 -47.83689 18.223 -56.13385 31.21399 -57.74664 -0.44528 -72.27332 -43.71516 -72.53567 32.60548 -122.75908 84.55829 -131.1954 110.48459 -24.57433 202.02261 -19.70912 158.90857 -18.70303 61.671 -12.95569 19.64789 -15.02311 6.47879 -24.62967 8.21538 -56.92273 49.47038 -114.76982 85.7828 -87.56328 96.53626 -138.87878 143.52422 -175.69607 -33.84113 -410.61643 92.61782 -6.89198 61.671 -31.70318 48.75794 -81.32597 47.75606 -236.95153 35.51092 -224.41263 41.96745 -187.06004 104.08372 -137.85029 129.13061 -94.42846 98.51775 -56.93318 -6.79049 -86.98566 -0.87942 -112.07605 61.43723 -62.86235 5.24315 -118.28147 60.99195 -125.03788 135.3645 -82.02674 61.1144 -100.08725 10.90931 -211.7579 73.35954 -118.97777 147.72096 -94.57655 135.14186 -113.18964 61.22572 -87.68487 104.75164 -56.9404 23.93369 -106.02299 91.9499 -106.57552 117.44206 -7.16941 117.6647 23.98994 5.79975 -137.87395 55.64861 12.27085 80.37267 -18.88885 -42.858 156.07328 -61.44836 50.3235 -92.84046 -17.92341 "/>
<path d="M15240083.67888 4335361.56382l-10.56422 -28.35689 57.32954 -29.25434 7.16898 -23.29032 -96.19117 51.26074 -32.48303 -39.87097 58.29802 -30.92496 -13.9706 -27.32172 -61.37044 32.52651 "/>
<path d="M15240060.19047 4334813.39555l11.45478 17.46505 10.94271 14.48286 7.45841 16.41572 23.5886 28.37194 8.66066 17.00932 22.39748 22.1038 15.52907 11.63864 1.29131 4.03141 9.25065 11.3487 14.96134 10.258 -27.3178 10.45127 1.93696 12.53599 10.74233 21.49616 14.92794 18.514 8.96122 8.36649 -13.45853 -3.98996 -32.24926 14.33072 -26.87253 -38.82276 -16.72019 -29.25522 -21.49579 -30.45644 -27.47365 -38.21564 -25.08028 -29.26929 -21.29542 -38.65768 49.86 -30.15309 "/>
<path d="M15240218.11943 4335139.02784l23.28804 39.41594 1.79224 40.00945 2.98336 39.41565 -1.79224 29.84812 50.16056 -28.06717 -4.21901 -32.83026 -15.41775 -35.85385 -7.82576 -26.8525 -11.94458 -28.67495 -36.42374 -55.52773 -13.1357 -21.49602 -10.60875 -20.52964 -13.45853 -3.98996 -32.24926 14.33072 22.87616 32.27856 27.46252 25.6792 18.51243 32.84443 "/>
<path d="M15240244.39083 4335287.71701l6.43427 77.64337 -1.20225 24.47743 -1.49168 18.95513 -4.77561 14.92386 46.42023 1.06303 -0.58999 -43.59816 8.05953 -42.99088 -0.28943 -33.60314 -2.4045 -44.9378 -50.16056 28.06717 "/>
<path d="M15240289.77579 4335424.77982l-46.42023 -1.06303 -0.75697 6.87518 0.30056 34.4863 5.37673 26.7275 2.24865 11.92795 0.43415 55.09758 8.07066 18.3612 13.20249 22.35092 6.56785 17.7675 0.37849 28.41137 -6.05578 10.10548 -8.50481 6.41946 -5.53258 2.38831 -5.13183 0.49699 3.88505 31.64167 16.70906 -8.65589 28.58685 -6.61272 7.99274 -6.68175 7.5252 -8.69733 4.5641 -9.80176 -0.14472 -22.25416 -6.86841 -22.69598 -14.62738 -41.0434 -0.90169 -45.39228 -7.60312 -26.42369 -0.30056 -17.31211 -0.45641 -36.5847 -2.53808 -19.83862 "/>
<path d="M15240253.95317 4335665.13255l-23.13219 -1.0492 -7.11332 -3.63079 -6.26729 -5.66017 -3.95184 -8.3246 -10.83139 0.11044 -33.65188 17.80884 -16.72019 8.79396 -32.10454 3.43751 -18.95771 -1.47716 -13.1357 -0.91115 -28.29741 -11.52741 -26.63875 -8.32459 -9.10593 1.18726 -2.02601 1.75327 -3.06129 8.71114 -2.01488 10.54723 1.49168 12.54899 0.58999 5.06653 5.53258 7.92421 17.39924 12.72842 11.85553 8.91817 5.97786 12.68698 1.03527 12.2452 -3.62902 8.5454 -3.38411 8.91814 -4.08543 15.26849 -6.27842 24.62834 63.60796 3.58933 13.73683 -48.66309 5.06504 -24.7803 13.43626 -22.99948 10.15234 -4.77661 32.23812 1.18725 15.15058 4.59714 17.91131 -1.20105 23.88916 -7.16491 19.20261 -9.07004 -3.88505 -31.64167 "/>
<path d="M15240107.05597 4335809.64532l-9.26178 36.72151 -4.18561 47.47548 1.49168 58.96097 4.64202 28.67278 4.01863 23.59252 4.17448 28.21708 -80.75116 5.50812 2.08167 -32.38613 1.49168 -47.61303 0.74584 -55.68915 0.60113 -50.01557 5.82201 -24.04842 5.52145 -22.98548 63.60796 3.58933 "/>
<path d="M15239561.44575 4335088.73261l63.49664 -5.93659 "/>
<path d="M15239561.20085 4335096.98861l-19.06903 -1.00784 "/>
<path d="M15239625.9888 4335090.78971l-64.78794 6.1989 "/>
<path d="M15239624.94239 4335082.79602l57.44086 -5.37055 24.87991 -8.02131 16.82038 -13.35046 11.63289 -26.50768 0.50094 -19.96364 "/>
<path d="M15240224.87652 4334954.04019l14.58285 25.14106 37.93768 59.9462 27.17309 52.54584 23.5886 52.55939 16.72019 50.75057 13.1357 54.33984 -48.06776 20.4602 "/>
<path d="M15240206.31956 4334924.89527l18.55696 29.14492 "/>
<path d="M15240205.00599 4334971.56024l-12.6125 -37.13867 "/>
<path d="M15240192.3935 4334934.42157l-5.67729 -22.69745 1.0464 -15.97384 "/>
<path d="M15240463.22269 4335449.72651l-5.83314 -13.08768 0.31169 -7.84157 7.23577 -12.35601 11.75534 -31.6563 17.18773 -81.4122 4.49731 -35.8812 -1.20225 -16.60839 -10.56422 -18.11325 -13.29155 -14.49614 -12.41212 -13.4193 -12.42326 -6.25406 -8.41575 -1.75335 -8.02614 -0.59365 -7.29143 4.84587 -3.82939 8.09024 -1.29131 10.47865 -0.43415 12.34243 "/>
<path d="M15239616.78267 4335394.98731l-3.97411 -75.93125 -1.79224 -40.79601 -2.74959 -48.30654 -5.38786 -56.01045 -5.98899 -42.86745 "/>
<path d="M15239600.97531 4335536.42509l9.69593 -62.95304 3.98524 -39.64956 2.1262 -38.83517 "/>
<path d="M15239318.11248 4336497.90432l53.3109 -278.6418 "/>
<path d="M15239975.88822 4335977.55547l13.72569 -0.2899 "/>
<path d="M15240329.46119 4335112.86552l11.18761 -12.93622 "/>
<path d="M15240340.64879 4335099.92929l-2.62714 -55.77643 -10.16347 -22.62819 -7.31369 -29.84885 "/>
<path d="M15240320.54449 4334991.67582l0.90169 -8.87736 5.09843 -9.1811 7.87029 1.64293 5.57711 10.82403 "/>
<path d="M15240339.99201 4334986.08433l35.43299 25.59658 37.08052 67.33225 5.25428 4.90114 24.54595 11.0034 10.64214 1.6153 9.30631 -4.3627 30.05626 -26.67326 "/>
<path d="M15240358.01463 4335249.3231l12.17835 -3.25817 "/>
<path d="M15240370.19299 4335246.06492l49.00284 -14.05434 "/>
</g>
</svg>